<?xml version="1.0" encoding="UTF-8"?>
<!DOCTYPE svg PUBLIC "-//W3C//DTD SVG 1.1//EN" "http://www.w3.org/Graphics/SVG/1.1/DTD/svg11.dtd">
<!-- Creator: CorelDRAW 2019 (64-Bit) -->
<svg xmlns="http://www.w3.org/2000/svg" xml:space="preserve" width="148px" height="46px" version="1.1" style="shape-rendering:geometricPrecision; text-rendering:geometricPrecision; image-rendering:optimizeQuality; fill-rule:evenodd; clip-rule:evenodd"
viewBox="0 0 14800 4560"
 xmlns:xlink="http://www.w3.org/1999/xlink"
 xmlns:xodm="http://www.corel.com/coreldraw/odm/2003">
 <defs>
  <style type="text/css">
   <![CDATA[
    .fil0 {fill:none}
    .fil1 {fill:white;fill-rule:nonzero}
   ]]>
  </style>
 </defs>
 <g id="Слой_x0020_1">
  <metadata id="CorelCorpID_0Corel-Layer"/>
  <g id="_1773413747920">
   <rect class="fil0" width="14800" height="4560"/>
   <g id="_2594885379776">
    <path class="fil1" d="M12702 3293c81,3 78,71 100,118 37,97 152,163 288,195 68,17 141,25 214,26 71,0 145,-8 209,-21l1 0c155,-38 274,-117 274,-235 0,-101 -61,-161 -160,-201 -110,-45 -265,-63 -435,-75 -385,-25 -703,-106 -928,-276 -230,-175 -364,-439 -370,-830 -9,-552 334,-909 782,-1068 181,-65 379,-99 578,-99 199,0 396,32 578,98 438,153 781,493 793,1018 1,39 -22,92 -87,92l-762 0c-78,6 -74,-60 -84,-94 -19,-99 -98,-167 -199,-203 -60,-21 -128,-33 -193,-34 -70,-2 -140,6 -205,25 -145,39 -266,126 -273,255 -9,113 41,178 126,223 95,48 233,69 385,85 348,39 695,85 956,233 268,151 446,403 446,855 0,545 -378,896 -860,1050 -189,61 -393,91 -597,90 -204,-1 -410,-34 -598,-97 -465,-156 -826,-504 -835,-1049 3,-38 17,-78 81,-81l775 0 0 0 0 0 0 0z"/>
    <path class="fil1" d="M7595 1763l-773 0c-54,-4 -78,-42 -80,-81l0 -692c6,-63 54,-103 127,-105l2391 0c78,0 140,55 146,133l0 627c-4,65 -46,115 -125,118l-724 0 0 2597c-2,41 -34,79 -83,79l-787 0c-66,-3 -91,-37 -92,-90l0 -2586 0 0 0 0 0 0z"/>
    <path class="fil1" d="M11065 2609l0 106 0 1645c-3,41 -34,79 -84,79l-787 0c-65,-3 -89,-37 -92,-90l0 -1634 0 -106 0 -1633c3,-53 27,-88 92,-91l787 0c50,0 81,39 84,79l0 1645 0 0z"/>
    <path class="fil1" d="M1776 2953l492 -1145 503 1145 -995 0zm4624 590l0 0 -451 0 0 -2513c0,-118 -81,-165 -189,-144l-1381 360c-58,18 -107,70 -104,137l0 541c1,53 35,76 81,77l512 0 0 1542 -454 1c-59,-1 -81,30 -81,77l0 348 -336 -708 -1431 -3100c-34,-59 -93,-122 -229,-121l-139 0c-104,2 -156,22 -228,128l-1888 4096c-46,83 -2,188 138,189l798 0c100,-2 164,-46 190,-100l207 -449 1717 0 188 405c56,112 122,142 227,142l2807 0c72,-1 127,-59 128,-110l0 -719c0,-48 -24,-79 -84,-79l1 0 0 0 1 0z"/>
   </g>
  </g>
 </g>
</svg>
