<?xml version="1.0" encoding="UTF-8"?>
<!DOCTYPE svg PUBLIC "-//W3C//DTD SVG 1.1//EN" "http://www.w3.org/Graphics/SVG/1.1/DTD/svg11.dtd">
<!-- Creator: CorelDRAW 2019 (64-Bit) -->
<svg xmlns="http://www.w3.org/2000/svg" xml:space="preserve" width="152px" height="46px" version="1.1" style="shape-rendering:geometricPrecision; text-rendering:geometricPrecision; image-rendering:optimizeQuality; fill-rule:evenodd; clip-rule:evenodd"
viewBox="0 0 15200 4560"
 xmlns:xlink="http://www.w3.org/1999/xlink"
 xmlns:xodm="http://www.corel.com/coreldraw/odm/2003">
 <defs>
  <style type="text/css">
   <![CDATA[
    .fil0 {fill:none}
    .fil1 {fill:#FEFEFE;fill-rule:nonzero}
   ]]>
  </style>
 </defs>
 <g id="Слой_x0020_1">
  <metadata id="CorelCorpID_0Corel-Layer"/>
  <g id="_1738678938352">
   <rect class="fil0" width="15200" height="4560"/>
   <g id="_2800051776352">
    <path class="fil1" d="M4422 2592c315,0 376,165 376,554 0,549 -244,549 -396,549l-223 0 0 -1103 243 0 0 0zm26 -1727l0 0c221,0 310,207 310,490 0,362 -112,491 -271,491l-308 0 0 -981 269 0 0 0zm-1278 -745l0 0 0 4320 1393 0c967,0 1170,-634 1170,-1165 0,-454 -78,-925 -580,-1080 331,-137 592,-468 592,-933 0,-1023 -703,-1142 -1177,-1142l-1397 0 0 0 -1 0 0 0z"/>
    <path class="fil1" d="M7265 2592c315,0 377,165 377,554 0,549 -245,549 -396,549l-224 0 0 -1103 243 0 0 0zm26 -1727l0 0c221,0 310,207 310,490 0,362 -112,491 -269,491l-310 0 0 -981 269 0 0 0 0 0zm-1277 -745l0 0 0 4320 1391 0c968,0 1171,-634 1171,-1165 0,-454 -77,-925 -579,-1080 332,-137 592,-468 592,-933 0,-1023 -703,-1142 -1178,-1142l-1397 0 0 0 0 0z"/>
    <path class="fil1" d="M10396 120c0,0 -378,1465 -463,1731 -82,-266 -431,-1731 -431,-1731l-939 0c0,0 850,2803 855,2817l0 1503 1008 0 0 -1503c7,-15 854,-2817 854,-2817l-884 0 0 0 0 0 0 0z"/>
    <path class="fil1" d="M13220 120c0,0 -379,1465 -464,1731 -82,-266 -431,-1731 -431,-1731l-937 0c0,0 848,2803 853,2817l0 1503 1009 0 0 -1503c6,-15 853,-2817 853,-2817l-883 0 0 0z"/>
    <path class="fil1" d="M1269 2773l261 -1291 263 1291 -524 0zm859 1667l0 0 860 0 -872 -4320 -1170 0 -872 4320 860 0 186 -920 822 0 186 920 0 0 0 0z"/>
    <path class="fil1" d="M14728 921c-211,0 -399,-146 -399,-397 0,-251 188,-398 399,-398 210,0 398,147 398,398 0,251 -188,397 -398,397zm0 -703l0 0c-158,0 -285,123 -285,306 0,182 127,305 285,305 154,0 285,-123 285,-305 0,-183 -131,-306 -285,-306zm-67 520l0 0 -91 0 0 -429 160 0c111,0 175,32 175,128 0,80 -45,109 -102,114l110 186 -109 0 -101 -180 -42 0 0 180 0 0 0 1zm81 -254l0 0c42,0 67,-8 67,-55 0,-44 -47,-47 -83,-47l-65 0 0 102 81 0 0 0z"/>
   </g>
  </g>
 </g>
</svg>
