<?xml version="1.0" encoding="UTF-8"?>
<!DOCTYPE svg PUBLIC "-//W3C//DTD SVG 1.1//EN" "http://www.w3.org/Graphics/SVG/1.1/DTD/svg11.dtd">
<!-- Creator: CorelDRAW 2019 (64-Bit) -->
<svg xmlns="http://www.w3.org/2000/svg" xml:space="preserve" width="3508px" height="2480px" version="1.1" style="shape-rendering:geometricPrecision; text-rendering:geometricPrecision; image-rendering:optimizeQuality; fill-rule:evenodd; clip-rule:evenodd"
viewBox="0 0 3508 2480.4"
 xmlns:xlink="http://www.w3.org/1999/xlink">
 <defs>
  <style type="text/css">
   <![CDATA[
    .fil1 {fill:none}
    .fil0 {fill:#FEFEFE}
   ]]>
  </style>
 </defs>
 <g id="Слой_x0020_1">
  <metadata id="CorelCorpID_0Corel-Layer"/>
  <g id="_1701762631856">
   <path class="fil0" d="M1933.45 1833.16c1.39,6.27 7.76,16.72 11.08,22.04 13.02,21.09 29.36,35.53 50.41,49.78 58.16,39.89 151.49,38.94 209.93,0 14.96,-9.88 25.76,-18.43 36.56,-31.16 7.48,-9.31 23.54,-30.02 25.21,-40.85 -5.82,2.47 -69.8,-0.76 -81.99,-1.33 -54.28,-2.09 -114.93,-2.09 -169.22,0 -10.8,0.57 -77.82,3.42 -81.98,1.52z"/>
   <path class="fil0" d="M1933.45 1729.63c4.16,-2.66 69.8,0.95 81.15,1.14 27.97,0.57 56.5,1.71 84.47,1.71 40.44,0 85.58,-1.52 126.58,-2.85 11.35,-0.19 31.02,-2.09 40.99,-0.38 -3.33,-10.07 -11.64,-23.18 -18.01,-31.54 -33.79,-44.65 -88.9,-69.91 -148.72,-69.91 -45.15,0 -95.56,17.29 -124.08,43.88 -12.19,11.21 -22.16,21.09 -31.3,35.53 -1.94,3.42 -10.8,18.62 -11.08,22.42z"/>
   <path class="fil0" d="M1929.02 1822.34l1.94 -1.71c0.55,-0.38 0.83,-0.57 1.66,-0.57l37.94 0.76c40.16,1.32 92.51,4.75 129.35,4.75 45.42,0 102.75,-4.37 151.49,-5.51 6.65,-0.19 16.9,-1.71 19.67,2.28l3.04 -12.54c-7.2,3.42 -32.4,0.38 -42.09,-0.19 -88.63,-4.75 -176.15,-4.75 -264.78,0 -9.42,0.57 -34.9,3.61 -41.54,0.19l3.32 12.54z"/>
   <path class="fil0" d="M1929.02 1740.26l-3.32 12.35c7.2,-3.04 32.12,-0.19 41.54,0.19 73.95,3.99 147.34,4.94 221.57,2.09 14.4,-0.57 28.8,-1.14 43.21,-1.9 9.41,-0.57 35.45,-3.42 42.09,-0.19l-3.04 -12.54c-4.43,3.8 -10.8,2.47 -19.39,2.28l-65.36 -2.28c-28.25,-1.14 -58.44,-3.22 -86.41,-3.22 -27.7,-0.19 -58.44,2.27 -86.14,3.22l-75.89 2.47c-4.98,0.19 -6.09,-0.19 -8.86,-2.47z"/>
   <path class="fil0" d="M1923.76 1764.39l-0.83 10.45c6.64,-2.09 74.78,1.9 87.52,2.47 57.6,2.47 121.58,2.47 179.19,0 13.02,-0.57 80.87,-4.56 87.52,-2.28l-0.83 -10.64c-5.54,3.04 -11.08,1.71 -20.77,1.14 -7.48,-0.19 -14.68,-0.38 -22.16,-0.76 -42.93,-1.71 -90.84,-3.8 -133.49,-3.8 -52.63,0 -112.17,3.04 -165.91,5.13 -6.37,0.19 -5.81,0.76 -10.24,-1.71z"/>
   <path class="fil0" d="M1922.93 1787.57l0.83 10.64c8.31,-2.66 9.14,-1.71 20.77,-1.33 85.86,3.8 157.04,6.27 244.28,2.47l83.09 -2.85c4.15,0.57 1.94,0.57 4.43,1.71l0.83 -10.83c-4.98,2.66 -74.78,-1.52 -85.86,-2.09 -54.84,-2.47 -125.18,-2.47 -180.02,-0.19 -14.68,0.57 -79.77,4.94 -88.35,2.47z"/>
   <g>
    <path class="fil0" d="M2004.59 2051.46l0.03 -7.92c-14.46,1.97 -33.32,-5.46 -32.97,-22.53 0,-16.58 13.74,-22.89 33,-22.61l0.01 -8.05c-21.46,-0.77 -44.54,6 -45.07,30.66 0.24,22.51 19.52,32.21 45,30.45z"/>
    <path class="fil0" d="M1827.87 2052.98c17.07,0 30.98,-14.38 30.98,-32.02 0,-17.63 -13.91,-32.01 -30.98,-32.01 -17.06,0 -30.98,14.38 -30.98,32.01 0,17.64 13.92,32.02 30.98,32.02zm0 -8.73c10.77,0 19.55,-10.46 19.55,-23.29 0,-12.82 -8.78,-23.28 -19.55,-23.28 -10.76,0 -19.54,10.46 -19.54,23.28 0,12.83 8.78,23.29 19.54,23.29z"/>
    <path class="fil0" d="M2303.64 2052.98c17.06,0 30.98,-14.38 30.98,-32.02 0,-17.63 -13.92,-32.01 -30.98,-32.01 -17.06,0 -30.97,14.38 -30.97,32.01 0,17.64 13.91,32.02 30.97,32.02zm0 -8.73c10.76,0 19.55,-10.46 19.55,-23.29 0,-12.82 -8.79,-23.28 -19.55,-23.28 -10.77,0 -19.54,10.46 -19.54,23.28 0,12.83 8.77,23.29 19.54,23.29z"/>
    <polygon class="fil0" points="1738.17,2051.9 1748.65,2051.9 1748.65,1990.73 1738.17,1990.73 "/>
    <polygon class="fil0" points="1938.36,2051.9 1948.83,2051.9 1948.83,1990.73 1938.36,1990.73 "/>
    <polygon class="fil0" points="2183.02,2051.9 2193.49,2051.9 2193.49,1990.73 2183.02,1990.73 "/>
    <path class="fil0" d="M1912.89 1990.73l9.93 0 0 61.17c-2.89,0 -5.77,0 -8.66,0 -8.27,-20.72 -24.87,-41.06 -35.75,-47.51l0 47.51 -9.92 0 0 -61.17 7.72 0c16.01,10.19 30.27,25.07 36.68,38.02l0 -38.02z"/>
    <path class="fil0" d="M2253.66 1990.73l9.93 0 0 61.17c-2.89,0 -5.77,0 -8.65,0 -8.28,-20.72 -24.88,-41.06 -35.76,-47.51l0 47.51 -9.92 0 0 -61.17 7.72 0c16.01,10.19 30.27,25.07 36.68,38.02l0 -38.02z"/>
    <path class="fil0" d="M1768.81 2015.65c12.68,9.95 21.16,22.28 25.69,36.25l-11.68 0c-3.11,-8.69 -13.51,-25.5 -28.58,-34.63l25.19 -26.54 12.95 0 -23.57 24.92z"/>
    <polygon class="fil0" points="2008.9,2051.78 2019.28,2051.78 2036.32,2012.13 2056.82,2051.9 2069.04,2051.78 2036.57,1990.03 "/>
    <polygon class="fil0" points="2344.25,1990.73 2355.21,1990.73 2355.21,2043.87 2379.42,2043.87 2379.42,2051.9 2344.25,2051.9 "/>
    <path class="fil0" d="M2416.63 1990.73l0 7.97 -15.65 0 0 53.2 -10.47 0 0 -53.2 -15.66 0 0 -7.97c13.93,0 27.86,0 41.78,0z"/>
    <polygon class="fil0" points="2410.34,2051.78 2420.71,2051.78 2437.76,2012.13 2458.26,2051.9 2470.48,2051.78 2438,1990.03 "/>
    <path class="fil0" d="M2093.62 2051.78c3.74,0.04 7.49,0.08 11.24,0.12 2.83,-13.41 5.79,-26.87 8.85,-40.06 6.87,11.23 11.73,23 15.97,34.89l7.6 0c4.24,-11.89 9.09,-23.66 15.97,-34.89 3.06,13.19 6.02,26.65 8.85,40.06 3.75,-0.04 7.49,-0.08 11.24,-0.12 -5.54,-20.59 -9.66,-41.17 -17.29,-61.75 -7.85,10.3 -18.11,28.47 -22.57,41.06 -3.95,-12.81 -14.72,-30.77 -22.57,-41.06 -7.63,20.58 -11.76,41.16 -17.29,61.75z"/>
   </g>
  </g>
  <rect class="fil1" x="1728.51" y="1614.2" width="756.14" height="449.09"/>
 </g>
</svg>
