<?xml version="1.0" encoding="UTF-8"?>
<!DOCTYPE svg PUBLIC "-//W3C//DTD SVG 1.1//EN" "http://www.w3.org/Graphics/SVG/1.1/DTD/svg11.dtd">
<!-- Creator: CorelDRAW 2019 (64-Bit) -->
<svg xmlns="http://www.w3.org/2000/svg" xml:space="preserve" width="117px" height="49px" version="1.1" style="shape-rendering:geometricPrecision; text-rendering:geometricPrecision; image-rendering:optimizeQuality; fill-rule:evenodd; clip-rule:evenodd"
viewBox="0 0 11614 4832"
 xmlns:xlink="http://www.w3.org/1999/xlink"
 xmlns:xodm="http://www.corel.com/coreldraw/odm/2003">
 <defs>
  <style type="text/css">
   <![CDATA[
    .fil0 {fill:none}
    .fil2 {fill:white}
    .fil1 {fill:white;fill-rule:nonzero}
   ]]>
  </style>
 </defs>
 <g id="Слой_x0020_1">
  <metadata id="CorelCorpID_0Corel-Layer"/>
  <g id="_1773413749136">
   <rect class="fil0" width="11614" height="4832"/>
   <g id="_2799629986704">
    <path class="fil1" d="M9907 2322c-4,313 -122,559 -357,736 -234,175 -563,265 -985,267 -276,1 -526,-39 -748,-119 -220,-79 -410,-207 -570,-381 -25,-28 -43,-60 -56,-94 -13,-33 -19,-69 -19,-104 2,-90 31,-161 86,-215 56,-53 129,-81 219,-82 26,0 57,4 88,18 35,14 71,39 110,75 136,129 274,224 418,286 143,64 301,95 472,95 220,-3 392,-48 517,-136 126,-86 189,-195 191,-325 3,-97 -34,-180 -109,-248 -79,-68 -216,-122 -409,-157 -89,-17 -195,-34 -314,-51 -122,-19 -235,-39 -341,-61 -301,-71 -521,-183 -661,-334 -139,-151 -207,-333 -206,-546 4,-271 124,-488 358,-649 235,-162 555,-246 965,-250 210,0 407,26 587,78 181,53 338,127 470,223 58,39 99,84 123,130 23,48 34,94 34,139 -2,74 -29,138 -80,186 -50,49 -112,73 -187,74 -40,0 -78,-7 -112,-23 -34,-17 -75,-40 -121,-74 -87,-58 -186,-111 -302,-152 -117,-44 -246,-66 -385,-67 -265,4 -453,46 -565,124 -110,79 -165,164 -160,256 -3,79 28,149 89,207 60,59 158,104 295,134 59,12 140,26 246,45l306 51 219 36c294,51 516,152 667,302 151,151 225,352 226,606l0 0 0 0 1 0 0 0 0 0z"/>
    <path class="fil1" d="M6550 399c27,24 56,50 83,78 18,19 34,41 54,63 45,53 70,107 81,166 10,79 -8,148 -51,202 -44,57 -100,90 -170,101 -93,10 -167,-11 -222,-63 -25,-25 -51,-49 -81,-76 -36,-34 -76,-68 -118,-106 -69,-52 -131,-86 -199,-114 -115,-48 -259,-73 -428,-73 -296,7 -535,113 -716,320 -183,204 -276,468 -281,786 2,212 45,401 130,569 84,168 201,301 349,400 151,99 322,150 518,152 129,-2 243,-23 342,-57 104,-50 194,-100 266,-162 81,-67 146,-123 193,-170 32,-32 69,-51 108,-67 37,-15 77,-19 121,-14 77,11 137,45 182,101 46,56 65,126 57,205 -3,32 -12,63 -23,96 -13,32 -33,63 -58,90 -168,189 -370,326 -608,410 -98,37 -202,62 -309,78 -86,9 -178,15 -271,16 -302,-4 -575,-79 -818,-225 -244,-145 -436,-342 -582,-589 -144,-246 -217,-525 -219,-833 2,-307 75,-584 218,-830 143,-246 338,-442 580,-588 245,-146 516,-219 821,-223 10,0 18,0 28,0l10 0c147,0 314,26 500,76 140,39 274,103 401,193 0,0 66,50 112,88l0 0 0 0 0 0 0 0 0 0z"/>
    <path class="fil1" d="M2681 903c181,206 275,467 280,785 -5,319 -99,582 -280,786 -146,163 -291,256 -520,319 -128,27 -210,138 -210,262 0,147 118,268 267,268 15,0 29,-1 45,-4 199,-36 351,-112 523,-214 242,-145 435,-340 578,-587 143,-246 218,-523 220,-830 -2,-307 -77,-583 -220,-829 -143,-246 -336,-442 -578,-586 -172,-104 -324,-178 -523,-214 -16,-2 -30,-3 -45,-3 -149,0 -267,120 -267,268 0,123 82,235 210,261 229,64 374,154 520,318l0 0 0 0 0 0z"/>
    <path class="fil1" d="M1007 903c-181,206 -276,467 -281,785 6,319 100,582 281,786 144,163 290,256 520,319 128,27 210,138 210,262 0,147 -119,268 -266,268 -17,0 -32,-1 -45,-4 -201,-36 -353,-112 -522,-214 -244,-145 -437,-340 -581,-587 -144,-246 -217,-523 -220,-830 3,-307 76,-583 220,-829 144,-246 337,-442 581,-586 169,-104 321,-178 522,-214 13,-2 28,-3 45,-3 147,0 266,120 266,268 0,123 -82,235 -210,261 -230,64 -376,154 -520,318l0 0 0 0 0 0z"/>
    <path class="fil2" d="M2246 4105l0 489 50 0c78,0 135,-21 177,-61 40,-40 58,-101 58,-183 0,-83 -18,-145 -58,-182 -42,-42 -100,-63 -181,-63l-46 0 0 0 0 0 0 0zm-215 666l0 -846 292 0c58,0 114,9 167,22 52,16 98,40 136,76 40,31 71,75 94,129 23,53 34,119 34,196 0,75 -12,142 -35,194 -22,55 -54,98 -94,132 -39,34 -85,58 -140,74 -54,16 -110,23 -172,23l-283 0 0 0 0 0 1 0 0 0 0 0z"/>
    <polygon class="fil1" points="2995,3925 3210,3925 3210,4770 2995,4770 "/>
    <path class="fil1" d="M3801 3911c58,0 115,8 170,28 55,19 102,47 144,81l-116 155c-39,-31 -74,-51 -111,-66 -35,-11 -68,-17 -100,-17 -34,0 -58,7 -73,21 -13,14 -20,30 -20,47 0,12 2,22 11,31 6,7 14,14 29,22 12,6 25,11 42,15 16,5 35,11 54,16 32,10 67,20 102,31 36,12 68,28 100,48 29,20 55,47 76,77 20,32 30,71 30,121 0,44 -9,85 -26,119 -19,33 -42,61 -73,83 -31,23 -67,40 -109,51 -42,11 -87,15 -134,15 -68,0 -133,-12 -194,-35 -63,-22 -114,-52 -157,-92l122 -150c38,33 77,56 117,69 43,16 79,23 114,23 39,0 69,-6 88,-20 19,-14 29,-32 29,-55 0,-11 -1,-20 -7,-27 -5,-9 -11,-17 -23,-24 -11,-7 -26,-13 -44,-20 -20,-6 -43,-13 -72,-21 -46,-11 -88,-25 -123,-39 -35,-15 -67,-32 -91,-53 -28,-19 -45,-42 -60,-72 -14,-28 -20,-60 -20,-101 0,-43 9,-82 26,-113 19,-33 43,-61 71,-81 32,-24 66,-41 105,-50 37,-11 79,-17 123,-17l0 0 0 0 0 0 0 0 0 0z"/>
    <polygon class="fil1" points="4761,4770 4548,4770 4548,4103 4305,4103 4305,3924 5003,3924 5003,4103 4761,4103 "/>
    <path class="fil2" d="M5416 4103l0 191 145 0c34,0 62,-7 81,-23 20,-17 31,-41 31,-74 0,-33 -11,-55 -32,-71 -22,-15 -47,-23 -79,-23l-146 0 0 0 0 0 0 0 0 0zm478 95c0,64 -14,116 -42,156 -27,40 -65,70 -113,90l153 325 -224 0 -125 -297 -127 0 0 297 -214 0 0 -845 392 0c43,0 82,6 119,17 38,11 69,27 95,50 27,22 47,51 63,86 16,35 23,74 23,121l0 0 0 0 0 0z"/>
    <polygon class="fil1" points="6144,3922 6362,3922 6362,4769 6144,4769 "/>
    <path class="fil2" d="M6851 4409l0 181 152 0c34,0 61,-9 80,-23 20,-14 30,-38 30,-70 0,-34 -11,-57 -33,-69 -23,-13 -49,-19 -80,-19l-149 0 0 0 0 0 0 0zm0 -307l0 136 144 0c29,0 50,-7 67,-17 15,-12 23,-29 23,-51 0,-45 -28,-68 -85,-68l-149 0 0 0 0 0 0 0zm335 209c19,5 38,14 56,26 18,13 34,28 47,45 15,17 26,36 34,57 8,22 12,44 12,69 0,82 -25,146 -79,191 -51,47 -127,70 -225,70l-394 0 0 -847 398 0c81,0 147,19 196,56 47,34 72,86 72,158 0,40 -13,77 -35,106 -24,30 -51,52 -82,64l0 5 0 0 0 0z"/>
    <path class="fil1" d="M7937 4780c-54,0 -104,-9 -149,-25 -44,-13 -82,-37 -113,-69 -32,-30 -57,-69 -73,-116 -17,-46 -27,-101 -27,-163l0 -485 216 0 0 474c0,64 12,111 37,145 25,33 62,50 111,50 50,0 88,-16 113,-48 24,-32 36,-80 36,-141l0 -482 215 0 0 487c0,62 -7,117 -27,165 -17,46 -42,84 -74,117 -32,30 -71,53 -116,69 -45,13 -94,21 -149,21l0 0 0 0 0 2 0 -1 0 0z"/>
    <polygon class="fil1" points="8962,4768 8746,4768 8746,4102 8505,4102 8505,3920 9203,3920 9203,4102 8962,4102 "/>
    <polygon class="fil1" points="9414,3920 9631,3920 9631,4768 9414,4768 "/>
    <path class="fil2" d="M10259 4099c-30,0 -53,6 -74,21 -19,12 -37,29 -51,52 -12,22 -23,48 -29,77 -6,30 -10,63 -10,97 0,37 4,71 10,102 7,30 18,58 30,80 16,22 33,39 54,51 19,15 45,21 73,21 28,0 51,-6 71,-21 22,-15 38,-32 53,-55 12,-22 23,-51 29,-80 7,-31 10,-62 10,-96 0,-36 -3,-69 -10,-100 -6,-28 -17,-55 -29,-77 -16,-23 -32,-40 -54,-51 -20,-15 -45,-21 -73,-21l0 0 0 0 0 0zm0 689c-64,0 -120,-12 -170,-33 -48,-21 -88,-51 -119,-90 -32,-39 -56,-85 -74,-137 -14,-53 -23,-112 -23,-178 0,-63 9,-123 23,-176 18,-54 42,-101 75,-140 33,-41 73,-71 121,-92 49,-22 105,-31 170,-31 61,0 117,9 165,31 49,21 88,50 121,89 33,40 57,85 74,140 17,54 26,115 26,179 0,67 -9,128 -26,181 -17,53 -41,99 -74,137 -34,38 -73,68 -121,87 -48,21 -106,33 -168,33l0 0 0 0 0 0 0 0z"/>
    <path class="fil1" d="M11199 4465l-132 -200 -3 0 0 501 -211 0 0 -846 199 0 185 269c5,8 14,22 28,43 13,20 28,41 42,64 15,24 31,46 44,67 12,20 22,35 29,44l4 0 0 -487 212 0 0 846 -188 0 -209 -301 0 0 0 0 0 0 0 0 0 0z"/>
   </g>
  </g>
 </g>
</svg>
