<?xml version="1.0" encoding="UTF-8"?>
<!DOCTYPE svg PUBLIC "-//W3C//DTD SVG 1.1//EN" "http://www.w3.org/Graphics/SVG/1.1/DTD/svg11.dtd">
<!-- Creator: CorelDRAW 2019 (64-Bit) -->
<svg xmlns="http://www.w3.org/2000/svg" xml:space="preserve" width="137px" height="54px" version="1.1" style="shape-rendering:geometricPrecision; text-rendering:geometricPrecision; image-rendering:optimizeQuality; fill-rule:evenodd; clip-rule:evenodd"
viewBox="0 0 13700 5385"
 xmlns:xlink="http://www.w3.org/1999/xlink"
 xmlns:xodm="http://www.corel.com/coreldraw/odm/2003">
 <defs>
  <style type="text/css">
   <![CDATA[
    .fil0 {fill:none}
    .fil1 {fill:#FEFEFE}
   ]]>
  </style>
 </defs>
 <g id="Слой_x0020_1">
  <metadata id="CorelCorpID_0Corel-Layer"/>
  <g id="_1738686420768">
   <rect class="fil0" width="13700" height="5385"/>
   <g id="_2465341258656">
    <path class="fil1" d="M6943 1959l0 3308 -1437 0 0 -1273 -1072 1074 -2512 -2510 970 -970 -1090 0 0 2237 -1438 0 0 -3676c1038,0 2074,0 3109,0l0 3c643,36 1156,570 1156,1221 0,319 -124,610 -325,827l-354 354 484 479 1072 -1070 1437 -4 0 0z"/>
    <polygon class="fil1" points="3245,5267 1802,5267 1802,3825 "/>
    <path class="fil1" d="M8890 118l-3 0c-305,2 -436,169 -436,380l0 606c0,269 136,425 436,425 305,0 439,-156 439,-425l0 -604c0,-210 -131,-382 -436,-382zm110 1042c0,82 -58,120 -113,120 -57,0 -112,-38 -112,-120l0 -683c0,-76 55,-110 112,-110 55,0 113,34 113,110l0 683z"/>
    <path class="fil1" d="M10052 1152c0,86 -36,128 -109,128 -72,0 -108,-40 -108,-128l0 -1003 -323 0 0 951c0,325 155,429 431,429 274,0 435,-104 435,-429l0 -951 -326 0 0 1003 0 0z"/>
    <path class="fil1" d="M8275 1115c0,-205 -80,-299 -200,-370l-201 -122c-79,-49 -106,-89 -106,-161 0,-61 36,-100 99,-100 72,0 116,48 116,165l0 28 292 0 0 -23c0,-292 -183,-414 -403,-414 -242,0 -400,133 -400,370 0,177 76,302 191,372l195 120c84,49 125,94 125,175 0,83 -41,132 -107,132 -78,0 -127,-31 -127,-154l0 -86 -295 0 0 100c0,253 133,382 414,382 255,0 407,-134 407,-414l0 0z"/>
    <path class="fil1" d="M6196 831c127,-57 185,-136 185,-343 0,-225 -153,-341 -355,-341l-513 0 0 1353 326 0 0 -527 72 0c14,0 25,0 37,2 67,12 74,54 92,127l54 222c28,101 41,176 125,176l253 0 -107 -427c-36,-141 -70,-213 -169,-242l0 0zm-248 -102c-10,0 -16,0 -26,0l-83 0 0 -338 81 0c10,0 18,0 28,3 65,8 108,60 108,167 0,109 -43,156 -108,167l0 1z"/>
    <polygon class="fil1" points="6568,1498 7320,1498 7320,1242 6891,1242 6891,925 7275,925 7275,670 6891,670 6891,405 7320,405 7320,149 6568,149 "/>
    <path class="fil1" d="M12492 964l-324 0 0 178c0,102 -49,138 -120,138 -67,0 -110,-40 -110,-142l0 -672c0,-70 57,-99 110,-99 52,0 120,34 120,106l0 122 324 0 0 -92c0,-211 -136,-385 -439,-385 -307,0 -438,169 -438,382l0 589c0,309 140,440 438,440 301,0 439,-133 439,-439l0 -126 0 0z"/>
    <path class="fil1" d="M11258 831c126,-57 185,-136 185,-343 0,-225 -152,-341 -356,-341l-513 0 0 1353 326 0 0 -527 72 0c13,0 26,0 36,2 68,12 75,54 93,127l55 222c27,101 42,176 124,176l254 0 -107 -427c-36,-141 -70,-213 -169,-242l0 0zm-250 -102c-7,0 -15,0 -24,0l-84 0 0 -338 82 0c8,0 18,0 26,3 66,8 109,60 109,167 0,109 -43,156 -109,167l0 1z"/>
    <polygon class="fil1" points="13431,405 13431,149 12675,149 12675,1498 13431,1498 13431,1242 13001,1242 13001,925 13385,925 13385,670 13001,670 13001,405 "/>
    <path class="fil1" d="M12931 1981l-190 0 -292 1341 321 0 43 -268 246 0 49 268 318 0 -299 -1341 -196 0zm0 830l-86 0 84 -588 2 0 86 588 -86 0z"/>
    <polygon class="fil1" points="9476,3322 10226,3322 10226,3067 9799,3067 9799,2755 10180,2755 10180,2499 9799,2499 9799,2235 10226,2235 10226,1981 9476,1981 "/>
    <polygon class="fil1" points="11836,3322 12162,3322 12162,1981 11836,1981 "/>
    <path class="fil1" d="M11068 1981l-451 0 0 1341 451 0c279,0 409,-127 409,-348l0 -653c0,-238 -127,-340 -409,-340l0 0zm86 957c0,95 -34,136 -107,142 -9,0 -16,0 -27,0l-79 0 0 -857 79 0c9,0 18,0 27,0 75,7 107,47 107,138l0 577z"/>
    <path class="fil1" d="M8483 2527c-21,95 -34,300 -50,420l-5 0c-13,-127 -27,-310 -47,-420l-104 -546 -453 0 0 1341 310 0 0 -472c0,-181 -11,-489 -18,-583l2 0 202 1055 223 0 199 -1055 3 0c-7,112 -16,456 -16,583l0 472 307 0 0 -1341 -449 0 -104 546z"/>
   </g>
  </g>
 </g>
</svg>
