<?xml version="1.0" encoding="UTF-8"?>
<!DOCTYPE svg PUBLIC "-//W3C//DTD SVG 1.1//EN" "http://www.w3.org/Graphics/SVG/1.1/DTD/svg11.dtd">
<!-- Creator: CorelDRAW 2019 (64-Bit) -->
<svg xmlns="http://www.w3.org/2000/svg" xml:space="preserve" width="118px" height="46px" version="1.1" style="shape-rendering:geometricPrecision; text-rendering:geometricPrecision; image-rendering:optimizeQuality; fill-rule:evenodd; clip-rule:evenodd"
viewBox="0 0 11781 4632"
 xmlns:xlink="http://www.w3.org/1999/xlink"
 xmlns:xodm="http://www.corel.com/coreldraw/odm/2003">
 <defs>
  <style type="text/css">
   <![CDATA[
    .fil0 {fill:none}
    .fil1 {fill:#FEFEFE}
   ]]>
  </style>
 </defs>
 <g id="Слой_x0020_1">
  <metadata id="CorelCorpID_0Corel-Layer"/>
  <g id="_1738101988496">
   <polygon class="fil0" points="0,4632 11781,4632 11781,0 0,0 "/>
   <g id="_2465341258656">
    <path class="fil1" d="M5970 1685l0 2845 -1235 0 0 -1095 -922 924 -2160 -2159 834 -834 -938 0 0 1923 -1236 0 0 -3160c893,0 1783,0 2674,0l0 2c552,31 993,490 993,1050 0,274 -106,525 -279,712l-304 303 416 412 922 -919 1235 -4 0 0z"/>
    <polygon class="fil1" points="2790,4530 1549,4530 1549,3289 "/>
    <path class="fil1" d="M7645 102l-3 0c-262,1 -375,145 -375,326l0 521c0,232 117,366 375,366 263,0 378,-134 378,-366l0 -519c0,-180 -113,-328 -375,-328zm95 896c0,70 -51,103 -98,103 -48,0 -96,-33 -96,-103l0 -587c0,-66 48,-95 96,-95 47,0 98,29 98,95l0 587z"/>
    <path class="fil1" d="M8644 991c0,74 -31,110 -93,110 -63,0 -94,-35 -94,-110l0 -862 -278 0 0 817c0,279 134,369 372,369 235,0 373,-90 373,-369l0 -817 -280 0 0 862 0 0z"/>
    <path class="fil1" d="M7116 959c0,-176 -68,-257 -172,-318l-173 -105c-68,-42 -91,-77 -91,-138 0,-53 31,-87 86,-87 61,0 99,42 99,143l0 23 251 0 0 -19c0,-251 -158,-356 -346,-356 -208,0 -345,114 -345,318 0,152 66,259 165,320l167 103c73,42 108,81 108,151 0,71 -35,113 -92,113 -67,0 -109,-27 -109,-133l0 -74 -254 0 0 87c0,217 114,328 356,328 219,0 350,-115 350,-356l0 0z"/>
    <path class="fil1" d="M5328 714c109,-48 160,-116 160,-294 0,-194 -132,-293 -306,-293l-441 0 0 1163 280 0 0 -453 62 0c12,0 22,0 32,2 57,10 64,46 79,109l47 191c23,87 35,151 107,151l218 0 -92 -367c-31,-122 -60,-183 -146,-208l0 -1zm-213 -87c-9,0 -14,0 -22,0l-72 0 0 -290 70 0c8,0 16,0 24,2 56,7 93,52 93,144 0,93 -37,134 -93,144l0 0z"/>
    <polygon class="fil1" points="5648,1288 6295,1288 6295,1068 5926,1068 5926,796 6256,796 6256,576 5926,576 5926,349 6295,349 6295,129 5648,129 "/>
    <path class="fil1" d="M10742 829l-278 0 0 154c0,87 -42,118 -103,118 -58,0 -95,-35 -95,-122l0 -578c0,-60 49,-85 95,-85 45,0 103,29 103,91l0 105 278 0 0 -79c0,-182 -116,-331 -377,-331 -264,0 -377,145 -377,328l0 506c0,267 120,379 377,379 259,0 377,-115 377,-377l0 -109 0 0z"/>
    <path class="fil1" d="M9681 714c109,-48 159,-116 159,-294 0,-194 -131,-293 -305,-293l-442 0 0 1163 281 0 0 -453 61 0c12,0 22,0 31,2 59,10 65,46 80,109l47 191c24,87 37,151 107,151l218 0 -92 -367c-31,-122 -60,-183 -145,-208l0 -1zm-215 -87c-5,0 -13,0 -21,0l-71 0 0 -290 70 0c7,0 15,0 22,2 57,7 94,52 94,144 0,93 -37,134 -94,144l0 0z"/>
    <polygon class="fil1" points="11549,349 11549,129 10900,129 10900,1288 11549,1288 11549,1068 11180,1068 11180,796 11511,796 11511,576 11180,576 11180,349 "/>
    <path class="fil1" d="M11120 1704l-164 0 -251 1153 277 0 36 -231 212 0 42 231 273 0 -256 -1153 -169 0zm0 713l-74 0 72 -505 2 0 74 505 -74 0z"/>
    <polygon class="fil1" points="8148,2857 8794,2857 8794,2638 8426,2638 8426,2369 8755,2369 8755,2149 8426,2149 8426,1922 8794,1922 8794,1704 8148,1704 "/>
    <polygon class="fil1" points="10178,2857 10458,2857 10458,1704 10178,1704 "/>
    <path class="fil1" d="M9518 1704l-388 0 0 1153 388 0c240,0 351,-109 351,-299l0 -562c0,-204 -109,-292 -351,-292l0 0zm73 823c0,81 -29,116 -91,122 -8,0 -14,0 -24,0l-67 0 0 -737 67 0c8,0 16,0 24,0 64,6 91,41 91,119l0 496z"/>
    <path class="fil1" d="M7295 2173c-18,82 -30,258 -43,361l-5 0c-11,-108 -22,-266 -40,-361l-90 -469 -389 0 0 1153 267 0 0 -406c0,-155 -10,-420 -16,-501l2 0 174 907 191 0 172 -907 2 0c-6,96 -13,392 -13,501l0 406 264 0 0 -1153 -387 0 -89 469z"/>
   </g>
  </g>
 </g>
</svg>
