<?xml version="1.0" encoding="UTF-8"?>
<!DOCTYPE svg PUBLIC "-//W3C//DTD SVG 1.1//EN" "http://www.w3.org/Graphics/SVG/1.1/DTD/svg11.dtd">
<!-- Creator: CorelDRAW 2019 (64-Bit) -->
<svg xmlns="http://www.w3.org/2000/svg" xml:space="preserve" width="148px" height="42px" version="1.1" style="shape-rendering:geometricPrecision; text-rendering:geometricPrecision; image-rendering:optimizeQuality; fill-rule:evenodd; clip-rule:evenodd"
viewBox="0 0 14800 4176"
 xmlns:xlink="http://www.w3.org/1999/xlink"
 xmlns:xodm="http://www.corel.com/coreldraw/odm/2003">
 <defs>
  <style type="text/css">
   <![CDATA[
    .fil0 {fill:none}
    .fil2 {fill:#FEFEFE}
    .fil1 {fill:#FEFEFE;fill-rule:nonzero}
   ]]>
  </style>
 </defs>
 <g id="Слой_x0020_1">
  <metadata id="CorelCorpID_0Corel-Layer"/>
  <g id="_1773418242160">
   <rect class="fil0" width="14800" height="4176"/>
   <g id="_2799268891120">
    <polygon class="fil1" points="5305,2258 4785,907 5112,907 5486,1945 5859,907 6187,907 5666,2258 "/>
    <path class="fil1" d="M6306 2258l0 -980 257 0 0 980 -257 0zm-27 -1239c0,-84 69,-153 153,-153 86,0 154,69 154,153 0,87 -68,155 -154,155 -84,0 -153,-68 -153,-155l0 0 0 0z"/>
    <path class="fil1" d="M6733 2128l110 -179c73,67 217,133 339,133 112,0 164,-44 164,-105 0,-161 -580,-30 -580,-415 0,-164 143,-307 400,-307 143,-3 283,45 395,133l-104 176c-59,-62 -169,-113 -289,-113 -93,0 -154,43 -154,98 0,145 579,24 579,418 0,178 -152,315 -423,315 -170,-1 -334,-58 -437,-154l0 0 0 0 0 0z"/>
    <path class="fil1" d="M7784 2258l0 -980 257 0 0 980 -257 0zm-27 -1239c0,-84 69,-153 153,-153 86,0 155,69 155,153 0,87 -69,155 -155,155 -84,0 -153,-68 -153,-155z"/>
    <path class="fil1" d="M9000 1767c0,-152 -91,-284 -251,-284 -161,0 -250,132 -250,284 0,152 89,286 250,286 160,0 251,-132 251,-286l0 0zm-767 0c0,-277 194,-512 517,-512 321,0 517,235 517,512 0,277 -194,514 -517,514 -324,0 -517,-234 -517,-514z"/>
    <path class="fil1" d="M10118 2258l0 -592c0,-135 -71,-183 -181,-183 -88,1 -170,43 -221,116l0 659 -258 0 0 -979 257 0 0 128c86,-98 212,-153 341,-152 216,0 318,122 318,312l0 691 -256 0 0 0 0 0 0 0z"/>
    <polygon class="fil1" points="10635,2258 10635,907 10923,907 10923,2004 11495,2004 11495,2258 "/>
    <path class="fil1" d="M12262 2023l0 -122c-43,-57 -124,-85 -207,-85 -101,0 -184,53 -184,147 0,92 83,144 184,144 83,0 164,-28 207,-84l0 0zm0 235l0 -102c-68,79 -182,126 -310,126 -157,0 -341,-106 -341,-324 0,-229 184,-317 341,-317 130,0 244,43 310,120l0 -131c0,-99 -86,-164 -216,-164 -105,0 -208,41 -284,114l-97 -171c118,-102 270,-157 427,-154 222,0 427,89 427,370l0 632 -257 1 0 0 0 0 0 0z"/>
    <path class="fil1" d="M13250 2053c150,0 250,-113 250,-285 0,-169 -98,-285 -250,-285 -83,0 -177,50 -220,115l0 345c43,63 139,110 220,110l0 0zm-476 205l0 -1351 257 0 0 499c72,-96 184,-151 301,-151 250,0 434,195 434,513 0,327 -187,514 -434,514 -117,0 -229,-56 -301,-151l0 127 -257 0 0 0 0 0 0 0z"/>
    <path class="fil1" d="M13875 2128l111 -179c71,67 216,133 339,133 111,0 164,-44 164,-105 0,-161 -582,-30 -582,-415 0,-164 144,-307 402,-307 142,-3 281,45 393,133l-103 176c-59,-62 -169,-113 -289,-113 -93,0 -154,43 -154,98 0,144 566,26 579,406l0 25c-8,171 -159,302 -423,302 -169,-2 -334,-58 -437,-154l0 0 0 0 0 0z"/>
    <polygon class="fil1" points="5591,3391 5591,3045 5446,3391 5413,3391 5269,3043 5269,3391 5187,3391 5187,2925 5302,2925 5428,3232 5556,2925 5673,2925 5673,3391 "/>
    <path class="fil1" d="M6152 3007l-84 222 168 0 -84 -222 0 0zm141 384l-32 -89 -215 0 -34 89 -93 0 183 -466 102 0 184 466 -95 0 0 0z"/>
    <path class="fil1" d="M6590 3158c0,-143 107,-242 245,-242 77,-1 149,39 187,106l-69 35c-24,-41 -69,-67 -118,-68 -92,0 -161,70 -161,169 0,98 69,170 161,170 49,-1 94,-27 118,-69l69 36c-38,65 -110,106 -187,104 -138,0 -245,-97 -245,-241l0 0z"/>
    <polygon class="fil1" points="7608,3391 7608,3188 7365,3188 7365,3391 7283,3391 7283,2925 7365,2925 7365,3116 7608,3116 7608,2925 7690,2925 7690,3391 "/>
    <polygon class="fil1" points="7986,3391 8068,3391 8068,2925 7986,2925 "/>
    <polygon class="fil1" points="8689,3391 8446,3057 8446,3391 8364,3391 8364,2925 8447,2925 8687,3249 8687,2925 8769,2925 8769,3391 "/>
    <polygon class="fil1" points="9064,3391 9064,2925 9384,2925 9384,2997 9146,2997 9146,3118 9379,3118 9379,3190 9146,3190 9146,3319 9384,3319 9384,3391 "/>
    <path class="fil1" d="M9633 3325l47 -63c37,41 90,66 147,66 67,0 94,-33 94,-65 0,-98 -273,-36 -273,-209 0,-76 69,-137 171,-137 64,-2 128,22 174,65l-46 61c-37,-34 -85,-53 -136,-53 -47,0 -79,24 -79,59 0,87 272,32 272,207 0,77 -55,144 -180,144 -86,-1 -149,-30 -191,-75l0 0 0 0z"/>
    <path class="fil1" d="M10631 3158c0,-143 107,-242 245,-242 78,-1 149,39 188,106l-70 35c-24,-41 -70,-67 -118,-68 -93,0 -161,70 -161,169 0,98 68,170 161,170 48,-1 94,-27 118,-69l70 36c-40,65 -110,106 -188,104 -138,0 -245,-97 -245,-241l0 0z"/>
    <path class="fil1" d="M11507 3007l-84 222 168 0 -84 -222 0 0zm141 384l-33 -89 -215 0 -34 89 -92 0 182 -466 103 0 182 466 -93 0 0 0 0 0z"/>
    <polygon class="fil1" points="12314,3391 12071,3057 12071,3391 11989,3391 11989,2925 12073,2925 12312,3249 12312,2925 12394,2925 12394,3391 "/>
    <path class="fil1" d="M13035 3325l45 -63c39,41 93,66 148,66 68,0 95,-33 95,-65 0,-98 -272,-36 -272,-209 0,-76 67,-137 169,-137 65,-2 127,22 176,65l-48 61c-35,-34 -85,-53 -134,-53 -50,0 -80,24 -80,59 0,87 272,32 272,207 0,77 -55,144 -181,144 -87,-1 -148,-30 -190,-75l0 0 0 0z"/>
    <polygon class="fil1" points="13678,3391 13678,2925 13997,2925 13997,2997 13760,2997 13760,3118 13992,3118 13992,3190 13760,3190 13760,3319 13997,3319 13997,3391 "/>
    <polygon class="fil1" points="14276,3391 14276,2925 14598,2925 14598,2997 14358,2997 14358,3118 14592,3118 14592,3190 14358,3190 14358,3319 14598,3319 14598,3391 "/>
    <g>
     <path class="fil2" d="M3558 2793c9,-141 -16,-467 -129,-548 -250,340 -461,561 -884,668 -132,34 -387,48 -602,29 -455,-40 -876,-348 -1111,-734 -150,-246 -238,-552 -218,-855 9,-129 35,-207 50,-317 94,-267 234,-548 464,-717 39,-28 64,-50 98,-77 -55,15 -151,63 -202,96 -75,46 -191,128 -292,216 -154,133 -323,344 -417,523 -59,113 -112,232 -139,310 -183,511 -134,1141 110,1613 301,584 860,990 1503,1104 959,168 1712,-259 1769,-1311l0 0 0 0 0 0z"/>
     <path class="fil2" d="M768 1382c-8,141 18,467 130,549 251,-339 462,-561 885,-669 132,-33 386,-48 601,-29 457,41 875,348 1111,734 150,246 238,553 217,856 -8,129 -34,207 -49,316 -93,267 -233,548 -464,718 -38,27 -65,49 -98,77 55,-15 151,-64 202,-96 75,-47 192,-129 293,-217 153,-132 321,-344 415,-522 60,-113 113,-232 141,-310 182,-511 133,-1141 -112,-1614 -301,-584 -859,-990 -1501,-1102 -960,-170 -1712,257 -1771,1309l0 0 0 0 0 0z"/>
    </g>
   </g>
  </g>
 </g>
</svg>
