<?xml version="1.0" encoding="UTF-8"?>
<!DOCTYPE svg PUBLIC "-//W3C//DTD SVG 1.1//EN" "http://www.w3.org/Graphics/SVG/1.1/DTD/svg11.dtd">
<!-- Creator: CorelDRAW 2019 (64-Bit) -->
<svg xmlns="http://www.w3.org/2000/svg" xml:space="preserve" width="40px" height="40px" version="1.1" style="shape-rendering:geometricPrecision; text-rendering:geometricPrecision; image-rendering:optimizeQuality; fill-rule:evenodd; clip-rule:evenodd"
viewBox="0 0 40 40"
 xmlns:xlink="http://www.w3.org/1999/xlink">
 <defs>
  <style type="text/css">
   <![CDATA[
    .fil0 {fill:red}
   ]]>
  </style>
 </defs>
 <g id="Слой_x0020_1">
  <metadata id="CorelCorpID_0Corel-Layer"/>
  <path class="fil0" d="M12 16.29l-2.72 2.73 8.77 8.78 19.5 -19.5 -2.73 -2.73 -16.77 16.77 -6.05 -6.05zm23.6 3.71c0,8.58 -7.02,15.6 -15.6,15.6 -8.58,0 -15.6,-7.02 -15.6,-15.6 0,-8.58 7.02,-15.6 15.6,-15.6 1.56,0 2.93,0.19 4.29,0.58l3.12 -3.11c-2.34,-0.79 -4.88,-1.37 -7.41,-1.37 -10.72,0 -19.5,8.77 -19.5,19.5 0,10.72 8.78,19.5 19.5,19.5 10.73,0 19.5,-8.78 19.5,-19.5l-3.9 0z"/>
 </g>
</svg>
