<?xml version="1.0" encoding="UTF-8"?>
<!DOCTYPE svg PUBLIC "-//W3C//DTD SVG 1.1//EN" "http://www.w3.org/Graphics/SVG/1.1/DTD/svg11.dtd">
<!-- Creator: CorelDRAW 2019 (64-Bit) -->
<svg xmlns="http://www.w3.org/2000/svg" xml:space="preserve" width="1594px" height="1594px" version="1.1" style="shape-rendering:geometricPrecision; text-rendering:geometricPrecision; image-rendering:optimizeQuality; fill-rule:evenodd; clip-rule:evenodd"
viewBox="0 0 1594 1594"
 xmlns:xlink="http://www.w3.org/1999/xlink"
 enable-background="new 0 0 64 64">
 <defs>
  <style type="text/css">
   <![CDATA[
    .fil0 {fill:#00A4F8}
   ]]>
  </style>
 </defs>
 <g id="Слой_x0020_1">
  <metadata id="CorelCorpID_0Corel-Layer"/>
  <g id="_2800620793296">
   <path class="fil0" d="M1436.7 1266.4c35.96,-27.42 59.33,-70.58 59.33,-119.19 0,-74.16 -54.16,-135.74 -124.96,-147.71l0 -27.24c0,-68.9 -56.06,-124.96 -124.96,-124.96l-424.87 0 0 -91.07c13.49,10.27 29.71,16.09 46.96,16.09 42.08,0 76.25,-33.54 77.72,-75.25 40.79,-1.45 73.53,-34.19 74.98,-74.98 40.79,-1.45 73.53,-34.19 74.98,-74.97 41.71,-1.48 75.25,-35.67 75.25,-77.73 0,-20.84 -8.12,-40.44 -22.84,-55.16l-5.2 -5.2c34.34,-42.13 53.03,-94.32 53.03,-149.43 0,-130.71 -106.34,-237.05 -237.05,-237.05 -61.16,0 -118.62,23.19 -162.83,65.08 -44.21,-41.89 -101.67,-65.08 -162.82,-65.08 -130.71,0 -237.05,106.34 -237.05,237.05 0,61.41 23.36,119.12 65.6,163.4 -9.97,13.4 -15.62,29.39 -15.62,46.39 0,42.09 33.54,76.25 75.25,77.73 1.45,40.78 34.19,73.52 74.98,74.97 1.45,40.79 34.19,73.53 74.98,74.98 1.47,41.71 35.66,75.25 77.72,75.25 7.6,0 14.9,-1.42 21.97,-3.5l0 78.48 -424.87 0c-68.9,0 -124.96,56.06 -124.96,124.96l0 27.24c-70.8,11.97 -124.96,73.56 -124.96,147.71 0,48.61 23.37,91.77 59.33,119.19 -78.98,34.94 -134.31,113.94 -134.31,205.71l0 99.97 449.86 0 0 -99.97c0,-91.77 -55.33,-170.77 -134.31,-205.71 35.97,-27.42 59.34,-70.58 59.34,-119.19 0,-74.16 -54.16,-135.74 -124.97,-147.71l0 -27.24c0,-41.34 33.64,-74.98 74.98,-74.98l424.87 0.01 0 102.21c-70.8,11.95 -124.96,73.53 -124.96,147.71 0,48.61 23.37,91.77 59.33,119.19 -78.97,34.94 -134.31,113.94 -134.31,205.71l0 99.97 449.86 0 0 -99.97c0,-91.77 -55.33,-170.77 -134.31,-205.71 35.97,-27.42 59.34,-70.58 59.34,-119.19 0,-74.16 -54.16,-135.74 -124.96,-147.71l0 -102.22 424.87 0.01c41.33,0 74.97,33.63 74.97,74.97l0 27.24c-70.8,11.95 -124.96,73.53 -124.96,147.71 0,48.61 23.37,91.77 59.33,119.19 -78.97,34.94 -134.31,113.94 -134.31,205.71l0 99.97 449.87 0 0 -99.97c0,-91.77 -55.34,-170.77 -134.31,-205.71zm-477.63 -1193.86c103.14,0 187.07,83.92 187.07,187.07 0,41.71 -13.72,81.22 -38.74,113.71l-114.92 -114.91c7.45,-5.6 14.68,-11.55 21.4,-18.25l-35.34 -35.34c-27.54,27.52 -64.11,42.66 -103.04,42.66l-39.62 0 -42.66 42.67c-4.73,4.72 -11.02,7.32 -17.7,7.32l-93.89 0c-5.7,0 -10.35,-4.65 -10.35,-10.35 0,-2.72 1.1,-5.4 3.03,-7.32l152.47 -152.48c35.34,-35.31 82.3,-54.78 132.29,-54.78zm-325.65 0c47.68,0 92.52,17.89 127.23,50.21l-121.71 121.71c-11.37,11.37 -17.64,26.54 -17.64,42.66 0,33.27 27.06,60.33 60.33,60.33l93.89 0c20.02,0 38.87,-7.79 53.04,-21.97l28.02 -28.01 18.91 0c24.97,0 49.16,-4.77 71.71,-13.65l165.75 165.75c5.27,5.3 8.19,12.32 8.19,19.82 0,15.45 -12.57,28.02 -28.01,28.02 -7.5,0 -14.52,-2.93 -19.82,-8.2l-59.46 -59.46 -35.34 35.34 59.46 59.46c5.27,5.3 8.2,12.32 8.2,19.82 0,15.44 -12.57,28.01 -28.02,28.01 -7.5,0 -14.52,-2.92 -19.82,-8.19l-59.46 -59.46 -35.34 35.34 59.46 59.46c5.28,5.29 8.2,12.32 8.2,19.81 0,15.45 -12.57,28.02 -28.02,28.02 -7.49,0 -14.52,-2.92 -19.82,-8.2l-59.45 -59.45 -35.34 35.34 59.46 59.45c5.27,5.3 8.19,12.32 8.19,19.82 0,15.45 -12.57,28.02 -28.01,28.02 -7.5,0 -14.52,-2.93 -19.82,-8.2l-8.35 -8.35c4.02,-9.49 6.2,-19.77 6.2,-30.41 0,-42.09 -33.54,-76.26 -75.25,-77.73 -1.45,-40.79 -34.19,-73.53 -74.98,-74.98 -1.45,-40.78 -34.19,-73.52 -74.98,-74.97 -1.47,-41.72 -35.66,-75.26 -77.72,-75.26 -16.82,0 -32.67,5.5 -45.94,15.28 -32.84,-34.84 -51.01,-80.03 -51.01,-128.12 0,-103.14 83.93,-187.06 187.07,-187.06l0 0zm-137.09 396.85c0,-7.5 2.93,-14.52 8.2,-19.82l18.95 -18.94c5.29,-5.28 12.32,-8.2 19.82,-8.2 15.44,0 28.01,12.57 28.01,28.02 0,7.49 -2.92,14.52 -8.2,19.82l-18.94 18.94c-5.3,5.27 -12.32,8.2 -19.82,8.2 -15.44,0 -28.02,-12.57 -28.02,-28.02zm74.98 74.98c0,-7.5 2.93,-14.52 8.2,-19.82l18.94 -18.95c5.3,-5.27 12.32,-8.19 19.82,-8.19 15.45,0 28.02,12.57 28.02,28.01 0,7.5 -2.93,14.52 -8.2,19.82l-18.94 18.95c-5.3,5.27 -12.32,8.19 -19.82,8.19 -15.45,0 -28.02,-12.57 -28.02,-28.01zm74.98 74.97c0,-7.49 2.92,-14.52 8.2,-19.81l18.94 -18.95c5.3,-5.27 12.32,-8.2 19.82,-8.2 15.44,0 28.02,12.58 28.02,28.02 0,7.5 -2.93,14.52 -8.2,19.82l-18.95 18.94c-5.29,5.28 -12.32,8.2 -19.81,8.2 -15.45,0 -28.02,-12.57 -28.02,-28.02zm102.99 103c-15.44,0 -28.01,-12.57 -28.01,-28.02 0,-7.5 2.92,-14.52 8.19,-19.82l18.95 -18.94c5.3,-5.27 12.32,-8.2 19.82,-8.2 15.44,0 28.01,12.57 28.01,28.02 0,7.5 -2.92,14.52 -8.19,19.82l-18.95 18.94c-5.3,5.27 -12.32,8.2 -19.82,8.2zm-327.92 749.77l0 49.98 -49.99 0 0 -99.97 -49.98 0 0 99.97 -149.96 0 0 -99.97 -49.98 0 0 99.97 -49.98 0 0 -49.98c0,-96.47 78.47,-174.95 174.94,-174.95 96.47,0 174.95,78.48 174.95,174.95l0 0zm-74.98 -324.9c0,55.13 -44.84,99.97 -99.97,99.97 -55.13,0 -99.97,-44.84 -99.97,-99.97 0,-55.14 44.84,-99.97 99.97,-99.97 55.13,0 99.97,44.83 99.97,99.97zm624.81 324.9l0 49.98 -49.99 0 0 -99.97 -49.98 0 0 99.97 -149.95 0 0 -99.97 -49.99 0 0 99.97 -49.98 0 0 -49.98c0,-96.47 78.47,-174.95 174.94,-174.95 96.47,0 174.95,78.48 174.95,174.95zm-74.98 -324.9c0,55.13 -44.83,99.97 -99.97,99.97 -55.13,0 -99.97,-44.84 -99.97,-99.97 0,-55.14 44.84,-99.97 99.97,-99.97 55.14,0 99.97,44.83 99.97,99.97zm349.9 0c0,-55.14 44.83,-99.97 99.97,-99.97 55.13,0 99.96,44.83 99.96,99.97 0,55.13 -44.83,99.97 -99.96,99.97 -55.14,0 -99.97,-44.84 -99.97,-99.97zm274.91 374.88l-49.98 0 0 -99.97 -49.99 0 0 99.97 -149.95 0 0 -99.97 -49.99 0 0 99.97 -49.98 0 0 -49.98c0,-96.47 78.47,-174.95 174.95,-174.95 96.47,0 174.94,78.48 174.94,174.95l0 49.98z"/>
   <polygon class="fil0" points="946.2,947.27 996.18,947.27 996.18,997.25 946.2,997.25 "/>
   <polygon class="fil0" points="1046.17,947.27 1096.15,947.27 1096.15,997.25 1046.17,997.25 "/>
   <polygon class="fil0" points="1146.14,947.27 1196.12,947.27 1196.12,997.25 1146.14,997.25 "/>
   <polygon class="fil0" points="396.37,947.27 446.35,947.27 446.35,997.25 396.37,997.25 "/>
   <polygon class="fil0" points="496.33,947.27 546.32,947.27 546.32,997.25 496.33,997.25 "/>
   <polygon class="fil0" points="596.3,947.27 646.29,947.27 646.29,997.25 596.3,997.25 "/>
  </g>
 </g>
</svg>
