<?xml version="1.0" encoding="UTF-8"?>
<!DOCTYPE svg PUBLIC "-//W3C//DTD SVG 1.1//EN" "http://www.w3.org/Graphics/SVG/1.1/DTD/svg11.dtd">
<!-- Creator: CorelDRAW 2019 (64-Bit) -->
<svg xmlns="http://www.w3.org/2000/svg" xml:space="preserve" width="2386px" height="2386px" version="1.1" style="shape-rendering:geometricPrecision; text-rendering:geometricPrecision; image-rendering:optimizeQuality; fill-rule:evenodd; clip-rule:evenodd"
viewBox="0 0 2386 2386"
 xmlns:xlink="http://www.w3.org/1999/xlink"
 enable-background="new 0 0 64 64">
 <defs>
  <style type="text/css">
   <![CDATA[
    .fil0 {fill:#00A4F8}
   ]]>
  </style>
 </defs>
 <g id="Слой_x0020_1">
  <metadata id="CorelCorpID_0Corel-Layer"/>
  <path class="fil0" d="M2291.69 2284.17l-69.68 0 0 -2056.75c0,-23.09 -18.72,-41.8 -41.8,-41.8l-792.2 0c-23.09,0 -41.8,18.71 -41.8,41.8l0 181.16 -83.61 0 0 -181.16c0,-23.09 -18.72,-41.8 -41.81,-41.8l-181.16 0 0 -125.42c0,-23.1 -18.72,-41.81 -41.81,-41.81 -23.08,0 -41.8,18.71 -41.8,41.81l0 125.42 -181.16 0c-23.09,0 -41.81,18.71 -41.81,41.8l0 181.16 -125.42 0c-23.09,0 -41.8,18.71 -41.8,41.81l0 277.51 -360.2 0c-23.09,0 -41.8,18.71 -41.8,41.8l0 1514.46 -69.69 0c-23.09,0 -41.8,18.71 -41.8,41.81 0,23.09 18.72,41.81 41.8,41.81l2197.55 0c23.09,0 41.8,-18.71 41.8,-41.81 0,-23.09 -18.72,-41.8 -41.8,-41.8zm-1475.03 -2014.94l362.32 0 0 139.35 -362.32 0 0 -139.35zm-139.35 2014.94l-27.88 0 0 -69.68c0,-23.09 -18.72,-41.8 -41.8,-41.8 -23.09,0 -41.81,18.71 -41.81,41.8l0 69.68 -27.87 0 0 -139.36 139.36 0 0 139.36zm278.7 -1012.79l0 71.92 0 940.87 -195.09 0 0 -181.16c0,-23.1 -18.72,-41.81 -41.81,-41.81l-222.96 0c-23.09,0 -41.81,18.71 -41.81,41.81l0 181.16 -206.91 0 0 -1472.65 708.58 0 0 459.86zm41.81 -543.47l-348.39 0 0 -235.71 696.77 0 0 737.38 -306.57 0 0 -139.36 125.42 0c23.09,0 41.8,-18.71 41.8,-41.8 0,-23.1 -18.72,-41.81 -41.8,-41.81l-125.42 0 0 -139.35 125.42 0c23.09,0 41.8,-18.71 41.8,-41.81 0,-23.09 -18.72,-41.8 -41.8,-41.8l-125.42 0 0 -13.93c0,-23.1 -18.72,-41.81 -41.81,-41.81zm738.57 1556.26l-696.76 0 0 -940.87 0 -30.11 696.76 0 0 970.98zm402 0l-318.39 0 0 -1012.79 0 -55.74c0,-23.1 -18.72,-41.81 -41.8,-41.81 -23.09,0 -41.81,18.71 -41.81,41.81l0 13.93 -83.61 0 0 -13.93c0,-23.1 -18.71,-41.81 -41.8,-41.81 -23.09,0 -41.8,18.71 -41.8,41.81l0 13.93 -139.36 0 0 -779.18 0 -181.16 708.58 0 0 2014.94 -0.01 0zm-917.6 -83.61c23.08,0 41.8,-18.72 41.8,-41.8l0 -720.14c0,-23.09 -18.72,-41.8 -41.8,-41.8 -23.09,0 -41.81,18.71 -41.81,41.8l0 720.14c0,23.09 18.72,41.8 41.81,41.8zm167.22 0c23.09,0 41.81,-18.72 41.81,-41.8l0 -720.14c0,-23.09 -18.72,-41.8 -41.81,-41.8 -23.08,0 -41.8,18.71 -41.8,41.8l0 720.14c-0.01,23.09 18.71,41.8 41.8,41.8zm167.22 0c23.09,0 41.8,-18.72 41.8,-41.8l0.01 -720.14c0,-23.09 -18.72,-41.8 -41.81,-41.8 -23.08,0 -41.8,18.71 -41.8,41.8l0 720.14c0,23.09 18.72,41.8 41.8,41.8zm55.74 -1712.86c23.09,0 41.81,-18.71 41.81,-41.81l0 -55.74c0,-23.09 -18.72,-41.8 -41.81,-41.8 -23.08,0 -41.8,18.71 -41.8,41.8l0 55.75c0,23.09 18.71,41.8 41.8,41.8zm167.23 0c23.09,0 41.8,-18.71 41.8,-41.81l0 -55.74c0,-23.09 -18.72,-41.8 -41.8,-41.8 -23.09,0 -41.81,18.71 -41.81,41.8l0 55.75c0,23.09 18.72,41.8 41.81,41.8zm167.22 0c23.09,0 41.81,-18.71 41.81,-41.81l0 -55.74c0,-23.09 -18.72,-41.8 -41.8,-41.8 -23.09,0 -41.81,18.71 -41.81,41.8l0 55.75c0,23.09 18.71,41.8 41.8,41.8zm-334.45 268.07c23.09,0 41.81,-18.71 41.81,-41.8l0 -55.75c0,-23.09 -18.72,-41.8 -41.81,-41.8 -23.08,0 -41.8,18.71 -41.8,41.8l0 55.75c0,23.09 18.71,41.8 41.8,41.8zm167.23 0c23.09,0 41.8,-18.71 41.8,-41.8l0 -55.75c0,-23.09 -18.72,-41.8 -41.8,-41.8 -23.09,0 -41.81,18.71 -41.81,41.8l0 55.75c0,23.09 18.72,41.8 41.81,41.8zm167.22 0c23.09,0 41.81,-18.71 41.81,-41.8l0 -55.75c0,-23.09 -18.72,-41.8 -41.81,-41.8 -23.08,0 -41.8,18.71 -41.8,41.8l0 55.75c0,23.09 18.71,41.8 41.8,41.8zm-334.45 278.71c23.09,0 41.81,-18.71 41.81,-41.8l0 -55.74c0,-23.1 -18.72,-41.81 -41.81,-41.81 -23.08,0 -41.8,18.71 -41.8,41.81l0 55.74c0,23.09 18.71,41.8 41.8,41.8zm167.23 0c23.09,0 41.8,-18.71 41.8,-41.8l0 -55.74c0,-23.1 -18.72,-41.81 -41.8,-41.81 -23.09,0 -41.81,18.71 -41.81,41.81l0 55.74c0,23.09 18.72,41.8 41.81,41.8zm167.22 0c23.09,0 41.81,-18.71 41.81,-41.8l0 -55.74c0,-23.1 -18.72,-41.81 -41.81,-41.81 -23.08,0 -41.8,18.71 -41.8,41.81l0 55.74c0,23.09 18.71,41.8 41.8,41.8zm-1510.92 47.7c23.09,0 41.8,-18.71 41.8,-41.8l0 -55.75c0,-23.09 -18.72,-41.8 -41.8,-41.8 -23.09,0 -41.81,18.71 -41.81,41.8l0 55.75c0,23.09 18.72,41.8 41.81,41.8zm167.22 0c23.09,0 41.81,-18.71 41.81,-41.8l0 -55.75c0,-23.09 -18.72,-41.8 -41.81,-41.8 -23.08,0 -41.8,18.71 -41.8,41.8l0 55.75c0,23.09 18.71,41.8 41.8,41.8zm167.23 0c23.09,0 41.8,-18.71 41.8,-41.8l0 -55.75c0,-23.09 -18.72,-41.8 -41.8,-41.8 -23.09,0 -41.81,18.71 -41.81,41.8l0 55.75c0,23.09 18.72,41.8 41.81,41.8zm-334.45 278.71c23.09,0 41.8,-18.71 41.8,-41.81l0 -55.74c0,-23.09 -18.72,-41.8 -41.8,-41.8 -23.09,0 -41.81,18.71 -41.81,41.8l0 55.74c0,23.09 18.72,41.81 41.81,41.81zm167.22 0c23.09,0 41.81,-18.71 41.81,-41.81l0 -55.74c0,-23.09 -18.72,-41.8 -41.81,-41.8 -23.08,0 -41.8,18.71 -41.8,41.8l0 55.74c0,23.09 18.71,41.81 41.8,41.81zm167.23 0c23.09,0 41.8,-18.71 41.8,-41.81l0 -55.74c0,-23.09 -18.72,-41.8 -41.8,-41.8 -23.09,0 -41.81,18.71 -41.81,41.8l0 55.74c0,23.09 18.72,41.81 41.81,41.81zm-334.45 278.71c23.09,0 41.8,-18.71 41.8,-41.81l0 -55.74c0,-23.1 -18.72,-41.81 -41.8,-41.81 -23.09,0 -41.81,18.71 -41.81,41.81l0 55.74c0,23.1 18.72,41.81 41.81,41.81zm167.22 0c23.09,0 41.81,-18.71 41.81,-41.81l0 -55.74c0,-23.1 -18.72,-41.81 -41.81,-41.81 -23.08,0 -41.8,18.71 -41.8,41.81l0 55.74c0,23.1 18.71,41.81 41.8,41.81zm167.23 0c23.09,0 41.8,-18.71 41.8,-41.81l0 -55.74c0,-23.1 -18.72,-41.81 -41.8,-41.81 -23.09,0 -41.81,18.71 -41.81,41.81l0 55.74c0,23.1 18.72,41.81 41.81,41.81zm-334.45 278.7c23.09,0 41.8,-18.71 41.8,-41.8l0 -55.75c0,-23.09 -18.72,-41.8 -41.8,-41.8 -23.09,0 -41.81,18.71 -41.81,41.8l0 55.75c0,23.09 18.72,41.8 41.81,41.8zm167.22 0c23.09,0 41.81,-18.71 41.81,-41.8l0 -55.75c0,-23.09 -18.72,-41.8 -41.81,-41.8 -23.08,0 -41.8,18.71 -41.8,41.8l0 55.75c0,23.09 18.71,41.8 41.8,41.8zm167.23 0c23.09,0 41.8,-18.71 41.8,-41.8l0 -55.75c0,-23.09 -18.72,-41.8 -41.8,-41.8 -23.09,0 -41.81,18.71 -41.81,41.8l0 55.75c0,23.09 18.72,41.8 41.81,41.8zm1176.47 -605.11c23.09,0 41.81,-18.71 41.81,-41.8l0 -55.75c0,-23.09 -18.72,-41.8 -41.81,-41.8 -23.08,0 -41.8,18.71 -41.8,41.8l0 55.75c0,23.09 18.71,41.8 41.8,41.8zm0 278.71c23.09,0 41.81,-18.71 41.81,-41.81l0 -55.74c0,-23.1 -18.72,-41.81 -41.81,-41.81 -23.08,0 -41.8,18.71 -41.8,41.81l0 55.74c0,23.09 18.71,41.81 41.8,41.81zm0 278.71c23.09,0 41.81,-18.71 41.81,-41.81l0 -55.74c0,-23.1 -18.72,-41.81 -41.81,-41.81 -23.08,0 -41.8,18.71 -41.8,41.81l0 55.74c0,23.09 18.71,41.81 41.8,41.81zm0 278.7c23.09,0 41.81,-18.71 41.81,-41.8l0 -55.75c0,-23.09 -18.72,-41.8 -41.81,-41.8 -23.08,0 -41.8,18.71 -41.8,41.8l0 55.75c0,23.09 18.71,41.8 41.8,41.8zm-744.48 -1533.83c0,-23.1 -18.72,-41.81 -41.8,-41.81l-334.45 0c-23.09,0 -41.81,18.71 -41.81,41.81 0,23.09 18.72,41.8 41.81,41.8l334.45 0c23.09,0 41.8,-18.71 41.8,-41.8z"/>
 </g>
</svg>
