<?xml version="1.0" encoding="UTF-8"?>
<!DOCTYPE svg PUBLIC "-//W3C//DTD SVG 1.1//EN" "http://www.w3.org/Graphics/SVG/1.1/DTD/svg11.dtd">
<!-- Creator: CorelDRAW 2019 (64-Bit) -->
<svg xmlns="http://www.w3.org/2000/svg" xml:space="preserve" width="2386px" height="2386px" version="1.1" style="shape-rendering:geometricPrecision; text-rendering:geometricPrecision; image-rendering:optimizeQuality; fill-rule:evenodd; clip-rule:evenodd"
viewBox="0 0 2386 2386"
 xmlns:xlink="http://www.w3.org/1999/xlink"
 enable-background="new 0 0 64 64">
 <defs>
  <style type="text/css">
   <![CDATA[
    .fil0 {fill:#00A4F8}
   ]]>
  </style>
 </defs>
 <g id="Слой_x0020_1">
  <metadata id="CorelCorpID_0Corel-Layer"/>
  <g id="computer.svg">
   <g>
    <rect class="fil0" x="473.73" y="1912.25" width="75.7" height="75.7"/>
    <rect class="fil0" x="322.32" y="1912.25" width="75.7" height="75.7"/>
    <rect class="fil0" x="170.91" y="1912.25" width="75.7" height="75.7"/>
    <path class="fil0" d="M2177.06 549.58l-378.51 0 0 -264.97c0,-62.61 -50.95,-113.55 -113.56,-113.55l-308.61 0c-18.7,-80.67 -84.9,-143.58 -166.59,-150.65 -53.21,-4.58 -105.75,13.28 -144.7,48.98 -29.64,27.1 -49.51,62.91 -57.46,101.67l-306.79 0c-62.61,0 -113.56,50.94 -113.56,113.55l0 189.26 75.71 0 0 -189.26c0,-20.89 16.95,-37.85 37.85,-37.85l302.81 0 0 37.85c0,59.17 28.54,115.07 75.71,150.62l0 10.1 -128.32 36.64c-80.47,23.02 -136.65,97.51 -136.65,181.16l0 113.56 757.04 0 0 -113.56c0,-83.65 -56.17,-158.14 -136.64,-181.16l-128.32 -36.64 0 -10.1c47.16,-35.55 75.7,-91.46 75.7,-150.62l0 -37.85 302.82 0c20.89,0 37.85,16.96 37.85,37.85l0 529.93c0,20.89 -16.96,37.85 -37.85,37.85l-151.41 0 -302.81 0 0 128.02 -256.04 -128.02 -273.89 0c-20.9,0 -37.86,-16.96 -37.86,-37.85l0 -264.97 -454.22 0.01c-104.36,0 -189.26,84.9 -189.26,189.26l0 1211.26c0,104.36 84.91,189.26 189.26,189.26l492.08 0 0 151.41 -151.41 0 0 75.7 1286.97 0 0 -75.7 -151.41 0 0 -151.41 492.07 0c104.36,0 189.26,-84.9 189.26,-189.26l0 -1211.26c0,-104.36 -84.9,-189.26 -189.26,-189.26zm-870.59 -264.97c0,40.43 -21.27,76.96 -56.89,97.7l-18.81 10.94 0 109.16 183.24 52.39c48.11,13.74 81.72,58.29 81.72,108.33l0 37.86 -605.63 -0.01 0 -37.85c0,-50.04 33.61,-94.59 81.72,-108.33l183.24 -52.39 0 -109.16 -18.81 -10.94c-35.62,-20.74 -56.89,-57.27 -56.89,-97.7l0 -75.7c0,-31.76 13.4,-62.27 36.86,-83.73 23.7,-21.77 54.78,-32.1 86.99,-29.37 57.91,5.03 103.26,58.14 103.26,120.93l0 67.87zm378.52 643.48l454.22 0 0 75.71 -605.63 0 -0.07 -75.7 0.07 -0.01 151.41 0zm454.22 605.64l0 75.7 -605.63 0 -0.07 -75.7 0.07 0 605.63 0zm-529.93 -75.71l0 -75.7 454.23 0 0 75.7 -454.23 0zm-75.7 -151.4l-0.07 -75.71 0.07 0 605.63 0 0 75.71 -605.63 0zm75.7 -151.41l0 -75.71 454.23 0 0 75.71 -454.23 0zm-1400.52 -529.93l378.52 0 0 189.26c0,62.61 50.95,113.55 113.56,113.55l256.03 0 349.6 174.81 0 -174.81 151.41 0 0 75.71c0,41.75 33.95,75.7 75.7,75.7l0 75.71c-41.75,0 -75.7,33.95 -75.7,75.7l0 75.7c0,41.75 33.95,75.71 75.7,75.71l0 75.7c-41.75,0 -75.7,33.95 -75.7,75.7l0 75.71c0,41.75 33.95,75.7 75.7,75.7l605.63 0.01c41.75,0 75.71,-33.96 75.71,-75.71l0 -75.7c0,-41.75 -33.96,-75.7 -75.71,-75.7l0 -75.71c41.75,0 75.71,-33.95 75.71,-75.7l0 -75.7c0,-41.76 -33.96,-75.71 -75.71,-75.71l0 -75.7c41.75,0 75.71,-33.95 75.71,-75.7l0 -75.71c0,-41.75 -33.96,-75.7 -75.71,-75.7l-347.63 -0.01c4.24,-11.88 6.97,-24.53 6.97,-37.85l0 -189.26 378.51 0c62.61,0 113.56,50.95 113.56,113.56l0 1097.7 -1616.17 0 -113.55 -75.7 -465.69 0 0 -1022c0,-62.61 50.94,-113.56 113.55,-113.56zm1968.3 1438.37l-1324.82 0 0 75.71 757.04 0 0 151.41 -832.74 0 0 -227.12 -567.78 0c-62.61,0 -113.55,-50.94 -113.55,-113.55l0 -113.56 442.75 0 113.56 75.71 1639.1 0 0 37.85c0,62.61 -50.95,113.55 -113.56,113.55z"/>
    <rect class="fil0" x="170.91" y="1609.43" width="75.7" height="75.7"/>
    <rect class="fil0" x="322.32" y="1609.43" width="605.63" height="75.7"/>
    <rect class="fil0" x="170.91" y="1458.02" width="75.7" height="75.7"/>
    <rect class="fil0" x="322.32" y="1458.02" width="605.63" height="75.7"/>
    <rect class="fil0" x="170.91" y="1306.62" width="75.7" height="75.7"/>
    <rect class="fil0" x="322.32" y="1306.62" width="605.63" height="75.7"/>
    <rect class="fil0" x="170.91" y="1155.21" width="75.7" height="75.7"/>
    <rect class="fil0" x="322.32" y="1155.21" width="605.63" height="75.7"/>
    <rect class="fil0" x="170.91" y="1003.8" width="75.7" height="75.7"/>
    <rect class="fil0" x="322.32" y="1003.8" width="605.63" height="75.7"/>
   </g>
  </g>
 </g>
</svg>
