<?xml version="1.0" encoding="UTF-8"?>
<!DOCTYPE svg PUBLIC "-//W3C//DTD SVG 1.1//EN" "http://www.w3.org/Graphics/SVG/1.1/DTD/svg11.dtd">
<!-- Creator: CorelDRAW 2019 (64-Bit) -->
<svg xmlns="http://www.w3.org/2000/svg" xml:space="preserve" width="50px" height="50px" version="1.1" style="shape-rendering:geometricPrecision; text-rendering:geometricPrecision; image-rendering:optimizeQuality; fill-rule:evenodd; clip-rule:evenodd"
viewBox="0 0 50 50"
 xmlns:xlink="http://www.w3.org/1999/xlink">
 <defs>
  <style type="text/css">
   <![CDATA[
    .fil0 {fill:#00A4F8}
   ]]>
  </style>
 </defs>
 <g id="Слой_x0020_1">
  <metadata id="CorelCorpID_0Corel-Layer"/>
  <g id="_2802663398400">
   <circle class="fil0" cx="37.24" cy="26.15" r="1.63"/>
   <path class="fil0" d="M41.33 12.75l-13.07 0c-0.45,0 -0.82,0.36 -0.82,0.82 0,0.45 0.37,0.81 0.82,0.81l12.25 0 0 2.45c0,0.45 0.36,0.82 0.81,0.82 0.45,0 0.82,-0.37 0.82,-0.82l0 -3.26c0,-0.46 -0.36,-0.82 -0.81,-0.82z"/>
   <path class="fil0" d="M16.83 36.77l-8.07 0c-0.89,0 -1.75,-0.35 -2.38,-0.99 -0.63,-0.63 -0.98,-1.49 -0.98,-2.38l0 -3.17c0,-0.45 -0.37,-0.81 -0.82,-0.81 -0.45,0 -0.81,0.36 -0.81,0.81l0 3.17c0,2.76 2.23,5 4.99,5l8.07 0c0.45,0 0.82,-0.36 0.82,-0.82 0,-0.45 -0.37,-0.81 -0.82,-0.81z"/>
   <path class="fil0" d="M47.07 35.77c-0.5,-0.4 -1.06,-0.73 -1.66,-0.97l0 -3.75 2.45 0c0.45,0 0.81,-0.36 0.81,-0.81l0 -8.17c0,-0.45 -0.36,-0.81 -0.81,-0.81l-2.45 -0.01 0 -11.29c0,-0.46 -0.37,-0.82 -0.82,-0.82l-3.26 0 0 -2.45c0,-0.45 -0.37,-0.82 -0.82,-0.82l-6.53 0 0 -2.45c0,-0.45 -0.37,-0.81 -0.82,-0.81l-28.51 0c-1.06,0 -2.08,0.42 -2.84,1.17l-0.14 0.14c-0.88,0.89 -1.3,2.14 -1.13,3.38 -0.02,0.07 -0.04,0.14 -0.04,0.21l0 27.76c0,3.53 2.86,6.4 6.39,6.4l21.43 0c0.44,3.57 3.7,6.11 7.27,5.66 1.2,-0.15 2.34,-0.63 3.28,-1.38 2.81,2.26 6.92,1.82 9.19,-0.99 2.26,-2.81 1.82,-6.92 -0.99,-9.19zm-0.03 -12.88l0 6.53 -10.56 0c-1.8,0 -3.26,-1.46 -3.26,-3.27 0,-1.8 1.46,-3.26 3.26,-3.26l10.56 0zm-44.21 -17.81l0.14 -0.14c0.45,-0.45 1.05,-0.7 1.68,-0.7l27.69 0 0 1.63 -26.12 0c-0.46,0 -0.82,0.37 -0.82,0.82 0,0.45 0.37,0.81 0.82,0.81l33.47 0.01 0 1.63 -35.18 0c-1.31,0 -2.38,-1.07 -2.38,-2.38 0,-0.63 0.25,-1.24 0.7,-1.68zm25.49 34.95l-21.43 0c-2.63,0 -4.76,-2.13 -4.76,-4.76 0,0 0,0 0,0l0 -25.29c0.69,0.51 1.53,0.79 2.38,0.79l39.27 0 0 10.48 -7.3 0c-2.7,0 -4.9,2.2 -4.9,4.9 0,2.71 2.2,4.9 4.9,4.9l7.3 0 0 3.32c-0.28,-0.03 -0.55,-0.05 -0.82,-0.05 -1.49,-0.01 -2.93,0.5 -4.08,1.44 -2.81,-2.26 -6.91,-1.82 -9.17,0.99 -0.76,0.94 -1.24,2.08 -1.39,3.28zm6.47 5.72c-2.7,0 -4.9,-2.19 -4.9,-4.9 0,-2.71 2.2,-4.9 4.9,-4.9 2.71,0 4.9,2.2 4.9,4.9 0,2.7 -2.19,4.9 -4.9,4.9zm8.17 0c-1.06,0 -2.1,-0.35 -2.95,-0.99 1.75,-2.31 1.75,-5.51 0,-7.82 0.85,-0.64 1.89,-0.99 2.95,-0.99 2.71,0 4.9,2.19 4.9,4.9 0,2.71 -2.2,4.9 -4.9,4.9z"/>
  </g>
 </g>
</svg>
