<?xml version="1.0" encoding="UTF-8"?>
<!DOCTYPE svg PUBLIC "-//W3C//DTD SVG 1.1//EN" "http://www.w3.org/Graphics/SVG/1.1/DTD/svg11.dtd">
<!-- Creator: CorelDRAW 2019 (64-Bit) -->
<svg xmlns="http://www.w3.org/2000/svg" xml:space="preserve" width="50px" height="50px" version="1.1" style="shape-rendering:geometricPrecision; text-rendering:geometricPrecision; image-rendering:optimizeQuality; fill-rule:evenodd; clip-rule:evenodd"
viewBox="0 0 50 50"
 xmlns:xlink="http://www.w3.org/1999/xlink">
 <defs>
  <style type="text/css">
   <![CDATA[
    .fil0 {fill:#00A4F8}
   ]]>
  </style>
 </defs>
 <g id="Слой_x0020_1">
  <metadata id="CorelCorpID_0Corel-Layer"/>
  <g id="_2838745556080">
   <path class="fil0" d="M45.14 8.66l-15.24 0c-1.01,-2.59 -2.46,-4.98 -4.28,-7.07 -0.32,-0.34 -0.86,-0.36 -1.2,-0.04 -0.01,0.01 -0.02,0.03 -0.03,0.04 -1.83,2.09 -3.28,4.48 -4.29,7.07l-15.24 0c-2.41,0 -4.36,1.95 -4.36,4.36l0 23.94c0,2.41 1.95,4.36 4.36,4.37l40.28 0c2.41,-0.01 4.36,-1.96 4.36,-4.37l0 -23.94c0,-2.41 -1.95,-4.36 -4.36,-4.36zm-20.14 -5.26c1.87,2.34 3.25,5.03 4.06,7.92 -2.65,0.76 -5.47,0.76 -8.12,0 0.81,-2.89 2.19,-5.58 4.06,-7.92zm-4.9 17.51l0 -3.57c0.01,-1.49 0.16,-2.97 0.46,-4.43 1.45,0.41 2.94,0.62 4.44,0.62 1.5,0 2.99,-0.21 4.44,-0.62 0.3,1.46 0.45,2.94 0.46,4.43l0 8.47 -9.8 0 0 -4.9zm27.77 16.05c0,1.51 -1.23,2.73 -2.73,2.73l-40.28 0c-1.5,0 -2.73,-1.22 -2.73,-2.73l0 -23.94c0,-1.5 1.23,-2.73 2.73,-2.73l14.67 0c-0.7,2.28 -1.06,4.66 -1.06,7.05l0 2.81c-3.27,0.41 -5.71,3.19 -5.72,6.48 0,0.45 0.37,0.81 0.82,0.81l0.81 0 0 2.45c0,0.45 0.37,0.82 0.82,0.82 0.45,0 0.82,-0.37 0.82,-0.82l0 -2.45 1.63 0 0 8.99c0,0.45 0.36,0.81 0.82,0.81 0.45,0 0.81,-0.36 0.81,-0.81l0 -8.99 11.44 0 0 9.8c0,0.45 0.36,0.82 0.81,0.82 0.46,0 0.82,-0.37 0.82,-0.82l0 -9.8 1.63 0 0 4.09c0,0.45 0.37,0.81 0.82,0.81 0.45,0 0.82,-0.36 0.82,-0.81l0 -4.09 0.81 0c0.45,0 0.82,-0.36 0.82,-0.81 -0.01,-3.29 -2.45,-6.07 -5.72,-6.48l0 -2.81c0,-2.39 -0.36,-4.77 -1.06,-7.05l14.67 0c1.5,0 2.73,1.23 2.73,2.73l0 23.94zm-29.4 -15.17l0 4.02 -4.02 0c0.35,-2.06 1.96,-3.67 4.02,-4.02zm13.06 4.02l0 -4.02c2.06,0.35 3.67,1.96 4.02,4.02l-4.02 0z"/>
   <path class="fil0" d="M48.68 43.78l-47.36 0c-0.46,0 -0.82,0.36 -0.82,0.81l0 3.27c0,0.45 0.36,0.82 0.82,0.82l47.36 0c0.46,0 0.82,-0.37 0.82,-0.82l0 -3.27c0,-0.45 -0.36,-0.81 -0.82,-0.81zm-0.81 3.26l-45.74 0 0 -1.63 45.74 0 0 1.63z"/>
   <path class="fil0" d="M25 16.01c-1.8,0 -3.27,1.46 -3.27,3.27 0,1.8 1.47,3.26 3.27,3.26 1.8,0 3.27,-1.46 3.27,-3.26 0,-1.81 -1.47,-3.27 -3.27,-3.27zm0 4.9c-0.9,0 -1.63,-0.73 -1.63,-1.63 0,-0.91 0.73,-1.64 1.63,-1.64 0.9,0 1.63,0.73 1.63,1.64 0,0.9 -0.73,1.63 -1.63,1.63z"/>
   <path class="fil0" d="M25 29.08c-1.8,0 -3.27,1.46 -3.27,3.26 0,1.66 0.66,3.25 1.84,4.42l1.43 1.44 1.44 -1.44c1.17,-1.17 1.83,-2.76 1.83,-4.42 0,-1.8 -1.47,-3.26 -3.27,-3.26zm0.28 6.53l-0.28 0.28 -0.28 -0.28c-0.87,-0.87 -1.36,-2.04 -1.35,-3.27 0,-0.43 0.17,-0.84 0.47,-1.15 0.64,-0.64 1.68,-0.64 2.31,0 0.31,0.3 0.48,0.72 0.48,1.15 0.01,1.23 -0.48,2.4 -1.35,3.27z"/>
   <path class="fil0" d="M15.2 32.34c-0.45,0 -0.82,0.37 -0.82,0.82l0 0.82c0,0.45 0.37,0.81 0.82,0.81 0.45,0 0.82,-0.36 0.82,-0.81l0 -0.82c0,-0.45 -0.37,-0.82 -0.82,-0.82z"/>
   <path class="fil0" d="M34.8 33.98c-0.45,0 -0.82,0.36 -0.82,0.81l0 0.82c0,0.45 0.37,0.82 0.82,0.82 0.45,0 0.82,-0.37 0.82,-0.82l0 -0.82c0,-0.45 -0.37,-0.81 -0.82,-0.81z"/>
  </g>
 </g>
</svg>
