<?xml version="1.0" encoding="UTF-8"?>
<!DOCTYPE svg PUBLIC "-//W3C//DTD SVG 1.1//EN" "http://www.w3.org/Graphics/SVG/1.1/DTD/svg11.dtd">
<!-- Creator: CorelDRAW 2019 (64-Bit) -->
<svg xmlns="http://www.w3.org/2000/svg" xml:space="preserve" width="50px" height="50px" version="1.1" style="shape-rendering:geometricPrecision; text-rendering:geometricPrecision; image-rendering:optimizeQuality; fill-rule:evenodd; clip-rule:evenodd"
viewBox="0 0 50 50"
 xmlns:xlink="http://www.w3.org/1999/xlink">
 <defs>
  <style type="text/css">
   <![CDATA[
    .fil0 {fill:#00A4F8}
   ]]>
  </style>
 </defs>
 <g id="Слой_x0020_1">
  <metadata id="CorelCorpID_0Corel-Layer"/>
  <g id="_2802537179664">
   <path class="fil0" d="M46.24 25.63c-0.2,-0.4 -0.2,-0.86 0,-1.27l1.83 -3.73c1.01,-2.08 0.21,-4.57 -1.84,-5.65l-3.68 -1.95c-0.39,-0.21 -0.66,-0.59 -0.74,-1.03l-0.72 -4.1c-0.4,-2.28 -2.51,-3.81 -4.81,-3.49l-4.12 0.58c-0.44,0.07 -0.88,-0.08 -1.2,-0.39l-2.99 -2.89c-1.67,-1.61 -4.28,-1.61 -5.94,0l-2.99 2.89c-0.32,0.31 -0.77,0.46 -1.21,0.4l-4.12 -0.59c-2.29,-0.32 -4.4,1.21 -4.81,3.49l-0.71 4.1c-0.08,0.44 -0.35,0.82 -0.75,1.03l-3.68 1.95c-2.04,1.08 -2.85,3.57 -1.83,5.65l1.83 3.74c0.19,0.4 0.19,0.86 0,1.27l-1.83 3.73c-1.02,2.08 -0.21,4.57 1.83,5.65l3.68 1.95c0.4,0.21 0.67,0.59 0.75,1.03l0.72 4.1c0.36,2.08 2.14,3.53 4.19,3.53 0.2,0 0.41,-0.01 0.61,-0.04l4.12 -0.58c0.45,-0.07 0.89,0.08 1.21,0.39l2.99 2.89c0.83,0.81 1.9,1.21 2.97,1.21 1.07,0 2.14,-0.4 2.97,-1.21l2.99 -2.89c0.32,-0.31 0.77,-0.46 1.21,-0.39l4.12 0.58c2.29,0.32 4.4,-1.21 4.81,-3.49l0.71 -4.1c0.08,-0.44 0.35,-0.82 0.75,-1.03l3.68 -1.95c2.04,-1.08 2.85,-3.57 1.83,-5.65l-1.83 -3.74zm-1.33 6.9l-3.68 1.95c-1.17,0.62 -1.97,1.72 -2.2,3.03l-0.72 4.1c-0.14,0.77 -0.85,1.29 -1.63,1.18l-4.12 -0.58c-1.31,-0.19 -2.61,0.23 -3.57,1.16l-2.99 2.89c-0.56,0.55 -1.44,0.55 -2.01,0l-2.99 -2.89c-0.8,-0.78 -1.86,-1.21 -2.96,-1.21 -0.2,0 -0.4,0.02 -0.61,0.05l-4.12 0.58c-0.77,0.11 -1.49,-0.41 -1.62,-1.18l-0.72 -4.1c-0.23,-1.31 -1.03,-2.41 -2.2,-3.03l-3.68 -1.95c-0.69,-0.37 -0.97,-1.21 -0.62,-1.92l1.82 -3.73c0.59,-1.2 0.59,-2.56 0,-3.76l-1.82 -3.74c-0.35,-0.7 -0.07,-1.54 0.62,-1.91l3.68 -1.95c1.17,-0.62 1.97,-1.72 2.2,-3.03l0.72 -4.1c0.13,-0.77 0.85,-1.29 1.62,-1.18l4.12 0.58c1.32,0.19 2.62,-0.23 3.57,-1.16l2.99 -2.89c0.57,-0.55 1.45,-0.55 2.01,0l2.99 2.89c0.96,0.93 2.26,1.35 3.57,1.16l4.12 -0.58c0.78,-0.11 1.49,0.41 1.63,1.18l0.72 4.1c0.23,1.31 1.03,2.41 2.2,3.03l3.68 1.95c0.69,0.37 0.96,1.21 0.62,1.91l-1.83 3.74c-0.58,1.2 -0.58,2.56 0,3.76l1.83 3.73c0.34,0.71 0.07,1.55 -0.62,1.92z"/>
   <path class="fil0" d="M35.32 14.67c-0.55,-0.55 -1.44,-0.55 -2,0l-18.65 18.66c-0.55,0.55 -0.55,1.44 0,1.99 0.28,0.28 0.64,0.42 1,0.42 0.36,0 0.73,-0.14 1,-0.42l18.65 -18.65c0.55,-0.55 0.55,-1.44 0,-2z"/>
   <path class="fil0" d="M19.35 12.28c-2.86,0 -5.19,2.33 -5.19,5.18 0,2.86 2.33,5.18 5.19,5.18 2.85,0 5.18,-2.32 5.18,-5.18 0,-2.85 -2.33,-5.18 -5.18,-5.18zm0 7.54c-1.3,0 -2.36,-1.06 -2.36,-2.36 0,-1.29 1.06,-2.35 2.36,-2.35 1.29,0 2.35,1.06 2.35,2.35 0,1.3 -1.06,2.36 -2.35,2.36z"/>
   <path class="fil0" d="M30.65 27.36c-2.86,0 -5.18,2.32 -5.18,5.18 0,2.85 2.32,5.18 5.18,5.18 2.86,0 5.18,-2.33 5.18,-5.18 0,-2.86 -2.32,-5.18 -5.18,-5.18zm0 7.53c-1.3,0 -2.36,-1.06 -2.36,-2.35 0,-1.3 1.06,-2.36 2.36,-2.36 1.3,0 2.36,1.06 2.36,2.36 0,1.29 -1.06,2.35 -2.36,2.35z"/>
  </g>
 </g>
</svg>
