<?xml version="1.0" encoding="UTF-8"?>
<!DOCTYPE svg PUBLIC "-//W3C//DTD SVG 1.1//EN" "http://www.w3.org/Graphics/SVG/1.1/DTD/svg11.dtd">
<!-- Creator: CorelDRAW 2019 (64-Bit) -->
<svg xmlns="http://www.w3.org/2000/svg" xml:space="preserve" width="40px" height="40px" version="1.1" style="shape-rendering:geometricPrecision; text-rendering:geometricPrecision; image-rendering:optimizeQuality; fill-rule:evenodd; clip-rule:evenodd"
viewBox="0 0 40 40"
 xmlns:xlink="http://www.w3.org/1999/xlink">
 <defs>
  <style type="text/css">
   <![CDATA[
    .fil0 {fill:none}
    .fil2 {fill:black}
    .fil1 {fill:#F30000}
    .fil6 {fill:#F66C72}
    .fil5 {fill:#FA9394}
    .fil4 {fill:#FEFCFD}
    .fil3 {fill:#FEFEFE}
   ]]>
  </style>
 </defs>
 <g id="Слой_x0020_1">
  <metadata id="CorelCorpID_0Corel-Layer"/>
  <g id="_2525894995824">
   <rect class="fil0" width="40" height="40"/>
   <g>
    <path class="fil1" d="M38.95 31.09l-3.42 -0.07 -0.03 -9.11c-0.2,-0.72 -1.01,-0.58 -1.87,-0.58l-4.79 0c-0.7,0 -1.58,-0.11 -1.88,0.45 -0.36,0.69 0.18,7.74 -0.14,9.24l-3.3 0c0.15,0.32 0.55,0.64 0.99,1.17l6.73 7.31c0.41,-0.33 0.56,-0.63 1,-1.05 0.91,-0.87 5.98,-6.75 6.71,-7.36z"/>
    <path class="fil2" d="M31.75 12.78c-1.6,-0.02 -3.21,-0.01 -4.81,-0.01 -1.8,0.01 -2.54,-0.13 -3.54,-1.14 -1.09,-1.1 -0.96,-1.95 -0.96,-3.74 0,-1.55 -0.04,-3.16 0.01,-4.69l2.4 2.38c0.78,0.83 1.49,1.6 2.28,2.42l4.62 4.78zm-26.45 -7.1l2.13 0.03c-0.03,-3.31 1.96,-3.04 4.83,-3.04 2.64,0 5.27,-0.01 7.9,0 0.01,2.07 0.01,4.15 0,6.21 0,3.79 2.52,6.16 6.18,6.17 1.39,0.01 5.15,-0.18 6.26,0.05l0 4.97 2.12 0c0,-2.24 -0.01,-4.47 0.01,-6.7 0,-0.93 -0.29,-0.95 -1.33,-2.05l-6.65 -6.84c-0.31,-0.34 -0.53,-0.49 -0.88,-0.82l-2.42 -2.57c-0.43,-0.48 -0.32,-0.55 -1.2,-0.55l-8.49 0.01c-2.02,0 -4.58,-0.31 -6.21,0.62 -1.49,0.86 -2.24,2.14 -2.25,4.51z"/>
    <path class="fil1" d="M7.74 8.75c2.6,0.03 4.43,-0.16 4.71,2.64 0.1,1.05 -0.04,2.25 -0.55,3.02 -0.84,1.28 -2.42,1.02 -4.14,1.03l-0.02 -6.26 0 -0.43zm-3.63 4.23l-0.05 2.49c-0.46,0.1 -1.1,0.13 -1.54,-0.03 -0.03,-0.23 -0.17,-6.26 0.07,-6.68 0.81,-0.03 2.08,-0.06 2.86,0.06 2.05,0.3 1.82,2.96 0.95,3.69 -0.57,0.48 -1.45,0.42 -2.29,0.47zm9.35 -4.22l4.02 0 0 1.15 -2.51 0 0.01 1.74 1.92 0 0 1.15 -1.95 0 -0.03 2.64 -1.45 0 -0.02 -6.16 0.01 -0.52zm-11.51 -2.02c-1.13,0.25 -0.87,1.55 -0.87,2.64l0.01 7.09c0.14,1.26 1.37,1.03 2.58,1.03 1.7,0 13.66,0.11 14.26,-0.05 1.05,-0.28 0.81,-1.55 0.81,-2.67l-0.01 -7.08c-0.15,-1.19 -1.46,-1 -2.57,-1 -1.76,0 -13.56,-0.11 -14.21,0.04z"/>
    <path class="fil2" d="M5.3 18.5c0.01,3.32 0,6.64 0,9.96 0,3.66 -0.48,6.1 2.2,7.76 1.3,0.8 2.71,0.65 4.36,0.65 4.9,0 10.17,0.08 14.99,-0.01 -0.14,-0.27 -1.82,-2.08 -2.01,-2.13l-12.68 0.01c-1.26,0 -2.84,0.19 -3.72,-0.46 -1.07,-0.78 -1.01,-1.61 -1.01,-3.22l0 -12.58 -2.13 0.02z"/>
    <path class="fil3" d="M31.75 12.78l-4.62 -4.78c-0.79,-0.82 -1.5,-1.59 -2.28,-2.42l-2.4 -2.38c-0.05,1.53 -0.01,3.14 -0.01,4.69 0,1.79 -0.13,2.64 0.96,3.74 1,1.01 1.74,1.15 3.54,1.14 1.6,0 3.21,-0.01 4.81,0.01z"/>
    <polygon class="fil2" points="10.24,21.97 10.66,21.96 9.77,21.96 22.55,21.96 23.75,21.96 24.22,21.95 24.23,19.95 10.24,19.93 "/>
    <polygon class="fil2" points="10.24,25.66 10.66,25.66 23.55,25.66 23.65,25.66 24.23,25.65 24.23,23.65 10.24,23.63 "/>
    <polygon class="fil2" points="10.25,29.21 24.19,29.21 24.23,27.19 10.26,27.18 "/>
    <path class="fil4" d="M9.26 9.9c1.44,0.04 1.66,0.74 1.65,2.18 -0.01,1.47 -0.21,2.19 -1.68,2.22l0.03 -4.4zm-1.52 -0.72l0.02 6.26c1.72,-0.01 3.3,0.25 4.14,-1.03 0.51,-0.77 0.65,-1.97 0.55,-3.02 -0.28,-2.8 -2.11,-2.61 -4.71,-2.64l0 0.43z"/>
    <path class="fil4" d="M4.03 9.84c0.93,0.01 1.44,0.03 1.42,1.04 -0.02,0.99 -0.51,0.94 -1.42,0.94l0 -1.98zm0.08 3.14c0.84,-0.05 1.72,0.01 2.29,-0.47 0.87,-0.73 1.1,-3.39 -0.95,-3.69 -0.78,-0.12 -2.05,-0.09 -2.86,-0.06l0 6.65 1.41 0 0 -2.13c-0.01,-0.53 -0.01,-0.13 0.11,-0.3z"/>
    <polygon class="fil3" points="13.45,9.28 13.47,15.44 14.92,15.44 14.95,12.8 16.9,12.8 16.9,11.65 14.98,11.65 14.97,9.91 17.48,9.91 17.48,8.76 13.46,8.76 "/>
    <path class="fil1" d="M9.23 14.3c1.47,-0.03 1.67,-0.75 1.68,-2.22 0.01,-1.44 -0.21,-2.14 -1.65,-2.18l-0.03 4.4z"/>
    <path class="fil1" d="M4.03 11.82c0.91,0 1.4,0.05 1.42,-0.94 0.02,-1.01 -0.49,-1.03 -1.42,-1.04l0 1.98z"/>
    <path class="fil5" d="M38.95 31.09c-0.13,-0.19 -0.22,-0.14 -0.72,-0.13 -0.3,0 -0.6,0 -0.9,0 -0.57,0 -1.13,-0.01 -1.7,0l0 -8.79c-0.06,-0.44 -0.01,-0.14 -0.13,-0.26l0.03 9.11 3.42 0.07z"/>
    <path class="fil6" d="M4.11 12.98c-0.12,0.17 -0.12,-0.23 -0.11,0.3l0 2.13 -1.41 0 0 -6.65c-0.24,0.42 -0.1,6.45 -0.07,6.68 0.44,0.16 1.08,0.13 1.54,0.03l0.05 -2.49z"/>
   </g>
  </g>
 </g>
</svg>
