<?xml version="1.0" encoding="UTF-8"?>
<!DOCTYPE svg PUBLIC "-//W3C//DTD SVG 1.1//EN" "http://www.w3.org/Graphics/SVG/1.1/DTD/svg11.dtd">
<!-- Creator: CorelDRAW 2019 (64-Bit) -->
<svg xmlns="http://www.w3.org/2000/svg" xml:space="preserve" width="1594px" height="1594px" version="1.1" style="shape-rendering:geometricPrecision; text-rendering:geometricPrecision; image-rendering:optimizeQuality; fill-rule:evenodd; clip-rule:evenodd"
viewBox="0 0 1594 1594"
 xmlns:xlink="http://www.w3.org/1999/xlink"
 enable-background="new 0 0 64 64">
 <defs>
  <style type="text/css">
   <![CDATA[
    .fil0 {fill:#00A4F8}
   ]]>
  </style>
 </defs>
 <g id="Слой_x0020_1">
  <metadata id="CorelCorpID_0Corel-Layer"/>
  <path id="Shape" class="fil0" d="M1573.46 633.26c-0.21,-0.62 -0.32,-1.24 -0.58,-1.84 -1.09,-2.53 -2.58,-4.88 -4.41,-6.94l-221.02 -243.11c-29.56,-32.45 -71.4,-50.96 -115.29,-51l-124.33 0 0 -259.66c0,-28.68 -23.25,-51.93 -51.93,-51.93l-519.31 0c-28.69,0 -51.94,23.25 -51.94,51.93l0 259.66 -124.32 0c-43.89,0.04 -85.74,18.55 -115.29,51l-221.02 243.11c-1.83,2.06 -3.32,4.41 -4.41,6.94 -0.26,0.6 -0.37,1.22 -0.58,1.84 -0.85,2.35 -1.35,4.81 -1.48,7.3 -0.02,0.49 -0.28,0.91 -0.28,1.4l0 493.35c0.08,86.01 69.78,155.71 155.79,155.8l181.76 0 -93.47 124.63c-11.8,15.74 -13.7,36.79 -4.91,54.39 8.8,17.59 26.78,28.7 46.45,28.7l150.86 0 -2.02 4.5c-7.3,16.07 -5.94,34.75 3.63,49.59 9.55,14.84 26,23.81 43.65,23.81l594.47 0c17.65,0 34.09,-8.97 43.65,-23.81 9.56,-14.84 10.93,-33.52 3.63,-49.59l-2.05 -4.5 150.89 0c19.67,0 37.65,-11.11 46.44,-28.7 8.8,-17.6 6.9,-38.65 -4.9,-54.39l-93.48 -124.63 181.77 0c86,-0.09 155.71,-69.79 155.79,-155.8l0 -493.35c0,-0.49 -0.26,-0.91 -0.29,-1.4 -0.12,-2.49 -0.62,-4.95 -1.47,-7.3zm-1036.87 -562.55l519.31 0 0 415.46 -519.31 0 0 -415.46zm-253.12 345.61c19.69,-21.65 47.6,-34 76.86,-34.02l124.32 0 0 103.87 -25.96 0c-14.34,0 -25.97,11.62 -25.97,25.96 0,14.34 11.63,25.97 25.97,25.97l675.11 0c14.34,0 25.97,-11.63 25.97,-25.97 0,-14.34 -11.63,-25.96 -25.97,-25.96l-25.97 0 0 -103.87 124.33 0c29.26,0.02 57.16,12.37 76.86,34.02l181.53 199.67 -1388.61 0 181.53 -199.67zm902.26 805.56l-51.93 -69.25 0 -43.28c0,-43.03 -34.88,-77.9 -77.9,-77.9l-519.31 0c-43.03,0 -77.9,34.87 -77.9,77.9l0 43.28 -51.93 69.25 0 -190.43c0.11,-100.34 81.42,-181.65 181.76,-181.76l415.45 0c100.34,0.11 181.65,81.42 181.76,181.76l0 190.43zm-103.86 -86.57l-571.25 0 0 -25.96c0,-14.34 11.63,-25.97 25.97,-25.97l519.31 0c14.34,0 25.97,11.63 25.97,25.97l0 25.96zm-582.86 389.49l106.23 -233.69 382.01 0 106.33 233.69 -594.57 0zm616.1 -77.9l-87.2 -191.86 -0.28 -0.62c-1.22,-2.59 -2.86,-4.95 -4.86,-6.99 -0.54,-0.57 -1.17,-1.01 -1.74,-1.53 -1.7,-1.5 -3.6,-2.78 -5.63,-3.79 -0.77,-0.41 -1.56,-0.77 -2.37,-1.09 -2.88,-1.15 -5.95,-1.78 -9.06,-1.84l-415.45 0c-3.1,0.06 -6.16,0.67 -9.04,1.81 -0.81,0.32 -1.59,0.69 -2.36,1.09 -2.04,1.01 -3.93,2.29 -5.64,3.79 -0.57,0.52 -1.19,0.97 -1.74,1.54 -2,2.03 -3.64,4.4 -4.85,6.98l-0.29 0.63 -87.22 191.88 -174.49 0 194.75 -259.66 597.21 0 194.75 259.66 -174.49 0zm408.18 -311.59c0,57.36 -46.5,103.87 -103.86,103.87l-181.77 0 0 -207.73c-0.15,-129 -104.69,-233.54 -233.69,-233.69l-415.45 0c-129,0.15 -233.54,104.69 -233.7,233.69l0 207.73 -181.76 0c-57.36,0 -103.86,-46.51 -103.86,-103.87l0 -467.38 1454.09 0 0 467.38z"/>
  <path id="Shape_0" class="fil0" d="M1393.46 901.62c43.02,0 77.9,-34.88 77.9,-77.9 0,-43.02 -34.88,-77.9 -77.9,-77.9 -43.02,0 -77.9,34.88 -77.9,77.9 0,43.02 34.88,77.9 77.9,77.9zm0 -103.86c14.34,0 25.97,11.62 25.97,25.96 0,14.34 -11.63,25.97 -25.97,25.97 -14.34,0 -25.97,-11.63 -25.97,-25.97 0,-14.34 11.63,-25.96 25.97,-25.96z"/>
  <circle id="Oval" class="fil0" cx="1393.46" cy="979.52" r="25.97"/>
  <circle id="Oval_1" class="fil0" cx="1393.46" cy="1057.41" r="25.97"/>
  <circle id="Oval_2" class="fil0" cx="1393.46" cy="1135.31" r="25.97"/>
  <path id="Shape_3" class="fil0" d="M692.38 1394.97l207.73 0c14.34,0 25.96,-11.62 25.96,-25.96 0,-14.34 -11.62,-25.97 -25.96,-25.97l-207.73 0c-14.34,0 -25.97,11.63 -25.97,25.97 0,14.34 11.63,25.96 25.97,25.96z"/>
  <path id="Shape_4" class="fil0" d="M952.04 1420.94l-311.59 0c-14.34,0 -25.97,11.62 -25.97,25.96 0,14.34 11.63,25.97 25.97,25.97l311.59 0c14.34,0 25.97,-11.63 25.97,-25.97 0,-14.34 -11.63,-25.96 -25.97,-25.96z"/>
  <path id="Shape_5" class="fil0" d="M147.1 797.76c14.34,0 25.96,-11.63 25.96,-25.97l0 -25.97c0,-14.34 -11.62,-25.96 -25.96,-25.96 -14.34,0 -25.97,11.62 -25.97,25.96l0 25.97c0,14.34 11.63,25.97 25.97,25.97z"/>
  <path id="Shape_6" class="fil0" d="M147.1 1057.41c14.34,0 25.96,-11.62 25.96,-25.96l0 -155.8c0,-14.34 -11.62,-25.96 -25.96,-25.96 -14.34,0 -25.97,11.62 -25.97,25.96l0 155.8c0,14.34 11.63,25.96 25.97,25.96z"/>
 </g>
</svg>
