<?xml version="1.0" encoding="UTF-8"?>
<!DOCTYPE svg PUBLIC "-//W3C//DTD SVG 1.1//EN" "http://www.w3.org/Graphics/SVG/1.1/DTD/svg11.dtd">
<!-- Creator: CorelDRAW 2019 (64-Bit) -->
<svg xmlns="http://www.w3.org/2000/svg" xml:space="preserve" width="177px" height="177px" version="1.1" style="shape-rendering:geometricPrecision; text-rendering:geometricPrecision; image-rendering:optimizeQuality; fill-rule:evenodd; clip-rule:evenodd"
viewBox="0 0 177 177"
 xmlns:xlink="http://www.w3.org/1999/xlink">
 <defs>
  <style type="text/css">
   <![CDATA[
    .str0 {stroke:#6C757D;stroke-width:3.5;stroke-miterlimit:22.9256}
    .fil0 {fill:white}
    .fil1 {fill:#6C757D;fill-rule:nonzero}
   ]]>
  </style>
 </defs>
 <g id="Слой_x0020_1">
  <metadata id="CorelCorpID_0Corel-Layer"/>
  <g id="_2402887548704">
   <path class="fil0 str0" d="M24.98 6.69l126.4 0c9.39,0 17.07,7.68 17.07,17.07l0 130.13c0,9.39 -7.69,17.07 -17.07,17.07l-126.4 0c-9.39,0 -17.07,-7.68 -17.07,-17.07l0 -130.13c0,-9.39 7.68,-17.07 17.07,-17.07z"/>
   <path class="fil1" d="M87.91 89.5c0,6.57 -1.62,11.61 -4.87,15.13 -3.26,3.53 -7.92,5.28 -13.99,5.28 -6.07,0 -10.73,-1.75 -13.98,-5.28 -3.26,-3.52 -4.88,-8.58 -4.88,-15.17 0,-6.6 1.63,-11.64 4.9,-15.12 3.25,-3.47 7.93,-5.21 14.02,-5.21 6.08,0 10.75,1.74 13.96,5.25 3.23,3.51 4.84,8.55 4.84,15.12zm-28.91 0c0,4.43 0.84,7.76 2.51,10.01 1.69,2.24 4.2,3.36 7.54,3.36 6.71,0 10.06,-4.46 10.06,-13.37 0,-8.92 -3.33,-13.38 -10,-13.38 -3.35,0 -5.87,1.13 -7.57,3.38 -1.69,2.24 -2.54,5.58 -2.54,10z"/>
   <polygon id="1" class="fil1" points="126.16,109.36 116.63,109.36 106.25,92.67 102.7,95.21 102.7,109.36 94.3,109.36 94.3,69.74 102.7,69.74 102.7,87.87 106.01,83.2 116.73,69.74 126.05,69.74 112.24,87.27 "/>
  </g>
 </g>
</svg>
