<?xml version="1.0" encoding="UTF-8"?>
<!DOCTYPE svg PUBLIC "-//W3C//DTD SVG 1.1//EN" "http://www.w3.org/Graphics/SVG/1.1/DTD/svg11.dtd">
<!-- Creator: CorelDRAW 2019 (64-Bit) -->
<svg xmlns="http://www.w3.org/2000/svg" xml:space="preserve" width="1208px" height="1208px" version="1.1" style="shape-rendering:geometricPrecision; text-rendering:geometricPrecision; image-rendering:optimizeQuality; fill-rule:evenodd; clip-rule:evenodd"
viewBox="0 0 1208 1208"
 xmlns:xlink="http://www.w3.org/1999/xlink"
 enable-background="new 0 0 64 64">
 <defs>
  <style type="text/css">
   <![CDATA[
    .fil0 {fill:#495057}
   ]]>
  </style>
 </defs>
 <g id="Слой_x0020_1">
  <metadata id="CorelCorpID_0Corel-Layer"/>
  <g id="_2800722340816">
   <path class="fil0" d="M1003.06 5l-799.78 0c-110.25,0 -199.95,89.7 -199.95,199.94l0 799.78c0,110.25 89.7,199.95 199.95,199.95l199.94 0c27.6,0 49.99,-22.4 49.99,-49.99 0,-27.59 -22.39,-49.98 -49.99,-49.98l-199.94 -0.01c-55.14,0 -99.98,-44.83 -99.98,-99.97l0 -799.78c0,-55.13 44.84,-99.97 99.98,-99.97l799.78 0c55.13,0 99.97,44.84 99.97,99.97l0 799.78c0,55.14 -44.84,99.98 -99.97,99.98l-199.95 -0.01c-27.59,0 -49.98,22.4 -49.98,49.99 0,27.59 22.39,49.99 49.98,49.99l199.95 0c110.24,0 199.94,-89.7 199.94,-199.95l0 -799.78c0,-110.24 -89.7,-199.94 -199.94,-199.94l0 0z"/>
   <path class="fil0" d="M603.17 1004.72c27.59,0 49.98,-22.39 49.98,-49.98l0 -579.14 114.62 114.61c9.77,9.78 22.55,14.65 35.34,14.65 12.8,0 25.57,-4.87 35.34,-14.65 19.52,-19.52 19.52,-51.16 0,-70.68l-199.94 -199.94c-19.52,-19.52 -51.19,-19.52 -70.68,0l-199.95 199.94c-19.52,19.52 -19.52,51.16 0,70.68 19.5,19.52 51.19,19.52 70.68,0l114.62 -114.61 0 579.14c0,27.59 22.4,49.98 49.99,49.98z"/>
  </g>
 </g>
</svg>
