<?xml version="1.0" encoding="UTF-8"?>
<!DOCTYPE svg PUBLIC "-//W3C//DTD SVG 1.1//EN" "http://www.w3.org/Graphics/SVG/1.1/DTD/svg11.dtd">
<!-- Creator: CorelDRAW 2019 (64-Bit) -->
<svg xmlns="http://www.w3.org/2000/svg" xml:space="preserve" width="4724px" height="4724px" version="1.1" style="shape-rendering:geometricPrecision; text-rendering:geometricPrecision; image-rendering:optimizeQuality; fill-rule:evenodd; clip-rule:evenodd"
viewBox="0 0 4724 4724"
 xmlns:xlink="http://www.w3.org/1999/xlink"
 enable-background="new 0 0 64 64">
 <defs>
  <style type="text/css">
   <![CDATA[
    .fil1 {fill:#FEFEFE}
    .fil0 {fill:black}
    .fil2 {fill:#FEFEFE;fill-rule:nonzero}
   ]]>
  </style>
 </defs>
 <g id="Слой_x0020_1">
  <metadata id="CorelCorpID_0Corel-Layer"/>
  <rect class="fil0" x="-0.79" y="0.79" width="4724" height="4724"/>
  <g id="_2800628070224">
   <g>
    <polygon class="fil1" points="279.45,2466.15 341.13,2746.77 396.17,2996.68 541.88,2741.64 479.63,2466.15 "/>
    <polygon class="fil1" points="3966.79,2578.06 3834.7,2798.76 3890.82,3059.37 3890.96,3060.14 3891.05,3059.98 4070.56,2747.47 4170.48,2747.47 4203.42,2893.54 4041.26,2893.54 3944.81,3061.11 3944.72,3061.18 4442.96,3061.18 4442.96,3061.11 4337.28,2578.06 "/>
    <polygon class="fil1" points="1020.65,2578.06 863.74,2853.57 963.02,3020.23 1122.39,2747.47 1222.28,2747.47 1255.26,2893.54 1092.87,2893.54 1092.87,2893.54 996.32,3061.11 996.32,3061.18 1492.66,3061.18 1492.66,3061.11 1386.84,2578.06 "/>
    <polygon class="fil1" points="414.99,3060.83 613.48,3060.97 672.85,2956.14 672.92,2955.86 795.46,3163.69 993.31,3163.69 769.38,2786.8 889.18,2578.19 691.61,2578.06 "/>
    <polygon class="fil1" points="3167.27,2578.14 2964.71,2578.41 2964.92,2579.55 3071.58,3061.11 3820.87,3060.97 3820.92,3060.97 3712.85,2578.19 3511.27,2578.19 3581.26,2893.62 3512.69,2893.62 3442.29,2578.27 3239.37,2578.27 3308.64,2893.62 3237.47,2893.62 3167.41,2578.14 "/>
    <polygon class="fil1" points="1458.31,2578.19 1494.98,2746.63 1646.95,2746.63 1647.03,2746.77 1715.8,3061.03 1917.31,3061.11 1848.19,2746.77 1848.11,2746.63 1998.04,2746.63 1960.67,2578.19 "/>
    <polygon class="fil1" points="2403.8,2735.66 2269.68,2735.66 2234.13,2579.55 2233.85,2578.19 2030.17,2578.19 2030.37,2579.55 2137.38,3061.11 2339.67,3061.11 2306.16,2904.65 2305.93,2903.59 2441.83,2903.59 2441.83,2903.59 "/>
    <polygon class="fil1" points="3016.33,3061.29 2965.7,2840.59 2909.57,2579.98 2909.43,2579.21 2909.35,2579.37 2774.26,2814.55 2791.6,2891.88 2629.91,2891.88 2596.98,2745.81 2759.13,2745.81 2855.59,2578.24 2855.68,2578.17 2357.44,2578.17 2357.44,2578.24 2463.12,3061.29 "/>
   </g>
   <polygon class="fil2" points="2974.09,1269.21 2955.74,1288.34 2808.76,1441.5 2973.22,1441.5 2364.19,2075.9 1664.32,1269.21 1417.56,1269.21 2207.66,2181.27 1417.56,2181.27 1417.56,2344.35 3267.42,2344.35 3267.42,2181.27 2522.71,2181.22 3104.28,1575.41 3104.28,1746.85 3267.42,1576.96 3267.42,1269.21 "/>
  </g>
 </g>
</svg>
