<?xml version="1.0" encoding="UTF-8"?>
<!DOCTYPE svg PUBLIC "-//W3C//DTD SVG 1.1//EN" "http://www.w3.org/Graphics/SVG/1.1/DTD/svg11.dtd">
<!-- Creator: CorelDRAW 2019 (64-Bit) -->
<svg xmlns="http://www.w3.org/2000/svg" xml:space="preserve" width="685px" height="200px" version="1.1" style="shape-rendering:geometricPrecision; text-rendering:geometricPrecision; image-rendering:optimizeQuality; fill-rule:evenodd; clip-rule:evenodd"
viewBox="0 0 685 200"
 xmlns:xlink="http://www.w3.org/1999/xlink">
 <defs>
  <style type="text/css">
   <![CDATA[
    .fil0 {fill:#FEFEFE;fill-rule:nonzero}
   ]]>
  </style>
 </defs>
 <g id="Слой_x0020_1">
  <metadata id="CorelCorpID_0Corel-Layer"/>
  <g id="_2800051776352">
   <path class="fil0" d="M197.83 114.14c14.25,0 17.05,7.51 17.05,25.16 0,24.88 -11.07,24.88 -17.98,24.88l-10.12 0 0 -50.04 11.05 0zm1.14 -78.32l0 0c10.07,0 14.1,9.36 14.1,22.24 0,16.42 -5.12,22.25 -12.29,22.25l-14 0 0 -44.49 12.19 0zm-57.9 -33.82l0 0 0 196 63.11 0c43.88,0 53.1,-28.74 53.1,-52.86 0,-20.59 -3.51,-41.96 -26.28,-49 15.02,-6.2 26.85,-21.23 26.85,-42.33 0,-46.43 -31.91,-51.81 -53.44,-51.81l-63.34 0z"/>
   <path class="fil0" d="M326.82 114.14c14.28,0 17.08,7.51 17.08,25.16 0,24.88 -11.08,24.88 -17.98,24.88l-10.15 0 0 -50.04 11.05 0zm1.13 -78.32l0 0c10.09,0 14.12,9.36 14.12,22.24 0,16.42 -5.1,22.25 -12.29,22.25l-14.01 0 0 -44.49 12.18 0zm-57.87 -33.82l0 0 0 196 63.1 0c43.89,0 53.08,-28.74 53.08,-52.86 0,-20.6 -3.49,-41.96 -26.25,-49.01 15.03,-6.19 26.85,-21.22 26.85,-42.32 0,-46.43 -31.92,-51.81 -53.44,-51.81l-63.34 0z"/>
   <path class="fil0" d="M468.85 2c0,0 -17.13,66.5 -21.02,78.54 -3.67,-12.08 -19.52,-78.54 -19.52,-78.54l-42.57 0c0,0 38.54,127.17 38.76,127.81l0 68.19 45.72 0 0 -68.17c0.25,-0.68 38.74,-127.83 38.74,-127.83l-40.11 0z"/>
   <path class="fil0" d="M596.97 2c0,0 -17.13,66.5 -21.03,78.54 -3.67,-12.08 -19.53,-78.54 -19.53,-78.54l-42.56 0c0,0 38.53,127.17 38.76,127.81l0 68.19 45.72 0 0 -68.17c0.24,-0.68 38.72,-127.83 38.72,-127.83l-40.08 0z"/>
   <path class="fil0" d="M54.83 122.4l11.82 -58.55 11.83 58.55 -23.65 0zm38.91 75.6l0 0 39.05 0 -39.59 -196 -53.11 0 -39.58 196 39.06 0 8.42 -41.74 37.33 0 8.42 41.74z"/>
   <path class="fil0" d="M665.41 38.37c-9.58,0 -18.12,-6.67 -18.12,-18.05 0,-11.37 8.54,-18.03 18.12,-18.03 9.53,0 18.08,6.66 18.08,18.03 0,11.38 -8.55,18.05 -18.08,18.05zm0 -31.91l0 0c-7.16,0 -12.92,5.57 -12.92,13.86 0,8.3 5.76,13.87 12.92,13.87 6.96,0 12.87,-5.57 12.87,-13.87 0,-8.29 -5.91,-13.86 -12.87,-13.86zm-2.98 23.55l0 0 -4.18 0 0 -19.42 7.25 0c5.03,0 7.96,1.44 7.96,5.86 0,3.58 -2.09,4.87 -4.66,5.07l4.96 8.49 -4.92 0 -4.52 -8.19 -1.89 0 0 8.19zm3.63 -11.47l0 0c1.88,0 2.98,-0.35 2.98,-2.49 0,-2.04 -2.14,-2.18 -3.73,-2.18l-2.88 0 0 4.67 3.63 0z"/>
  </g>
 </g>
</svg>
