<?xml version="1.0" encoding="UTF-8"?>
<!DOCTYPE svg PUBLIC "-//W3C//DTD SVG 1.1//EN" "http://www.w3.org/Graphics/SVG/1.1/DTD/svg11.dtd">
<!-- Creator: CorelDRAW 2019 (64-Bit) -->
<svg xmlns="http://www.w3.org/2000/svg" xml:space="preserve" width="880px" height="200px" version="1.1" style="shape-rendering:geometricPrecision; text-rendering:geometricPrecision; image-rendering:optimizeQuality; fill-rule:evenodd; clip-rule:evenodd"
viewBox="0 0 880 200"
 xmlns:xlink="http://www.w3.org/1999/xlink">
 <defs>
  <style type="text/css">
   <![CDATA[
    .fil0 {fill:white}
    .fil1 {fill:#FEFEFE;fill-rule:nonzero}
   ]]>
  </style>
 </defs>
 <g id="Слой_x0020_1">
  <metadata id="CorelCorpID_0Corel-Layer"/>
  <g id="_2800044694896">
   <path class="fil0" d="M120.1 12.84l0 0 14.14 0 0 45.4 0.33 0c4.66,-10.31 16.8,-14.63 27.12,-14.63 22.62,0 29.59,12.97 29.59,31.4l0 56.56 -14.13 0 0 -58.22c0,-10.45 -6.65,-17.27 -17.46,-17.27 -17.13,0 -25.45,11.48 -25.45,26.92l0 48.57 -14.14 0 0 -118.73zm159.01 91.45l0 0c-3.82,18.96 -17.47,29.28 -36.76,29.28 -27.44,0 -40.41,-18.97 -41.24,-45.25 0,-25.75 16.96,-44.71 40.41,-44.71 30.44,0 39.75,28.41 38.92,49.2l-64.37 0c-0.5,14.97 7.99,28.28 26.78,28.28 11.65,0 19.8,-5.66 22.29,-16.8l13.97 0zm-13.63 -23.95l0 0c-0.67,-13.44 -10.81,-24.26 -24.79,-24.26 -14.8,0 -23.62,11.14 -24.62,24.26l49.41 0zm87.65 -7.16l0 0c-2.17,-10.78 -9.65,-17.1 -21.29,-17.1 -20.46,0 -26.78,16.11 -26.78,33.57 0,15.8 7.15,31.44 25.11,31.44 13.63,0 21.79,-7.98 23.62,-20.96l14.47 0c-3.16,20.96 -16.3,33.44 -37.92,33.44 -26.28,0 -40.26,-18.3 -40.26,-43.92 0,-25.75 13.31,-46.04 40.59,-46.04 19.46,0 35.1,9.14 37.1,29.57l-14.64 0zm27.6 -60.34l0 0 14.14 0 0 70.33 39.26 -37.57 18.96 0 -34.1 31.25 36.59 54.72 -17.96 0 -29.44 -44.91 -13.31 12.31 0 32.6 -14.14 0 0 -118.73zm125.75 0l0 0 52.06 0c23.62,0 36.43,13.13 36.43,35.09 0,21.94 -12.81,35.24 -36.43,35.07l-36.26 0 0 48.57 -15.8 0 0 -118.73zm15.8 56.87l0 0 30.93 0c17.81,0.16 25.96,-7.65 25.96,-21.78 0,-14.14 -8.15,-21.79 -25.96,-21.79l-30.93 0 0 43.57zm116.85 -26.1l0 0c27.28,0 41.75,19.79 41.75,45.05 0,25.11 -14.47,44.91 -41.75,44.91 -27.28,0 -41.75,-19.8 -41.75,-44.91 0,-25.26 14.47,-45.05 41.75,-45.05zm0 77.48l0 0c14.8,0 26.78,-11.65 26.78,-32.43 0,-20.94 -11.98,-32.58 -26.78,-32.58 -14.8,0 -26.78,11.64 -26.78,32.58 0,20.78 11.98,32.43 26.78,32.43zm69.19 -90.96l0 0 -14.14 0 0 -17.29 14.14 0 0 17.29zm-14.14 15.47l0 0 14.14 0 0 85.97 -14.14 0 0 -85.97zm31.94 0l0 0 13.3 0 0 13.64 0.34 0c5.98,-10.64 15.62,-15.63 27.94,-15.63 22.62,0 29.6,12.97 29.6,31.4l0 56.56 -14.13 0 0 -58.22c0,-10.45 -6.66,-17.27 -17.47,-17.27 -17.13,0 -25.45,11.48 -25.45,26.92l0 48.57 -14.13 0 0 -85.97zm107.94 0l0 0 17.13 0 0 12.48 -17.13 0 0 53.37c0,6.48 1.84,7.64 10.65,7.64l6.48 0 0 12.48 -10.81 0c-14.64,0 -20.46,-2.99 -20.46,-18.8l0 -54.69 -14.63 0 0 -12.48 14.63 0 0 -25.78 14.14 0 0 25.78zm-744.06 3c-3.32,-16.8 -16.8,-25.29 -33.27,-25.29 -28.27,0 -40.25,23.29 -40.25,48.05 0,27.11 11.98,49.73 40.42,49.73 20.79,0 32.77,-14.64 34.27,-34.26l15.79 0c-2.99,29.6 -21.45,47.57 -51.39,47.57 -36.93,0 -54.89,-27.28 -54.89,-61.88 0,-34.41 19.63,-62.51 56.22,-62.51 24.78,0 45.24,13.3 48.9,38.59l-15.8 0zm-61.1 122.06c-0.58,-5.33 -4.13,-7.64 -9.27,-7.64 -4.19,0 -8.38,1.52 -8.38,6.4 0,4.61 5.97,5.29 11.99,6.64 5.97,1.36 11.94,3.45 11.94,10.79 0,7.96 -7.8,11.15 -14.6,11.15 -8.39,0 -15.45,-4.08 -15.45,-13.19l4.71 0c0,6.28 5.23,9 10.89,9 4.5,0 9.47,-1.41 9.47,-6.8 0,-5.13 -5.96,-6.02 -11.93,-7.33 -5.97,-1.31 -11.99,-3.04 -11.99,-9.9 0,-7.6 6.75,-10.94 13.56,-10.94 7.64,0 13.46,3.61 13.78,11.82l-4.72 0zm828.71 26.45l0 0 5.8 0 0 -5.81 -5.8 0 0 5.81zm-29.96 -4.19l0 0 8.28 0c3.4,0 12.57,-0.94 12.57,-14.7 0,-8.91 -3.31,-14.3 -12.47,-14.3l-8.38 0 0 29zm-4.96 -33.19l0 0 12.82 0c11.52,0 17.95,5.76 17.95,17.8 0,12.51 -5.5,19.58 -17.95,19.58l-12.82 0 0 -37.38zm-23.57 4.19l0 0 -12.46 0 0 -4.19 29.9 0 0 4.19 -12.46 0 0 33.19 -4.98 0 0 -33.19zm-35.44 -4.19l0 0 4.97 0 0 33.19 19.79 0 0 4.19 -24.76 0 0 -37.38zm-29.23 10.93l0 0c-0.58,-5.33 -4.13,-7.64 -9.27,-7.64 -4.19,0 -8.37,1.52 -8.37,6.4 0,4.61 5.97,5.29 11.98,6.64 5.98,1.36 11.95,3.45 11.95,10.79 0,7.96 -7.8,11.15 -14.62,11.15 -8.37,0 -15.43,-4.08 -15.43,-13.19l4.71 0c0,6.28 5.23,9 10.89,9 4.5,0 9.47,-1.41 9.47,-6.8 0,-5.13 -5.97,-6.02 -11.94,-7.33 -5.96,-1.31 -11.98,-3.04 -11.98,-9.9 0,-7.6 6.75,-10.94 13.55,-10.94 7.65,0 13.46,3.61 13.78,11.82l-4.72 0zm-55.6 -10.93l0 0 25.8 0 0 4.19 -20.82 0 0 11.88 19.41 0 0 4.18 -19.41 0 0 12.94 20.99 0 0 4.19 -25.97 0 0 -37.38zm-15.33 0l0 0 4.97 0 0 37.38 -4.97 0 0 -37.38zm-13.99 32.71l0 0c-2.88,3.94 -7.59,5.56 -11.99,5.56 -11.16,0 -17.8,-9.11 -17.8,-18.85 0,-10.89 5.96,-20.31 17.8,-20.31 8.17,0 14.65,3.67 16.07,12.41l-4.97 0c-1,-5.66 -5.55,-8.23 -11.1,-8.23 -9.06,0 -12.83,7.86 -12.83,15.87 0,7.8 4.51,14.92 12.83,14.92 7.7,0 12.31,-5.39 11.99,-12.2l-11.94 0 0 -4.19 16.39 0 0 19.69 -3.14 0 -1.31 -4.67zm-53.93 1.37l0 0c9.11,0 12.93,-7.85 12.93,-15.39 0,-7.54 -3.82,-15.4 -12.93,-15.4 -9.11,0 -12.94,7.86 -12.94,15.4 0,7.54 3.83,15.39 12.94,15.39zm0 -34.97l0 0c11.89,0 17.9,9.42 17.9,19.58 0,10.16 -6.01,19.58 -17.9,19.58 -11.88,0 -17.9,-9.42 -17.9,-19.58 0,-10.16 6.02,-19.58 17.9,-19.58zm-45.97 0.89l0 0 4.98 0 0 33.19 19.78 0 0 4.19 -24.76 0 0 -37.38zm-25.49 34.08l0 0c9.11,0 12.93,-7.85 12.93,-15.39 0,-7.54 -3.82,-15.4 -12.93,-15.4 -9.11,0 -12.94,7.86 -12.94,15.4 0,7.54 3.83,15.39 12.94,15.39zm0 -34.97l0 0c11.87,0 17.9,9.42 17.9,19.58 0,10.16 -6.03,19.58 -17.9,19.58 -11.88,0 -17.91,-9.42 -17.91,-19.58 0,-10.16 6.03,-19.58 17.91,-19.58zm-55.66 0.89l0 0 5.28 0 19.7 30.31 0.1 0 0 -30.31 4.71 0 0 37.38 -5.45 0 -19.53 -30 -0.09 0 0 30 -4.72 0 0 -37.38zm-39.75 0l0 0 4.98 0 0 16.07 19.69 0 0 -16.07 4.98 0 0 37.38 -4.98 0 0 -17.13 -19.69 0 0 17.13 -4.98 0 0 -37.38zm-13.5 11.25l0 0c-1.05,-5.28 -5.28,-7.96 -10.47,-7.96 -8.9,0 -12.67,7.34 -12.67,15.14 0,8.53 3.77,15.65 12.72,15.65 6.54,0 10.32,-4.6 10.79,-10.78l4.97 0c-0.94,9.32 -6.75,14.97 -16.18,14.97 -11.62,0 -17.28,-8.58 -17.28,-19.48 0,-10.83 6.18,-19.68 17.7,-19.68 7.8,0 14.25,4.18 15.39,12.14l-4.97 0zm-60.26 -11.25l0 0 25.81 0 0 4.19 -20.84 0 0 11.88 19.43 0 0 4.18 -19.43 0 0 12.94 21 0 0 4.19 -25.97 0 0 -37.38zm-23.56 4.19l0 0 -12.46 0 0 -4.19 29.89 0 0 4.19 -12.46 0 0 33.19 -4.97 0 0 -33.19zm-59.01 -4.19l0 0 25.81 0 0 4.19 -20.83 0 0 11.88 19.42 0 0 4.18 -19.42 0 0 12.94 21 0 0 4.19 -25.98 0 0 -37.38zm-22.51 17.22l0 0c4.66,0 8.63,-1.21 8.63,-6.64 0,-3.67 -1.98,-6.39 -6.64,-6.39l-12.36 0 0 13.03 10.37 0zm-15.34 -17.22l0 0 17.59 0c7.01,0 11.36,3.81 11.36,9.79 0,4.51 -1.99,8.22 -6.49,9.47l0 0.12c4.35,0.83 5.23,4.03 5.6,7.69 0.31,3.66 0.1,7.74 2.2,10.31l-5.54 0c-1.42,-1.52 -0.64,-5.54 -1.37,-9.21 -0.53,-3.67 -1.42,-6.76 -6.23,-6.76l-12.15 0 0 15.97 -4.97 0 0 -37.38zm-29.48 21.93l0 0 12.67 0 -6.23 -17.43 -0.1 0 -6.34 17.43zm3.72 -21.93l0 0 5.5 0 14.6 37.38 -5.5 0 -4.08 -11.26 -15.81 0 -4.19 11.26 -5.13 0 14.61 -37.38zm-23.71 37.38l0 0 -5.18 0 -8.54 -31.41 -0.11 0 -8.64 31.41 -5.17 0 -9.59 -37.38 5.08 0 7.33 31.1 0.11 0 8.38 -31.1 5.39 0 8.27 31.1 0.1 0 7.6 -31.1 4.97 0 -10 37.38zm-59.11 -33.19l0 0 -12.46 0 0 -4.19 29.89 0 0 4.19 -12.46 0 0 33.19 -4.97 0 0 -33.19zm-41 -4.19l0 0 24.56 0 0 4.19 -19.58 0 0 11.88 17.17 0 0 4.18 -17.17 0 0 17.13 -4.98 0 0 -37.38zm-25.97 34.08l0 0c9.12,0 12.93,-7.85 12.93,-15.39 0,-7.54 -3.81,-15.4 -12.93,-15.4 -9.11,0 -12.93,7.86 -12.93,15.4 0,7.54 3.82,15.39 12.93,15.39zm0 -34.97l0 0c11.88,0 17.91,9.42 17.91,19.58 0,10.16 -6.03,19.58 -17.91,19.58 -11.88,0 -17.9,-9.42 -17.9,-19.58 0,-10.16 6.02,-19.58 17.9,-19.58z"/>
   <path class="fil1" d="M862.81 34.93c-8.74,0 -16.54,-6.08 -16.54,-16.47 0,-10.38 7.8,-16.46 16.54,-16.46 8.7,0 16.51,6.08 16.51,16.46 0,10.39 -7.81,16.47 -16.51,16.47zm0 -29.12l0 0c-6.53,0 -11.79,5.08 -11.79,12.65 0,7.58 5.26,12.66 11.79,12.66 6.35,0 11.75,-5.08 11.75,-12.66 0,-7.57 -5.4,-12.65 -11.75,-12.65zm-2.72 21.5l0 0 -3.81 0 0 -17.73 6.62 0c4.58,0 7.26,1.31 7.26,5.35 0,3.27 -1.91,4.45 -4.26,4.63l4.53 7.75 -4.49 0 -4.13 -7.48 -1.72 0 0 7.48zm3.32 -10.48l0 0c1.71,0 2.71,-0.31 2.71,-2.26 0,-1.86 -1.95,-2 -3.4,-2l-2.63 0 0 4.26 3.32 0z"/>
  </g>
 </g>
</svg>
