<?xml version="1.0" encoding="UTF-8"?>
<!DOCTYPE svg PUBLIC "-//W3C//DTD SVG 1.1//EN" "http://www.w3.org/Graphics/SVG/1.1/DTD/svg11.dtd">
<!-- Creator: CorelDRAW 2019 (64-Bit) -->
<svg xmlns="http://www.w3.org/2000/svg" xml:space="preserve" width="1450px" height="200px" version="1.1" style="shape-rendering:geometricPrecision; text-rendering:geometricPrecision; image-rendering:optimizeQuality; fill-rule:evenodd; clip-rule:evenodd"
viewBox="0 0 1450 200"
 xmlns:xlink="http://www.w3.org/1999/xlink">
 <defs>
  <style type="text/css">
   <![CDATA[
    .fil1 {fill:#FEFEFE;fill-rule:nonzero}
    .fil0 {fill:white;fill-rule:nonzero}
   ]]>
  </style>
 </defs>
 <g id="Слой_x0020_1">
  <metadata id="CorelCorpID_0Corel-Layer"/>
  <g id="_2799624017392">
   <path class="fil0" d="M185 1.87c2.3,0.14 4.6,0.28 6.9,0.41 0.07,5.31 -0.09,10.63 -0.12,15.94 -28.08,-1.45 -56.62,1.65 -83.24,10.99 -24.09,8.36 -46.25,21.95 -65.05,39.14 -10.46,9.46 -19.83,20.07 -28.46,31.21 -4.47,-3.2 -8.99,-6.32 -13.45,-9.54 9.17,-13.37 19.96,-25.64 32.1,-36.4 21.36,-18.99 46.8,-33.3 74.02,-41.96 17.49,-5.63 35.72,-8.83 54.05,-9.87 7.59,-0.42 15.64,-0.37 23.25,0.08zm-25.51 49.21c10,-1.54 20.44,-0.02 29.55,4.39 12.69,5.97 22.66,17.42 26.76,30.83 3.27,10.43 2.99,21.93 -0.7,32.21 -4.8,13.75 -15.75,25.24 -29.38,30.45 -9.79,3.83 -20.8,4.49 -30.97,1.8 -13.18,-3.37 -24.85,-12.28 -31.49,-24.16 -5.39,-9.49 -7.55,-20.74 -6.16,-31.54 1.83,-14.84 10.48,-28.7 23.12,-36.72 5.82,-3.72 12.43,-6.23 19.27,-7.26zm-8.03 25.13c-3.47,0.85 -6.46,3.29 -8.07,6.47 -2.71,5.22 -1.1,12.22 3.73,15.62 5.12,3.94 13.19,2.91 17.12,-2.22 4.17,-4.99 3.42,-13.15 -1.62,-17.26 -3,-2.65 -7.31,-3.54 -11.16,-2.61zm101.3 81.37c25.13,-14.13 46.54,-34.23 63.96,-57.08 4.5,3.18 9.01,6.34 13.49,9.54 -13.97,20.36 -31.72,38.1 -52.12,52.02 -31.42,21.56 -68.89,33.98 -106.89,36.1 -9.81,0.54 -19.66,0.42 -29.46,-0.27 0.06,-5.35 -0.15,-10.71 0.13,-16.05 20.79,1.1 41.78,-0.44 62.06,-5.21 17.06,-4.03 33.58,-10.4 48.83,-19.05z"/>
   <path class="fil0" d="M713.34 38.24c13.07,-2.14 26.78,-0.51 38.9,4.87 14.8,6.45 27.12,18.3 34.34,32.72 6.5,12.91 8.91,27.84 6.76,42.15 -2.34,16.71 -11.02,32.44 -23.89,43.36 -9.82,8.47 -22.09,14.08 -34.94,15.92 -15.34,2.32 -31.42,-0.88 -44.79,-8.74 -13.03,-7.68 -23.51,-19.66 -29.28,-33.67 -5.78,-13.83 -6.91,-29.53 -3.38,-44.09 3.79,-15.77 13.26,-30.11 26.3,-39.75 8.76,-6.61 19.16,-10.99 29.98,-12.77zm2.51 17.42c-19.48,3.21 -36.09,18.58 -41.24,37.57 -3.53,12.54 -2.3,26.4 3.58,38.04 5.7,11.64 15.87,21.04 27.99,25.66 13.01,5.12 28.17,4.48 40.7,-1.71 10.59,-5.12 19.34,-13.95 24.37,-24.58 6.06,-12.36 6.93,-27.13 2.41,-40.12 -3.81,-11.45 -11.75,-21.46 -22,-27.81 -10.53,-6.63 -23.55,-9.27 -35.81,-7.05zm496.78 -13.69c21.37,-8.49 46.83,-5.15 65.33,8.5 -2.85,5.21 -5.54,10.51 -8.39,15.73 -7.08,-5.61 -15.61,-9.46 -24.57,-10.74 -12.51,-1.96 -25.67,1.15 -36.13,8.26 -11.67,7.81 -19.92,20.49 -22.41,34.31 -3.55,18.45 3.63,38.47 18.19,50.35 14.3,12.26 35.6,15.49 52.86,7.92 4.35,-1.88 8.43,-4.37 12.18,-7.28 2.68,5.27 5.51,10.48 8.3,15.7 -14.35,10.63 -33,15.26 -50.66,12.5 -17.67,-2.53 -34.03,-12.39 -44.8,-26.57 -13.35,-17.21 -17.85,-40.74 -12.04,-61.7 5.61,-21.13 21.71,-39.14 42.14,-46.98zm-827.85 -1.82c5.8,0 11.6,0 17.4,0 0,44.95 0.01,89.91 0,134.86 -5.8,-0.01 -11.6,-0.01 -17.4,-0.01l0 -134.85zm43.7 0c4.4,-0.01 8.8,0 13.2,0 29.2,35.72 58.5,71.36 87.69,107.1 -0.03,-35.68 0.06,-71.35 -0.04,-107.02 5.88,-0.18 11.77,-0.05 17.66,-0.08 -0.01,44.96 0,89.9 -0.01,134.85 -5.91,-0.01 -11.83,0.05 -17.75,-0.04 -27.6,-33.92 -55.45,-67.66 -83.09,-101.55 -0.1,33.86 -0.01,67.73 -0.05,101.6 -5.88,-0.08 -11.77,0.12 -17.65,-0.11 0.13,-44.92 0.02,-89.84 0.04,-134.75zm369.11 0c6.2,0.01 12.41,-0.04 18.62,0.02 11.21,32.68 22.73,65.27 33.79,98 11.56,-32.56 22.7,-65.29 33.98,-97.95 3.42,-0.15 6.85,-0.05 10.29,-0.07 11.33,32.62 22.54,65.27 33.91,97.89 11.49,-32.58 22.57,-65.3 33.99,-97.9 6.19,0.01 12.4,0.01 18.61,0 -15.57,44.95 -31.09,89.92 -46.69,134.86 -3.93,-0.01 -7.87,0.03 -11.81,-0.03 -11.02,-31.9 -22.05,-63.8 -33.11,-95.7 -11.08,31.9 -22.05,63.85 -33.17,95.74 -3.93,-0.02 -7.86,0 -11.79,-0.02 -15.52,-44.95 -31.14,-89.88 -46.62,-134.84zm221.33 0.01c5.68,-0.04 11.37,-0.01 17.07,-0.01 18.23,44.94 36.48,89.89 54.68,134.85 -6.33,0.01 -12.65,-0.01 -18.96,0.02 -4.81,-11.79 -9.67,-23.57 -14.34,-35.42 -19.88,-0.08 -39.75,0.05 -59.63,-0.06 -4.97,11.78 -9.55,23.72 -14.53,35.49 -6.3,-0.09 -12.59,0.05 -18.89,-0.07 18.16,-44.94 36.47,-89.84 54.6,-134.8zm8.5 25.85c-7.41,18.71 -15.07,37.3 -22.63,55.94 15.12,0.03 30.24,0.03 45.36,0 -7.57,-18.65 -15.06,-37.33 -22.73,-55.94zm55.42 -25.79c27.7,-0.16 55.42,-0.05 83.13,-0.06 -0.03,5.87 -0.01,11.73 -0.02,17.59 -11.02,-0.01 -22.05,0.05 -33.07,-0.04 -0.16,39.16 -0.03,78.33 -0.06,117.49 -5.53,0.02 -11.06,0.01 -16.58,0.01 -0.01,-39.15 0,-78.31 0,-117.46 -11.11,0 -22.23,-0.01 -33.33,0.01 -0.08,-5.85 0.04,-11.7 -0.07,-17.54zm213.41 -0.07c5.87,0 11.73,-0.01 17.61,0 -0.02,17.52 0.03,35.04 -0.03,52.58 21.83,0.07 43.66,0.01 65.49,0.02 -0.01,-17.53 0.01,-35.05 -0.02,-52.59 5.78,-0.03 11.55,-0.01 17.32,-0.01 0.38,43.06 0.04,86.15 0.2,129.22 0.01,1.94 -0.06,3.88 -0.16,5.84 -5.78,-0.01 -11.57,0.01 -17.35,-0.01 0.02,-21.68 0,-43.35 0,-65.03 -21.78,-0.06 -43.57,0.09 -65.35,-0.08 -0.24,21.7 -0.03,43.41 -0.1,65.12 -5.88,0 -11.74,0 -17.61,0 0,-45.02 0,-90.05 0,-135.06zm-720.68 1.03c20.58,-0.01 41.16,0 61.73,0 -0.03,5.88 0.08,11.77 -0.06,17.64 -14.69,-0.07 -29.37,-0.01 -44.06,-0.02 0,11.32 0,22.63 0,33.95 13.4,0.04 26.81,-0.05 40.21,0.05 -0.11,5.81 0.1,11.61 -0.11,17.42 -13.36,-0.12 -26.74,-0.02 -40.1,-0.06 0.01,21.67 -0.04,43.33 0.03,65 -5.88,0.11 -11.76,0.03 -17.65,0.03 0.02,-44.67 0,-89.34 0.01,-134.01z"/>
   <path class="fil1" d="M1431.12 45.8c-9.17,0 -17.33,-6.38 -17.33,-17.26 0,-10.88 8.16,-17.25 17.33,-17.25 9.12,0 17.3,6.37 17.3,17.25 0,10.88 -8.18,17.26 -17.3,17.26zm0 -30.52l0 0c-6.85,0 -12.36,5.33 -12.36,13.26 0,7.94 5.51,13.26 12.36,13.26 6.65,0 12.31,-5.32 12.31,-13.26 0,-7.93 -5.66,-13.26 -12.31,-13.26zm-2.85 22.53l0 0 -4 0 0 -18.58 6.94 0c4.81,0 7.61,1.38 7.61,5.61 0,3.42 -2,4.66 -4.46,4.84l4.75 8.13 -4.71 0 -4.33 -7.84 -1.8 0 0 7.84zm3.47 -10.98l0 0c1.8,0 2.85,-0.33 2.85,-2.37 0,-1.95 -2.04,-2.1 -3.57,-2.1l-2.75 0 0 4.47 3.47 0z"/>
  </g>
 </g>
</svg>
