<?xml version="1.0" encoding="UTF-8"?>
<!DOCTYPE svg PUBLIC "-//W3C//DTD SVG 1.1//EN" "http://www.w3.org/Graphics/SVG/1.1/DTD/svg11.dtd">
<!-- Creator: CorelDRAW 2019 (64-Bit) -->
<svg xmlns="http://www.w3.org/2000/svg" xml:space="preserve" width="671px" height="114px" version="1.1" style="shape-rendering:geometricPrecision; text-rendering:geometricPrecision; image-rendering:optimizeQuality; fill-rule:evenodd; clip-rule:evenodd"
viewBox="0 0 671 114"
 xmlns:xlink="http://www.w3.org/1999/xlink">
 <defs>
  <style type="text/css">
   <![CDATA[
    .fil1 {fill:black}
    .fil0 {fill:black}
   ]]>
  </style>
 </defs>
 <g id="Слой_x0020_1">
  <metadata id="CorelCorpID_0Corel-Layer"/>
  <g id="_2446511516064">
   <polygon class="fil0" points="3.73,1.5 13.54,46.15 22.3,85.92 45.49,45.34 35.58,1.5 "/>
   <polygon class="fil1" points="590.5,19.31 569.48,54.43 578.41,95.9 578.43,96.02 578.45,96 607.01,46.27 622.91,46.27 628.15,69.51 602.35,69.51 587,96.18 586.99,96.19 666.27,96.19 666.27,96.18 649.45,19.31 "/>
   <polygon class="fil1" points="121.68,19.31 96.71,63.15 112.5,89.67 137.87,46.27 153.76,46.27 159.01,69.51 133.17,69.51 133.17,69.51 117.8,96.18 117.8,96.19 196.79,96.19 196.79,96.18 179.95,19.31 "/>
   <polygon class="fil1" points="25.3,96.13 56.88,96.15 66.33,79.47 66.34,79.43 85.84,112.5 117.33,112.5 81.69,52.52 100.75,19.33 69.31,19.31 "/>
   <polygon class="fil1" points="463.27,19.32 431.04,19.36 431.07,19.54 448.04,96.18 567.28,96.15 567.29,96.15 550.09,19.33 518.01,19.33 529.15,69.52 518.24,69.52 507.03,19.34 474.74,19.34 485.77,69.52 474.44,69.52 463.29,19.32 "/>
   <polygon class="fil1" points="191.32,19.33 197.16,46.13 221.34,46.13 221.35,46.15 232.3,96.16 264.36,96.18 253.36,46.15 253.35,46.13 277.21,46.13 271.26,19.33 "/>
   <polygon class="fil1" points="341.56,44.39 320.44,44.39 314.78,19.54 314.73,19.33 282.32,19.33 282.35,19.54 299.38,96.18 331.57,96.18 326.24,71.28 326.2,71.11 347.61,71.11 347.61,71.11 "/>
   <polygon class="fil0" points="439.25,96.2 431.19,61.08 422.26,19.61 422.24,19.49 422.23,19.52 400.73,56.94 403.49,69.25 377.76,69.25 372.52,46 398.32,46 413.67,19.33 413.69,19.32 334.4,19.32 334.4,19.33 351.22,96.2 "/>
  </g>
 </g>
</svg>
