<?xml version="1.0" encoding="UTF-8"?>
<!DOCTYPE svg PUBLIC "-//W3C//DTD SVG 1.1//EN" "http://www.w3.org/Graphics/SVG/1.1/DTD/svg11.dtd">
<!-- Creator: CorelDRAW 2019 (64-Bit) -->
<svg xmlns="http://www.w3.org/2000/svg" xml:space="preserve" width="67px" height="31px" version="1.1" style="shape-rendering:geometricPrecision; text-rendering:geometricPrecision; image-rendering:optimizeQuality; fill-rule:evenodd; clip-rule:evenodd"
viewBox="0 0 67 31.27"
 xmlns:xlink="http://www.w3.org/1999/xlink">
 <defs>
  <style type="text/css">
   <![CDATA[
    .fil0 {fill:none}
    .fil2 {fill:black}
    .fil1 {fill:black;fill-rule:nonzero}
   ]]>
  </style>
 </defs>
 <g id="Слой_x0020_1">
  <metadata id="CorelCorpID_0Corel-Layer"/>
  <g id="_2429213310976">
   <rect class="fil0" x="-0.25" y="0.25" width="67" height="31.27"/>
   <g>
    <polygon class="fil1" points="42.67,1.33 42.39,1.62 40.13,3.97 42.66,3.97 33.3,13.72 22.54,1.33 18.75,1.33 30.89,15.34 18.75,15.34 18.75,17.85 47.18,17.85 47.18,15.34 35.73,15.34 44.67,6.03 44.67,8.67 47.18,6.06 47.18,1.33 "/>
    <g>
     <polygon class="fil2" points="1.26,19.72 2.21,24.03 3.06,27.87 5.3,23.95 4.34,19.72 "/>
     <polygon class="fil2" points="57.92,21.44 55.89,24.83 56.76,28.83 56.76,28.85 56.76,28.84 59.52,24.04 61.05,24.04 61.56,26.29 59.07,26.29 57.58,28.86 57.58,28.86 65.24,28.86 65.24,28.86 63.62,21.44 "/>
     <polygon class="fil2" points="12.65,21.44 10.24,25.67 11.77,28.23 14.22,24.04 15.75,24.04 16.26,26.29 13.76,26.29 13.76,26.29 12.28,28.86 12.28,28.86 19.9,28.86 19.9,28.86 18.28,21.44 "/>
     <polygon class="fil2" points="3.35,28.86 6.4,28.86 7.31,27.25 7.31,27.24 9.19,30.44 12.23,30.44 8.79,24.64 10.63,21.44 7.6,21.44 "/>
     <polygon class="fil2" points="45.64,21.44 42.53,21.44 42.53,21.46 44.17,28.86 55.68,28.86 55.68,28.86 54.02,21.44 50.92,21.44 52,26.29 50.95,26.29 49.86,21.44 46.75,21.44 47.81,26.29 46.72,26.29 45.64,21.44 "/>
     <polygon class="fil2" points="19.38,21.44 19.94,24.03 22.28,24.03 22.28,24.03 23.33,28.86 26.43,28.86 25.37,24.03 25.37,24.03 27.67,24.03 27.1,21.44 "/>
     <polygon class="fil2" points="43.32,28.86 42.54,25.47 41.68,21.47 41.68,21.45 41.67,21.46 39.6,25.07 39.86,26.26 37.38,26.26 36.87,24.02 39.37,24.02 40.85,21.44 40.85,21.44 33.19,21.44 33.19,21.44 33.72,23.86 31.84,23.86 31.3,21.46 31.29,21.44 28.16,21.44 28.17,21.46 29.81,28.86 32.92,28.86 32.41,26.46 32.4,26.44 34.29,26.44 34.82,28.86 "/>
    </g>
   </g>
  </g>
 </g>
</svg>
