<?xml version="1.0" encoding="UTF-8"?>
<!DOCTYPE svg PUBLIC "-//W3C//DTD SVG 1.1//EN" "http://www.w3.org/Graphics/SVG/1.1/DTD/svg11.dtd">
<!-- Creator: CorelDRAW 2019 (64-Bit) -->
<svg xmlns="http://www.w3.org/2000/svg" xml:space="preserve" width="84px" height="65px" version="1.1" style="shape-rendering:geometricPrecision; text-rendering:geometricPrecision; image-rendering:optimizeQuality; fill-rule:evenodd; clip-rule:evenodd"
viewBox="0 0 84 65"
 xmlns:xlink="http://www.w3.org/1999/xlink">
 <defs>
  <style type="text/css">
   <![CDATA[
    .fil1 {fill:#6E6D6C;fill-rule:nonzero}
    .fil0 {fill:#D3D800;fill-rule:nonzero}
   ]]>
  </style>
 </defs>
 <g id="Слой_x0020_1">
  <metadata id="CorelCorpID_0Corel-Layer"/>
  <g id="_2315572659776">
   <polygon class="fil0" points="5,56.95 79,56.95 79,3.45 5,3.45 "/>
   <path class="fil1" d="M26.65 23.66l-5.91 -1.46c-1,-0.24 -2.57,-0.64 -2.57,-2.56 0,-2.2 2.3,-2.94 4.24,-2.94 4.41,0 4.81,2.6 4.95,3.72l2.8 0 0 4.57c-1.03,-0.61 -2.25,-1.01 -3.51,-1.33l0 0 0 0zm-3.2 14.62c1.26,0 4.38,-0.21 6.71,-1.94l0 1.31 4.71 0 0 -5.75 1.97 -2.05 4.29 7.8 5.63 0 -6.48 -11.16 6.32 -7.02 -5.78 0 -5.95 6.9 0 -13.25 -4.71 0 0 2.09c-1.43,-1.56 -3.75,-2.73 -7.38,-2.73 -7.85,0 -9.32,4.83 -9.32,7.53 0,3.71 1.97,5.78 5.41,6.62l4.88 1.22c2.57,0.64 4.41,1.11 4.41,3.04 0,2.56 -2.68,3.18 -5.08,3.18 -4.41,0 -5.15,-2.61 -5.15,-3.99l-4.85 0c0,3.04 1.54,8.21 10.37,8.21l0 -0.01 0 0z"/>
   <path class="fil1" d="M17.15 49c-0.49,0 -0.86,-0.03 -1.12,-0.12l0 -1.46c0.2,0.1 0.39,0.14 0.57,0.14 0.36,0 0.61,-0.16 0.78,-0.47l0.02 -0.07 -3.38 -6.33 2.02 0 2.18 4.58 1.64 -4.58 1.94 0 -2.92 6.82c-0.14,0.32 -0.31,0.6 -0.53,0.82 -0.22,0.23 -0.43,0.4 -0.66,0.51 -0.22,0.11 -0.4,0.16 -0.54,0.16l0 0 0 0z"/>
   <path class="fil1" d="M26.9 48.88l-1.58 0 0 -2.5c-0.15,0.09 -0.41,0.21 -0.75,0.35 -0.34,0.14 -0.69,0.21 -1.03,0.21 -0.63,0 -1.13,-0.17 -1.5,-0.51 -0.36,-0.34 -0.55,-0.87 -0.55,-1.61l0 -2.01 1.59 0 0 1.97c0,0.54 0.34,0.81 1.02,0.81 0.21,0 0.44,-0.04 0.68,-0.13 0.25,-0.1 0.42,-0.17 0.54,-0.24l0 -2.41 1.58 0 0 6.07 0 0 0 0z"/>
   <path class="fil1" d="M32 45.92c-0.17,0.14 -0.53,0.25 -1.07,0.34 -0.23,0.04 -0.41,0.08 -0.57,0.15 -0.15,0.05 -0.27,0.14 -0.36,0.27 -0.09,0.12 -0.15,0.28 -0.15,0.49 0,0.25 0.08,0.44 0.24,0.55 0.14,0.12 0.32,0.18 0.5,0.18 0.24,0 0.46,-0.06 0.68,-0.15 0.22,-0.1 0.39,-0.24 0.53,-0.42 0.14,-0.18 0.2,-0.39 0.2,-0.62l0 -0.79 0 0zm1.55 1.77c0,0.34 0.03,0.56 0.08,0.69 0.07,0.13 0.15,0.22 0.27,0.26l0 0.24 -1.71 0c-0.07,-0.22 -0.12,-0.47 -0.14,-0.72 -0.26,0.27 -0.53,0.48 -0.81,0.64 -0.29,0.16 -0.66,0.24 -1.13,0.24 -0.32,0 -0.62,-0.07 -0.9,-0.19 -0.28,-0.12 -0.51,-0.32 -0.68,-0.59 -0.16,-0.26 -0.25,-0.6 -0.25,-0.99 0,-0.38 0.07,-0.71 0.22,-0.98 0.15,-0.28 0.35,-0.5 0.61,-0.65 0.26,-0.16 0.57,-0.25 0.92,-0.31l1.42 -0.21c0.37,-0.05 0.55,-0.21 0.55,-0.48 0,-0.3 -0.1,-0.49 -0.3,-0.58 -0.19,-0.09 -0.44,-0.13 -0.74,-0.13 -0.34,0 -0.59,0.08 -0.72,0.24 -0.13,0.16 -0.21,0.36 -0.25,0.6l-1.52 0c0.06,-0.58 0.22,-1.03 0.47,-1.34 0.26,-0.31 0.58,-0.52 0.94,-0.63 0.36,-0.1 0.79,-0.15 1.28,-0.15 0.35,0 0.71,0.04 1.07,0.14 0.36,0.1 0.67,0.28 0.92,0.53 0.27,0.27 0.4,0.63 0.4,1.09l0 3.28 0 0 0 0z"/>
   <path class="fil1" d="M40.09 46.67c-0.02,0.2 -0.08,0.43 -0.16,0.68 -0.09,0.26 -0.24,0.51 -0.44,0.78 -0.2,0.25 -0.48,0.47 -0.83,0.65 -0.36,0.18 -0.8,0.26 -1.32,0.26 -0.53,0 -0.98,-0.09 -1.34,-0.28 -0.37,-0.18 -0.65,-0.42 -0.86,-0.71 -0.21,-0.31 -0.36,-0.63 -0.44,-0.98 -0.09,-0.35 -0.13,-0.7 -0.13,-1.06 0,-0.66 0.1,-1.25 0.3,-1.76 0.2,-0.51 0.51,-0.9 0.95,-1.18 0.43,-0.28 0.97,-0.42 1.62,-0.42 0.39,0 0.77,0.07 1.15,0.21 0.39,0.14 0.72,0.37 1,0.72 0.3,0.35 0.46,0.81 0.5,1.4l-1.59 0c-0.12,-0.65 -0.47,-0.98 -1.06,-0.98 -0.3,0 -0.54,0.09 -0.74,0.26 -0.19,0.18 -0.32,0.4 -0.4,0.66 -0.07,0.26 -0.11,0.55 -0.11,0.84 0,0.33 0.02,0.63 0.07,0.9 0.04,0.27 0.15,0.53 0.34,0.74 0.18,0.22 0.45,0.33 0.82,0.33 0.23,0 0.43,-0.07 0.6,-0.2 0.16,-0.11 0.28,-0.27 0.35,-0.43 0.07,-0.18 0.12,-0.31 0.12,-0.43l1.6 0 0 0 0 0z"/>
   <polygon class="fil1" points="42.48,48.88 42.48,44.09 40.69,44.09 40.69,42.81 45.85,42.81 45.85,44.09 44.06,44.09 44.06,48.88 "/>
   <polygon class="fil1" points="52.12,48.88 50.53,48.88 50.53,46.49 48.29,46.49 48.29,48.88 46.71,48.88 46.71,42.81 48.29,42.81 48.29,45.2 50.53,45.2 50.53,42.81 52.12,42.81 "/>
   <polygon class="fil1" points="58.93,48.88 57.36,48.88 57.36,45.23 55.21,48.88 53.53,48.88 53.53,42.81 55.1,42.81 55.1,46.46 57.24,42.81 58.93,42.81 "/>
   <polygon class="fil1" points="61.92,48.88 60.34,48.88 60.34,42.81 61.92,42.81 61.92,45.11 63.91,42.81 65.88,42.81 63.72,45.17 65.97,48.88 64.05,48.88 62.58,46.28 61.92,46.96 "/>
  </g>
 </g>
</svg>
