<?xml version="1.0" encoding="UTF-8"?>
<!DOCTYPE svg PUBLIC "-//W3C//DTD SVG 1.1//EN" "http://www.w3.org/Graphics/SVG/1.1/DTD/svg11.dtd">
<!-- Creator: CorelDRAW 2019 (64-Bit) -->
<svg xmlns="http://www.w3.org/2000/svg" xml:space="preserve" width="850px" height="200px" version="1.1" style="shape-rendering:geometricPrecision; text-rendering:geometricPrecision; image-rendering:optimizeQuality; fill-rule:evenodd; clip-rule:evenodd"
viewBox="0 0 850 200"
 xmlns:xlink="http://www.w3.org/1999/xlink">
 <defs>
  <style type="text/css">
   <![CDATA[
    .fil1 {fill:none;fill-rule:nonzero}
    .fil0 {fill:white;fill-rule:nonzero}
   ]]>
  </style>
 </defs>
 <g id="Слой_x0020_1">
  <metadata id="CorelCorpID_0Corel-Layer"/>
  <g id="_2800045914704">
   <g>
    <path class="fil0" d="M577.67 2c-9.31,0 -18.32,4.69 -24.4,11.8 3.63,3.78 5.38,9.28 4.35,15.4 -0.99,6.15 -4.58,11.64 -9.45,15.41 3.71,7.11 11.16,11.79 20.48,11.79 15,0 29.19,-12.16 31.67,-27.2 2.5,-15.02 -7.65,-27.2 -22.65,-27.2z"/>
    <path class="fil0" d="M540.49 8.66c-8,0 -15.72,4.57 -20.22,11.28 1.67,2.43 2.47,5.56 2,8.95 -0.52,3.7 -2.39,7.05 -5.07,9.57 2.27,6.71 8.45,11.3 16.46,11.3 5.24,0 10.36,-1.94 14.52,-5.16 -2.29,-4.37 -3.18,-9.67 -2.23,-15.39 0.94,-5.72 3.58,-11.02 7.32,-15.4 -3.08,-3.21 -7.55,-5.15 -12.78,-5.15z"/>
    <path class="fil1" d="M553.28 13.81c-3.74,4.37 -6.41,9.68 -7.33,15.4 -0.95,5.71 -0.07,11.02 2.21,15.4 4.88,-3.78 8.47,-9.27 9.48,-15.41 1.01,-6.13 -0.76,-11.63 -4.36,-15.39z"/>
    <path class="fil0" d="M510.11 14.79c-7.79,0 -14.96,6.34 -16.02,14.1 -1.04,7.79 4.4,14.07 12.16,14.07 4.08,0 8,-1.73 10.94,-4.5 -0.95,-2.79 -1.2,-5.93 -0.67,-9.26 0.57,-3.33 1.88,-6.48 3.75,-9.26 -2.16,-3.14 -5.8,-5.15 -10.16,-5.15z"/>
    <path class="fil1" d="M520.28 19.94c-1.88,2.78 -3.21,5.94 -3.76,9.25 -0.54,3.34 -0.28,6.49 0.67,9.27 2.68,-2.52 4.56,-5.87 5.09,-9.56 0.44,-3.41 -0.34,-6.54 -2,-8.96z"/>
   </g>
   <path class="fil0" d="M579.18 73.97l-32.61 0c-2.31,0 -3.72,0.89 -4.43,3.22l-25.87 90.54c-2.69,9.12 -6.07,19.57 -8.8,22.9 -3.36,4.12 -2.59,7.08 -0.57,7.24 4.69,0.41 10.45,-0.33 10.45,-0.33 9.9,-1.14 21.4,-5.06 27.62,-11.71 5.44,-5.74 8.16,-13.51 11.35,-24.28l0 -0.03c0.46,-1.5 24.45,-84.17 24.45,-84.17 0.52,-2.12 0.69,-3.38 -1.59,-3.38z"/>
   <path class="fil0" d="M633.21 159.23c22.34,0 35.08,-1.76 40.95,-4.4 6.72,-3.2 13.27,-13.32 15.04,-18.8 0.36,-1.78 -0.33,-2.67 -2.13,-2.67 -5.48,0.36 -17.7,1.07 -36.67,1.07 -20.91,0 -29.23,-0.36 -31.18,-2.13 -1.26,-1.24 -1.26,-3.91 -0.53,-6.19 0.53,-1.62 1.4,-2.32 4.43,-2.32l66.08 0c4.08,0 5.5,-1.23 6.75,-5.14 6.73,-21.62 3.54,-32.25 -1.94,-37.39 -4.97,-4.8 -17.01,-8.5 -41.47,-8.5 -24.11,0 -38.45,3.01 -47.15,8.31 -7.97,5.16 -15.23,15.25 -19.67,31.02 -4.95,17.36 -4.08,30.68 1.6,37.06 5.48,6.21 18.26,10.08 45.89,10.08zm-7.79 -54.76c0.34,-2.3 2.48,-5.31 4.79,-6.73 2.67,-1.6 7.8,-2.31 17,-2.31 9.24,0 14.55,0.71 15.8,1.77 1.2,1.07 0.86,3.73 0.16,6.03 -0.36,0.71 -0.9,1.61 -1.6,2.13 -0.71,0.54 -2.3,0.54 -4.61,0.54l-28.71 0c-2.65,0 -3.02,-0.36 -2.83,-1.43z"/>
   <path class="fil0" d="M330.9 81.26c-4.97,-4.8 -17.02,-8.5 -41.48,-8.5 -24.1,0 -38.44,3.01 -47.12,8.31 -8,5.16 -15.25,15.25 -19.68,31.02 -4.96,17.37 -4.08,30.68 1.59,37.06 5.49,6.21 18.26,10.08 45.89,10.08 22.35,0 35.1,-1.76 40.93,-4.4 6.75,-3.2 13.3,-13.32 15.09,-18.8 0.34,-1.78 -0.36,-2.67 -2.13,-2.67 -5.51,0.36 -17.72,1.07 -36.7,1.07 -20.93,0 -29.23,-0.36 -31.17,-2.13 -1.26,-1.24 -1.26,-3.91 -0.54,-6.19 0.54,-1.62 1.42,-2.32 4.43,-2.32l66.11 0c4.06,0 5.46,-1.22 6.72,-5.14 6.73,-21.62 3.55,-32.25 -1.94,-37.39zm-30.84 21.97c-0.35,0.71 -0.89,1.6 -1.6,2.13 -0.71,0.54 -2.27,0.54 -4.61,0.54l-28.7 0c-2.65,0 -3.01,-0.36 -2.84,-1.43 0.36,-2.3 2.48,-5.32 4.79,-6.73 2.66,-1.6 7.8,-2.31 17.02,-2.31 9.23,0 14.51,0.71 15.75,1.77 1.26,1.07 0.88,3.73 0.19,6.03z"/>
   <path class="fil0" d="M134 73.01c-33.43,0 -62.8,1.58 -79.95,3.17 -2.83,0.36 -4.23,1.08 -4.96,3.71l-21.4 74.67c-0.7,2.12 -0.52,3.54 1.94,3.54l31.32 0c2.48,0 4.62,-1.04 5.29,-3.72l14.33 -49.19c0.73,-2.62 1.42,-3.53 4.26,-3.88 4.43,-0.34 12.21,-0.88 20,-0.88 2.64,0 3.34,0.88 2.28,4.06l-14.49 50.07c-0.72,2.12 -0.53,3.54 2.14,3.54l31.1 0c2.66,0 4.43,-1.04 5.3,-3.72l14.52 -50.24c0.89,-2.3 1.77,-3.71 4.24,-3.71 12.02,0 18.58,0.54 20.15,2.47 1.79,1.78 0.73,6.2 -1.57,13.8l-10.08 35.21c-1.24,4.25 -0.19,6.19 4.05,6.19l29.04 0c2.65,0 4.23,-0.88 4.94,-3.54l11.32 -39.79c5.13,-18.25 3.88,-26.75 -1.41,-32.04 -6.02,-6.19 -21.07,-9.72 -72.36,-9.72z"/>
   <path class="fil0" d="M517.14 114.77c5.15,-18.26 3.92,-26.8 -1.41,-32.1 -6.02,-6.21 -21.09,-9.73 -72.49,-9.73 -20,0 -39.87,0.46 -55,3.08 -4.23,0.7 -7.71,1.54 -10.64,2.45 -5.19,1.6 -9.35,3.63 -12.14,6.27 -6.95,5.43 -12.28,13.96 -17.04,30.03l-11.46 38.96 -0.23 0.91c-0.72,2.11 -0.53,3.55 1.95,3.55l31.38 0c2.46,0 4.61,-1.06 5.31,-3.75l14.35 -49.27c0.72,-2.65 1.41,-3.54 4.24,-3.88 4.45,-0.36 12.23,-0.9 20.04,-0.9 2.66,0 3.37,0.9 2.31,4.08l-14.52 50.17c-0.71,2.11 -0.54,3.55 2.09,3.55l31.21 0c2.67,0 4.43,-1.06 5.32,-3.75l14.54 -50.32c0.88,-2.3 1.77,-3.73 4.25,-3.73 12.05,0 18.6,0.54 20.21,2.47 1.76,1.77 0.71,6.23 -1.61,13.84l-10.08 35.28c-1.26,4.28 -0.19,6.21 4.08,6.21l29.05 0c2.67,0 4.26,-0.9 4.96,-3.55l11.33 -39.87z"/>
   <path class="fil0" d="M789.33 132.3c-3.03,0 -12.22,0.89 -21.78,0.89 -12.43,0 -19.12,-0.71 -20.74,-2.31 -1.42,-1.42 -1.24,-4.6 0.89,-11.88l3.36 -11.53c1.76,-5.84 2.65,-7.42 10.62,-7.42l19.68 0c7.8,0 10.63,-0.36 13.29,-1.78 4.45,-2.31 12.22,-13.13 15.23,-21.07 0.37,-1.43 0,-3.23 -2.28,-3.23l-37.41 0c-8.51,0 -9.4,-0.68 -6.57,-10.07l3.03 -11c0.7,-2.12 -0.7,-2.66 -2.3,-2.48 -17.2,1.59 -29.94,5.32 -34.38,8.34 -2.84,1.94 -4.78,5.31 -7.09,13.3l-12.76 44.79c-5.14,18.82 -5.14,27.32 -0.71,32.83 4.62,5.68 15.42,9.4 38.29,9.4 14.16,0 24.98,-1.08 29.23,-3.91 5.69,-3.54 12.58,-13.66 14.37,-20.38 0.5,-1.78 -0.37,-2.66 -1.97,-2.49z"/>
   <path class="fil0" d="M822.67 148.52c0,6.36 -5.1,11.39 -11.59,11.39 -6.48,0 -11.67,-5.03 -11.67,-11.39 0,-6.36 5.19,-11.32 11.74,-11.32 6.42,0 11.52,4.96 11.52,11.32zm-20.35 0c0,5.04 3.79,9.05 8.83,9.05 4.9,0.06 8.63,-4.01 8.63,-8.98 0,-5.04 -3.73,-9.11 -8.77,-9.11 -4.9,0 -8.69,4.07 -8.69,9.04zm6.96 5.87l-2.61 0 0 -11.32c1.03,-0.15 2.47,-0.34 4.34,-0.34 2.14,0 3.1,0.34 3.86,0.89 0.7,0.49 1.18,1.32 1.18,2.41 0,1.39 -1.03,2.28 -2.35,2.7l0 0.13c1.1,0.36 1.66,1.25 2,2.77 0.35,1.73 0.63,2.34 0.83,2.76l-2.76 0c-0.34,-0.42 -0.55,-1.39 -0.89,-2.76 -0.22,-1.18 -0.9,-1.72 -2.35,-1.72l-1.25 0 0 4.48zm0.07 -6.35l1.24 0c1.45,0 2.63,-0.49 2.63,-1.66 0,-1.03 -0.76,-1.72 -2.41,-1.72 -0.69,0 -1.18,0.07 -1.46,0.14l0 3.24z"/>
  </g>
 </g>
</svg>
