<?xml version="1.0" encoding="UTF-8"?>
<!DOCTYPE svg PUBLIC "-//W3C//DTD SVG 1.1//EN" "http://www.w3.org/Graphics/SVG/1.1/DTD/svg11.dtd">
<!-- Creator: CorelDRAW 2019 (64-Bit) -->
<svg xmlns="http://www.w3.org/2000/svg" xml:space="preserve" width="480px" height="200px" version="1.1" style="shape-rendering:geometricPrecision; text-rendering:geometricPrecision; image-rendering:optimizeQuality; fill-rule:evenodd; clip-rule:evenodd"
viewBox="0 0 480 200"
 xmlns:xlink="http://www.w3.org/1999/xlink">
 <defs>
  <style type="text/css">
   <![CDATA[
    .fil1 {fill:white}
    .fil0 {fill:white;fill-rule:nonzero}
   ]]>
  </style>
 </defs>
 <g id="Слой_x0020_1">
  <metadata id="CorelCorpID_0Corel-Layer"/>
  <g id="_2799629986704">
   <path class="fil0" d="M407.5 96.11c-0.14,13 -5.05,23.12 -14.72,30.39 -9.67,7.26 -23.21,10.95 -40.63,11.06 -11.45,0.05 -21.73,-1.59 -30.86,-4.9 -9.13,-3.31 -17,-8.55 -23.59,-15.72 -1.01,-1.2 -1.78,-2.5 -2.3,-3.9 -0.53,-1.41 -0.8,-2.85 -0.8,-4.32 0.07,-3.71 1.25,-6.67 3.56,-8.87 2.3,-2.19 5.32,-3.32 9.03,-3.38 1.1,-0.03 2.34,0.22 3.7,0.76 1.37,0.54 2.88,1.56 4.52,3.08 5.6,5.29 11.35,9.24 17.27,11.83 5.92,2.6 12.41,3.9 19.47,3.89 9.06,-0.14 16.17,-2.01 21.34,-5.6 5.17,-3.59 7.81,-8.06 7.91,-13.41 0.12,-4.02 -1.41,-7.44 -4.6,-10.26 -3.18,-2.81 -8.79,-4.99 -16.79,-6.55 -3.72,-0.64 -8.07,-1.33 -13.05,-2.08 -4.98,-0.75 -9.65,-1.58 -14.01,-2.49 -12.44,-2.9 -21.53,-7.47 -27.28,-13.73 -5.75,-6.26 -8.58,-13.8 -8.52,-22.64 0.19,-11.13 5.11,-20.05 14.77,-26.75 9.67,-6.71 22.95,-10.14 39.86,-10.32 8.67,0.03 16.75,1.12 24.24,3.26 7.5,2.15 13.97,5.2 19.44,9.15 2.34,1.68 4,3.48 4.97,5.43 0.97,1.95 1.44,3.85 1.41,5.71 -0.09,3.09 -1.18,5.64 -3.28,7.65 -2.1,2.01 -4.66,3.06 -7.67,3.13 -1.67,0 -3.22,-0.32 -4.63,-0.98 -1.42,-0.66 -3.1,-1.67 -5.05,-3.04 -3.5,-2.46 -7.65,-4.58 -12.45,-6.35 -4.8,-1.77 -10.1,-2.71 -15.88,-2.79 -10.93,0.21 -18.69,1.94 -23.29,5.19 -4.59,3.25 -6.83,6.76 -6.69,10.53 -0.05,3.31 1.19,6.19 3.7,8.61 2.51,2.43 6.58,4.25 12.2,5.46 2.43,0.51 5.8,1.13 10.12,1.87l12.67 2.11 9.02 1.5c12.17,2.1 21.35,6.27 27.55,12.5 6.21,6.23 9.32,14.56 9.34,24.97l0 0z"/>
   <path class="fil0" d="M268.94 16.78c1.14,0.97 2.31,2.03 3.41,3.19 0.77,0.81 1.49,1.67 2.23,2.58 1.82,2.22 2.95,4.49 3.37,6.83 0.37,3.32 -0.33,6.13 -2.11,8.41 -1.79,2.29 -4.12,3.66 -7.01,4.12 -3.86,0.41 -6.91,-0.46 -9.16,-2.63 -1.02,-0.98 -2.14,-1.98 -3.37,-3.09 -1.49,-1.34 -3.14,-2.83 -4.94,-4.37 -2.74,-2.17 -5.32,-3.6 -8.13,-4.75 -4.77,-1.95 -10.68,-2.94 -17.73,-2.97 -12.18,0.3 -22.03,4.69 -29.53,13.19 -7.51,8.49 -11.37,19.32 -11.58,32.5 0.06,8.68 1.84,16.5 5.34,23.44 3.49,6.94 8.32,12.45 14.47,16.54 6.16,4.08 13.26,6.16 21.3,6.26 5.38,-0.11 10.09,-0.9 14.13,-2.38 4.36,-2.05 8.03,-4.15 11.03,-6.62 3.35,-2.76 6.01,-5.12 7.99,-7.1 1.34,-1.23 2.8,-2.13 4.36,-2.71 1.56,-0.58 3.25,-0.77 5.06,-0.56 3.16,0.46 5.68,1.84 7.55,4.15 1.87,2.32 2.64,5.15 2.31,8.48 -0.14,1.29 -0.47,2.6 -0.98,3.93 -0.52,1.33 -1.3,2.59 -2.35,3.76 -6.94,7.77 -15.31,13.42 -25.12,16.95 -4.1,1.47 -8.34,2.52 -12.73,3.15 -3.61,0.36 -7.37,0.64 -11.25,0.67 -12.44,-0.14 -23.69,-3.23 -33.74,-9.26 -10.04,-6.02 -18.04,-14.14 -23.99,-24.35 -5.94,-10.21 -8.99,-21.66 -9.13,-34.35 0.14,-12.69 3.17,-24.12 9.09,-34.3 5.93,-10.18 13.91,-18.27 23.95,-24.27 10.04,-6 21.32,-9.06 33.82,-9.2 0.41,-0.01 0.81,-0.02 1.22,-0.02l0.31 0c6.09,0.01 13,1.06 20.72,3.17 5.76,1.57 11.29,4.24 16.57,8.01 0,0 2.68,1.98 4.62,3.6l0 0z"/>
   <path class="fil0" d="M109.17 37.53c7.5,8.49 11.36,19.3 11.58,32.46 -0.22,13.15 -4.08,23.96 -11.58,32.45 -5.96,6.74 -11.98,10.56 -21.45,13.13 -5.3,1.14 -8.73,5.68 -8.73,10.81 0,6.1 4.95,11.05 11.06,11.05 0.63,0 1.25,-0.04 1.85,-0.14 8.25,-1.48 14.51,-4.59 21.56,-8.8 10.04,-6 18.02,-14.08 23.94,-24.27 5.92,-10.16 8.95,-21.57 9.09,-34.23 -0.14,-12.67 -3.17,-24.09 -9.09,-34.25 -5.92,-10.18 -13.9,-18.27 -23.94,-24.27 -7.05,-4.2 -13.31,-7.31 -21.56,-8.79 -0.6,-0.11 -1.22,-0.14 -1.85,-0.14 -6.11,0 -11.06,4.95 -11.06,11.05 0,5.12 3.43,9.68 8.73,10.82 9.47,2.57 15.49,6.38 21.45,13.12l0 0z"/>
   <path class="fil0" d="M40.07 37.53c-7.5,8.49 -11.36,19.3 -11.58,32.46 0.22,13.15 4.08,23.96 11.58,32.45 5.96,6.74 11.98,10.56 21.45,13.13 5.29,1.14 8.73,5.68 8.73,10.81 0,6.1 -4.95,11.05 -11.06,11.05 -0.63,0 -1.25,-0.04 -1.85,-0.14 -8.26,-1.48 -14.52,-4.59 -21.56,-8.8 -10.04,-6 -18.02,-14.08 -23.95,-24.27 -5.91,-10.16 -8.94,-21.57 -9.09,-34.23 0.15,-12.67 3.18,-24.09 9.09,-34.25 5.93,-10.18 13.91,-18.27 23.95,-24.27 7.04,-4.2 13.3,-7.31 21.56,-8.79 0.6,-0.11 1.22,-0.14 1.85,-0.14 6.11,0 11.06,4.95 11.06,11.05 0,5.12 -3.43,9.68 -8.73,10.82 -9.47,2.57 -15.49,6.38 -21.45,13.12l0 0z"/>
   <path class="fil1" d="M91.24 169.8l0 20.07 2.1 0c3.14,0 5.55,-0.82 7.22,-2.46 1.66,-1.65 2.49,-4.17 2.49,-7.57 0,-3.4 -0.83,-5.92 -2.49,-7.57 -1.67,-1.64 -4.13,-2.47 -7.39,-2.47l-1.93 0 0 0zm-8.91 27.48l0 -34.94 12.02 0c2.48,0 4.79,0.31 6.96,0.94 2.17,0.63 4.05,1.63 5.66,3.01 1.62,1.37 2.88,3.17 3.82,5.39 0.93,2.22 1.39,4.9 1.39,8.05 0,3.18 -0.47,5.88 -1.42,8.1 -0.95,2.22 -2.24,4.03 -3.87,5.42 -1.63,1.4 -3.55,2.42 -5.77,3.06 -2.22,0.65 -4.58,0.97 -7.09,0.97l-11.7 0 0 0z"/>
   <polygon class="fil0" points="122.13,162.31 131.05,162.31 131.05,197.25 122.13,197.25 "/>
   <path class="fil0" d="M155.38 161.72c2.47,0 4.83,0.39 7.09,1.18 2.26,0.78 4.22,1.91 5.91,3.38l-4.78 6.33c-1.54,-1.25 -3.06,-2.13 -4.54,-2.63 -1.49,-0.5 -2.87,-0.75 -4.16,-0.75 -1.4,0 -2.39,0.29 -2.98,0.86 -0.59,0.58 -0.89,1.22 -0.89,1.93 0,0.51 0.14,0.91 0.43,1.24 0.29,0.32 0.69,0.61 1.21,0.88 0.52,0.27 1.12,0.51 1.8,0.73 0.68,0.21 1.41,0.43 2.2,0.64 1.32,0.36 2.73,0.78 4.22,1.26 1.48,0.48 2.85,1.15 4.1,1.99 1.26,0.84 2.3,1.9 3.15,3.19 0.84,1.29 1.26,2.93 1.26,4.94 0,1.9 -0.37,3.53 -1.11,4.91 -0.73,1.38 -1.73,2.53 -3,3.46 -1.27,0.93 -2.78,1.62 -4.51,2.07 -1.74,0.45 -3.59,0.67 -5.56,0.67 -2.76,0 -5.42,-0.47 -7.98,-1.4 -2.55,-0.93 -4.69,-2.22 -6.41,-3.86l4.99 -6.17c1.54,1.32 3.16,2.29 4.86,2.9 1.7,0.6 3.25,0.91 4.65,0.91 1.65,0 2.87,-0.29 3.68,-0.86 0.8,-0.57 1.2,-1.32 1.2,-2.26 0,-0.42 -0.09,-0.81 -0.29,-1.15 -0.2,-0.34 -0.52,-0.65 -0.97,-0.94 -0.45,-0.29 -1.06,-0.56 -1.85,-0.83 -0.79,-0.27 -1.77,-0.56 -2.95,-0.88 -1.9,-0.51 -3.59,-1.05 -5.08,-1.64 -1.48,-0.59 -2.76,-1.3 -3.81,-2.12 -1.06,-0.83 -1.86,-1.82 -2.42,-2.98 -0.55,-1.16 -0.83,-2.57 -0.83,-4.22 0,-1.78 0.37,-3.35 1.1,-4.69 0.74,-1.34 1.72,-2.47 2.95,-3.38 1.24,-0.91 2.66,-1.6 4.27,-2.04 1.61,-0.45 3.3,-0.67 5.05,-0.67l0 0z"/>
   <polygon class="fil0" points="195.1,197.23 186.24,197.23 186.24,169.7 176.25,169.7 176.25,162.29 205.09,162.29 205.09,169.7 195.1,169.7 "/>
   <path class="fil1" d="M222.07 169.68l0 7.88 6.02 0c1.43,0 2.56,-0.33 3.38,-0.99 0.82,-0.66 1.23,-1.67 1.23,-3.03 0,-1.33 -0.43,-2.3 -1.31,-2.93 -0.88,-0.62 -1.96,-0.93 -3.25,-0.93l-6.07 0 0 0zm19.76 3.91c0,2.61 -0.57,4.76 -1.72,6.44 -1.14,1.68 -2.69,2.92 -4.66,3.71l6.28 13.46 -9.18 0 -5.21 -12.28 -5.27 0 0 12.28 -8.8 0 0 -34.93 16.16 0c1.79,0 3.45,0.23 4.97,0.7 1.52,0.46 2.82,1.16 3.92,2.09 1.09,0.93 1.95,2.1 2.57,3.51 0.63,1.42 0.94,3.09 0.94,5.02l0 0z"/>
   <polygon class="fil0" points="252.19,162.24 261.11,162.24 261.11,197.18 252.19,197.18 "/>
   <path class="fil1" d="M281.38 182.24l0 7.51 6.24 0c1.42,0 2.55,-0.3 3.35,-0.91 0.81,-0.61 1.21,-1.59 1.21,-2.95 0,-1.33 -0.47,-2.27 -1.4,-2.82 -0.93,-0.56 -2,-0.83 -3.22,-0.83l-6.18 0 0 0zm0 -12.61l0 5.58 5.96 0c1.15,0 2.05,-0.24 2.69,-0.7 0.64,-0.47 0.97,-1.17 0.97,-2.1 0,-1.85 -1.15,-2.78 -3.44,-2.78l-6.18 0 0 0zm13.81 8.58c0.78,0.25 1.55,0.63 2.3,1.13 0.76,0.5 1.42,1.11 1.99,1.82 0.57,0.72 1.03,1.52 1.37,2.39 0.34,0.88 0.51,1.82 0.51,2.82 0,3.4 -1.08,6.05 -3.25,7.94 -2.16,1.9 -5.27,2.84 -9.31,2.84l-16.28 0 0 -34.93 16.44 0c3.39,0 6.09,0.74 8.08,2.23 1.98,1.48 2.98,3.67 2.98,6.57 0,1.68 -0.49,3.15 -1.45,4.4 -0.97,1.25 -2.1,2.13 -3.38,2.63l0 0.16z"/>
   <path class="fil0" d="M326.21 197.62c-2.26,0 -4.31,-0.32 -6.15,-0.97 -1.84,-0.64 -3.41,-1.61 -4.7,-2.89 -1.29,-1.29 -2.29,-2.89 -3.01,-4.81 -0.71,-1.91 -1.07,-4.16 -1.07,-6.73l0 -20.07 8.86 0 0 19.6c0,2.61 0.53,4.61 1.58,6 1.06,1.39 2.59,2.09 4.59,2.09 2.05,0 3.57,-0.67 4.59,-2.01 1.03,-1.34 1.53,-3.29 1.53,-5.87l0 -19.81 8.92 0 0 20.07c0,2.57 -0.37,4.83 -1.1,6.76 -0.73,1.93 -1.76,3.54 -3.09,4.83 -1.32,1.29 -2.92,2.24 -4.78,2.87 -1.86,0.63 -3.92,0.94 -6.17,0.94l0 0z"/>
   <polygon class="fil0" points="368.47,197.13 359.61,197.13 359.61,169.6 349.63,169.6 349.63,162.19 378.46,162.19 378.46,169.6 368.47,169.6 "/>
   <polygon class="fil0" points="387.23,162.17 396.14,162.17 396.14,197.11 387.23,197.11 "/>
   <path class="fil1" d="M422.06 169.53c-1.18,0 -2.2,0.27 -3.04,0.8 -0.84,0.54 -1.54,1.26 -2.09,2.18 -0.55,0.91 -0.97,1.98 -1.24,3.22 -0.26,1.23 -0.4,2.57 -0.4,4 0,1.5 0.14,2.89 0.43,4.16 0.28,1.27 0.72,2.37 1.29,3.3 0.57,0.92 1.29,1.65 2.15,2.17 0.86,0.52 1.86,0.78 3,0.78 1.15,0 2.15,-0.28 3.01,-0.83 0.86,-0.56 1.57,-1.31 2.13,-2.26 0.55,-0.95 0.96,-2.05 1.22,-3.3 0.28,-1.25 0.41,-2.58 0.41,-3.97 0,-1.47 -0.13,-2.83 -0.41,-4.08 -0.26,-1.25 -0.68,-2.33 -1.25,-3.25 -0.58,-0.91 -1.29,-1.62 -2.15,-2.14 -0.86,-0.52 -1.88,-0.78 -3.06,-0.78l0 0zm0 28.39c-2.65,0 -4.97,-0.44 -6.96,-1.31 -1.99,-0.88 -3.64,-2.12 -4.96,-3.71 -1.33,-1.59 -2.32,-3.49 -2.98,-5.69 -0.67,-2.2 -1,-4.62 -1,-7.27 0,-2.68 0.33,-5.14 1,-7.38 0.66,-2.23 1.66,-4.16 3.01,-5.77 1.33,-1.61 3.01,-2.85 5.02,-3.73 2,-0.87 4.32,-1.31 6.97,-1.31 2.58,0 4.86,0.43 6.85,1.29 1.98,0.86 3.65,2.08 4.99,3.67 1.35,1.59 2.37,3.51 3.06,5.74 0.7,2.24 1.05,4.72 1.05,7.44 0,2.75 -0.35,5.24 -1.05,7.46 -0.69,2.21 -1.72,4.1 -3.08,5.66 -1.36,1.56 -3.04,2.76 -5.02,3.62 -1.99,0.86 -4.29,1.29 -6.9,1.29l0 0z"/>
   <path class="fil0" d="M460.88 184.58l-5.42 -8.26 -0.17 0 0 20.76 -8.7 0 0 -34.93 8.17 0 7.62 11.05c0.25,0.36 0.66,0.96 1.21,1.8 0.55,0.84 1.15,1.73 1.77,2.68 0.63,0.95 1.22,1.85 1.77,2.71 0.56,0.86 0.96,1.47 1.21,1.83l0.17 0 0 -20.07 8.75 0 0 34.93 -7.74 0 -8.64 -12.5 0 0z"/>
  </g>
 </g>
</svg>
