<?xml version="1.0" encoding="UTF-8"?>
<!DOCTYPE svg PUBLIC "-//W3C//DTD SVG 1.1//EN" "http://www.w3.org/Graphics/SVG/1.1/DTD/svg11.dtd">
<!-- Creator: CorelDRAW 2019 (64-Bit) -->
<svg xmlns="http://www.w3.org/2000/svg" xml:space="preserve" width="65px" height="65px" version="1.1" style="shape-rendering:geometricPrecision; text-rendering:geometricPrecision; image-rendering:optimizeQuality; fill-rule:evenodd; clip-rule:evenodd"
viewBox="0 0 65 65"
 xmlns:xlink="http://www.w3.org/1999/xlink">
 <defs>
  <style type="text/css">
   <![CDATA[
    .str0 {stroke:#FEFEFE;stroke-width:2.97;stroke-miterlimit:22.9256}
    .fil1 {fill:none}
    .fil3 {fill:#197BBC}
    .fil2 {fill:#E33938}
    .fil0 {fill:#FEFEFE}
   ]]>
  </style>
 </defs>
 <g id="Слой_x0020_1">
  <metadata id="CorelCorpID_0Corel-Layer"/>
  <g id="_2483485426432">
   <polygon class="fil0" points="11.04,45.6 25.01,4.24 35.35,4.26 21.37,45.62 "/>
   <polygon class="fil1 str0" points="11.04,45.6 25.01,4.24 35.35,4.26 21.37,45.62 "/>
   <polygon class="fil2" points="54.14,15.85 42.91,15.83 28.65,58.04 39.88,58.06 "/>
   <path class="fil3" d="M45.15 9.84l0 0 -14.26 42.21 -11.23 -0.02 1.87 -5.56 -11.08 -0.02 -0.58 0 0.19 -0.55 14.25 -42.21 0.09 -0.3 0.31 0 11.22 0.02 0.59 0 -0.17 0.55 -1.99 5.86 10.79 0.02 0 0zm-9.8 -5.6l-10.34 0 -13.97 41.36 10.33 0.02 13.98 -41.38z"/>
   <polygon class="fil0" points="8.87,24.19 60.61,24.19 56.13,37.61 4.38,37.61 "/>
   <polygon class="fil3" points="34.72,24.98 46.76,24.98 42.79,36.82 30.76,36.82 "/>
   <polygon class="fil3" points="22.02,24.98 34.05,24.98 30.09,36.82 18.05,36.82 "/>
   <polygon class="fil3" points="9.44,24.98 21.48,24.98 17.51,36.82 5.49,36.82 "/>
   <path class="fil0" d="M32.44 26.02l-0.6 1.71c-4.55,-0.16 -6.96,0.19 -7.79,3.05 -0.92,3.06 1.91,3.34 5.76,3.28l-0.64 1.8c-6.31,0.17 -9.76,-0.3 -8.15,-5.09 1.77,-5.26 5.22,-4.75 11.42,-4.75l0 0z"/>
   <polygon class="fil3" points="47.49,24.98 59.52,24.98 55.56,36.82 43.52,36.82 "/>
   <polygon class="fil0" points="35.51,26.02 32.02,35.87 35.35,35.87 38.06,27.76 41.43,27.76 38.64,35.87 41.97,35.87 45.32,26.02 "/>
   <polygon class="fil0" points="48.25,26.02 44.77,35.87 48.1,35.87 50.8,27.73 54.18,27.74 51.39,35.87 54.72,35.87 58.07,26.02 "/>
   <path class="fil0" d="M11.91 30.83l0 0 1.1 -3.17c1.67,-0.08 2.54,0.26 2.63,1.31 -0.04,1.62 -1.37,1.94 -3.73,1.86l0 0zm-1.55 -4.81l-3.42 9.85 3.25 0 1.05 -3.08c4.91,0.01 7.03,-0.09 7.47,-3.37 0.35,-2.51 -0.98,-3.46 -5.13,-3.4l-3.22 0 0 0z"/>
  </g>
 </g>
</svg>
