<?xml version="1.0" encoding="UTF-8"?>
<!DOCTYPE svg PUBLIC "-//W3C//DTD SVG 1.1//EN" "http://www.w3.org/Graphics/SVG/1.1/DTD/svg11.dtd">
<!-- Creator: CorelDRAW 2019 (64-Bit) -->
<svg xmlns="http://www.w3.org/2000/svg" xml:space="preserve" width="705px" height="200px" version="1.1" style="shape-rendering:geometricPrecision; text-rendering:geometricPrecision; image-rendering:optimizeQuality; fill-rule:evenodd; clip-rule:evenodd"
viewBox="0 0 705 200"
 xmlns:xlink="http://www.w3.org/1999/xlink">
 <defs>
  <style type="text/css">
   <![CDATA[
    .fil1 {fill:#FEFEFE}
    .fil0 {fill:#FEFEFE;fill-rule:nonzero}
   ]]>
  </style>
 </defs>
 <g id="Слой_x0020_1">
  <metadata id="CorelCorpID_0Corel-Layer"/>
  <g id="_2799268891120">
   <polygon class="fil0" points="251.96,108.08 227.04,43.58 242.71,43.58 260.6,93.19 278.39,43.58 294.06,43.58 269.18,108.08 "/>
   <path class="fil0" d="M299.71 108.08l0 -46.71 12.29 0 0 46.71 -12.29 0zm-1.26 -59.09c0,-4.05 3.29,-7.34 7.35,-7.34 4.06,0 7.35,3.29 7.35,7.34 0,4.06 -3.29,7.35 -7.34,7.35 -4.06,0.01 -7.35,-3.28 -7.36,-7.34l0 -0.01z"/>
   <path class="fil0" d="M320.14 101.98l5.32 -8.6c3.39,3.19 10.34,6.36 16.15,6.36 5.32,0 7.83,-2.12 7.83,-5.02 0,-7.74 -27.75,-1.42 -27.75,-19.8 0,-7.84 6.87,-14.7 19.15,-14.7 6.83,-0.11 13.49,2.14 18.86,6.36l-4.95 8.42c-2.83,-3 -8.13,-5.42 -13.83,-5.42 -4.45,0 -7.35,2.03 -7.35,4.64 0,6.96 27.65,1.16 27.65,20.02 0,8.48 -7.25,14.99 -20.2,14.99 -8.11,-0.01 -15.95,-2.7 -20.88,-7.25z"/>
   <path class="fil0" d="M370.33 108.08l0 -46.71 12.27 0 0 46.71 -12.27 0zm-1.26 -59.09c0,-4.05 3.29,-7.34 7.35,-7.34 4.06,0 7.35,3.29 7.35,7.34 0,4.06 -3.29,7.35 -7.35,7.35 -4.06,0 -7.35,-3.29 -7.35,-7.35z"/>
   <path class="fil0" d="M428.44 84.68c0,-7.26 -4.35,-13.55 -12.02,-13.55 -7.66,0 -11.9,6.27 -11.9,13.55 0,7.27 4.24,13.63 11.9,13.63 7.65,0 12.02,-6.28 12.02,-13.63l0 0zm-36.65 0c0,-13.26 9.29,-24.47 24.67,-24.47 15.38,0 24.75,11.21 24.75,24.47 0,13.25 -9.29,24.54 -24.75,24.54 -15.46,0 -24.67,-11.19 -24.67,-24.54z"/>
   <path class="fil0" d="M481.84 108.08l0 -28.23c0,-6.48 -3.39,-8.71 -8.61,-8.71 -4.21,0.06 -8.14,2.1 -10.61,5.52l0 31.43 -12.31 0 0 -46.72 12.28 0 0 6.09c4.13,-4.68 10.09,-7.33 16.34,-7.25 10.25,0 15.18,5.8 15.18,14.89l0 32.98 -12.27 0z"/>
   <polygon class="fil0" points="506.59,108.08 506.59,43.58 520.32,43.58 520.32,96 547.6,96 547.6,108.09 "/>
   <path class="fil0" d="M584.25 96.87l0 -5.81c-2.03,-2.71 -5.9,-4.06 -9.87,-4.06 -4.83,0 -8.8,2.52 -8.8,7.07 0,4.35 3.97,6.87 8.8,6.87 3.97,-0.01 7.84,-1.37 9.87,-4.07zm0 11.21l0 -4.84c-3.19,3.77 -8.71,6 -14.79,6 -7.45,0 -16.27,-5.03 -16.27,-15.47 0,-10.93 8.81,-15.09 16.27,-15.09 6.18,0 11.7,2.03 14.79,5.71l0 -6.28c0,-4.74 -4.06,-7.84 -10.26,-7.84 -5.08,0 -9.97,1.98 -13.63,5.52l-4.64 -8.23c5.68,-4.86 12.94,-7.48 20.41,-7.35 10.61,0 20.41,4.24 20.41,17.68l0 30.17 -12.29 0.02z"/>
   <path class="fil0" d="M631.5 98.32c7.16,0 11.9,-5.42 11.9,-13.55 0,-8.12 -4.72,-13.63 -11.9,-13.63 -3.96,0 -8.48,2.32 -10.54,5.42l0 16.54c2.06,2.99 6.61,5.22 10.54,5.22zm-22.78 9.76l0 -64.5 12.28 0 0 23.79c3.41,-4.53 8.75,-7.18 14.41,-7.16 11.9,0 20.7,9.28 20.7,24.56 0,15.56 -8.89,24.47 -20.7,24.47 -5.65,-0.01 -10.98,-2.65 -14.41,-7.16l0 6 -12.28 0z"/>
   <path class="fil0" d="M661.33 101.98l5.32 -8.6c3.38,3.19 10.34,6.36 16.15,6.36 5.32,0 7.83,-2.12 7.83,-5.02 0,-7.74 -27.75,-1.42 -27.75,-19.8 0,-7.84 6.87,-14.7 19.15,-14.7 6.83,-0.11 13.48,2.14 18.86,6.36l-4.95 8.42c-2.83,-3 -8.13,-5.42 -13.83,-5.42 -4.45,0 -7.35,2.03 -7.35,4.64 0,6.89 27.06,1.29 27.65,19.41l0 1.22c-0.34,8.18 -7.56,14.38 -20.2,14.38 -8.12,-0.01 -15.95,-2.7 -20.88,-7.25z"/>
   <polygon class="fil0" points="265.56,162.25 265.56,145.73 258.7,162.25 257.03,162.25 250.2,145.69 250.2,162.25 246.29,162.25 246.29,139.97 251.79,139.97 257.84,154.66 263.93,139.97 269.46,139.97 269.46,162.25 "/>
   <path class="fil0" d="M292.4 143.87l-4.02 10.6 8.03 0 -4.01 -10.6zm6.76 18.38l-1.61 -4.24 -10.22 0 -1.63 4.24 -4.45 0 8.72 -22.28 4.89 0 8.78 22.28 -4.48 0z"/>
   <path class="fil0" d="M313.3 151.14c0,-6.85 5.12,-11.54 11.71,-11.54 3.68,-0.09 7.12,1.84 8.97,5.03l-3.34 1.7c-1.18,-1.99 -3.31,-3.22 -5.63,-3.25 -4.41,0 -7.69,3.38 -7.69,8.06 0,4.68 3.28,8.07 7.69,8.07 2.32,-0.02 4.45,-1.25 5.63,-3.25l3.34 1.7c-1.86,3.18 -5.29,5.1 -8.97,5.02 -6.6,0 -11.71,-4.67 -11.71,-11.54z"/>
   <polygon class="fil0" points="361.99,162.25 361.99,152.55 350.38,152.55 350.38,162.25 346.47,162.25 346.47,139.97 350.38,139.97 350.38,149.1 361.98,149.1 361.98,139.97 365.89,139.97 365.89,162.25 "/>
   <polygon class="fil0" points="380.01,162.25 383.92,162.25 383.92,139.97 380.01,139.97 "/>
   <polygon class="fil0" points="413.59,162.25 401.96,146.33 401.96,162.25 398.04,162.25 398.04,139.97 402.06,139.97 413.47,155.46 413.47,139.97 417.38,139.97 417.38,162.25 "/>
   <polygon class="fil0" points="431.49,162.25 431.49,139.97 446.78,139.97 446.78,143.42 435.4,143.42 435.4,149.2 446.54,149.2 446.54,152.64 435.4,152.64 435.4,158.83 446.77,158.83 446.77,162.25 "/>
   <path class="fil0" d="M458.71 159.14l2.17 -3.01c1.83,1.96 4.39,3.08 7.08,3.08 3.21,0 4.48,-1.57 4.48,-3.05 0,-4.68 -13.01,-1.77 -13.01,-9.99 0,-3.68 3.24,-6.52 8.12,-6.52 3.09,-0.12 6.11,1 8.37,3.11l-2.24 2.91c-1.73,-1.67 -4.06,-2.58 -6.46,-2.54 -2.3,0 -3.78,1.11 -3.78,2.78 0,4.15 12.98,1.57 12.98,9.9 0,3.71 -2.61,6.89 -8.63,6.89 -4.13,-0.02 -7.1,-1.45 -9.08,-3.56z"/>
   <path class="fil0" d="M506.35 151.14c0,-6.85 5.12,-11.54 11.7,-11.54 3.69,-0.09 7.12,1.84 8.97,5.03l-3.34 1.7c-1.18,-1.99 -3.31,-3.22 -5.63,-3.25 -4.41,0 -7.69,3.38 -7.69,8.06 0,4.68 3.28,8.07 7.69,8.07 2.32,-0.02 4.45,-1.25 5.63,-3.25l3.34 1.7c-1.86,3.18 -5.29,5.1 -8.97,5.02 -6.59,0 -11.7,-4.67 -11.7,-11.54z"/>
   <path class="fil0" d="M548.22 143.87l-4.02 10.6 8.03 0 -4.01 -10.6zm6.75 18.38l-1.64 -4.24 -10.21 0 -1.65 4.24 -4.44 0 8.76 -22.31 4.88 0 8.71 22.31 -4.41 0z"/>
   <polygon class="fil0" points="586.78,162.25 575.14,146.33 575.14,162.25 571.23,162.25 571.23,139.97 575.25,139.97 586.65,155.46 586.65,139.97 590.56,139.97 590.56,162.25 "/>
   <path class="fil0" d="M621.19 159.14l2.18 -3.01c1.82,1.96 4.38,3.08 7.07,3.08 3.21,0 4.48,-1.57 4.48,-3.05 0,-4.68 -13.01,-1.77 -13.01,-9.99 0,-3.68 3.24,-6.52 8.12,-6.52 3.09,-0.12 6.11,1 8.37,3.11l-2.24 2.91c-1.73,-1.67 -4.06,-2.58 -6.46,-2.54 -2.3,0 -3.78,1.11 -3.78,2.78 0,4.15 12.98,1.57 12.98,9.9 0,3.71 -2.61,6.89 -8.63,6.89 -4.13,-0.02 -7.1,-1.45 -9.08,-3.56z"/>
   <polygon class="fil0" points="651.87,162.25 651.87,139.97 667.16,139.97 667.16,143.42 655.78,143.42 655.78,149.2 666.92,149.2 666.92,152.64 655.78,152.64 655.78,158.83 667.15,158.83 667.15,162.25 "/>
   <polygon class="fil0" points="680.53,162.25 680.53,139.97 695.85,139.97 695.85,143.42 684.45,143.42 684.45,149.2 695.58,149.2 695.58,152.64 684.45,152.64 684.45,158.83 695.85,158.83 695.85,162.25 "/>
   <g>
    <path class="fil1" d="M168.5 133.7c0.4,-6.76 -0.79,-22.33 -6.24,-26.21 -11.93,16.22 -21.99,26.79 -42.2,31.95 -6.3,1.61 -18.5,2.3 -28.74,1.38 -21.77,-1.95 -41.86,-16.64 -53.07,-35.03 -7.18,-11.78 -11.37,-26.42 -10.41,-40.91 0.41,-6.17 1.66,-9.91 2.36,-15.13 4.46,-12.72 11.18,-26.18 22.17,-34.24 1.81,-1.33 3.09,-2.39 4.66,-3.7 -2.61,0.69 -7.16,3.03 -9.61,4.55 -3.6,2.23 -9.12,6.15 -13.97,10.35 -7.37,6.36 -15.39,16.44 -19.9,24.98 -2.85,5.39 -5.34,11.07 -6.68,14.81 -8.75,24.41 -6.36,54.5 5.31,77.12 14.35,27.84 41.04,47.25 71.75,52.66 45.86,8.09 81.81,-12.34 84.57,-62.58z"/>
    <path class="fil1" d="M35.19 66.3c-0.4,6.76 0.8,22.33 6.24,26.21 11.94,-16.22 22,-26.79 42.2,-31.95 6.31,-1.61 18.5,-2.3 28.75,-1.38 21.77,1.96 41.85,16.64 53.06,35.03 7.18,11.78 11.37,26.42 10.41,40.91 -0.41,6.17 -1.66,9.91 -2.36,15.13 -4.45,12.72 -11.17,26.18 -22.16,34.24 -1.82,1.33 -3.1,2.39 -4.66,3.7 2.6,-0.69 7.16,-3.03 9.61,-4.55 3.59,-2.23 9.12,-6.15 13.97,-10.35 7.36,-6.36 15.39,-16.44 19.89,-24.97 2.85,-5.4 5.34,-11.08 6.68,-14.82 8.76,-24.41 6.37,-54.5 -5.3,-77.12 -14.36,-27.84 -41.05,-47.25 -71.75,-52.66 -45.86,-8.09 -81.81,12.34 -84.58,62.58z"/>
   </g>
  </g>
 </g>
</svg>
