<?xml version="1.0" encoding="UTF-8"?>
<!DOCTYPE svg PUBLIC "-//W3C//DTD SVG 1.1//EN" "http://www.w3.org/Graphics/SVG/1.1/DTD/svg11.dtd">
<!-- Creator: CorelDRAW 2019 (64-Bit) -->
<svg xmlns="http://www.w3.org/2000/svg" xml:space="preserve" width="600px" height="177px" version="1.1" style="shape-rendering:geometricPrecision; text-rendering:geometricPrecision; image-rendering:optimizeQuality; fill-rule:evenodd; clip-rule:evenodd"
viewBox="0 0 600 177"
 xmlns:xlink="http://www.w3.org/1999/xlink">
 <defs>
  <style type="text/css">
   <![CDATA[
    .fil0 {fill:#FEFEFE;fill-rule:nonzero}
   ]]>
  </style>
 </defs>
 <g id="Слой_x0020_1">
  <metadata id="CorelCorpID_0Corel-Layer"/>
  <g id="_2648751258864">
   <path class="fil0" d="M140.95 25.53l0 -2.47 -1.82 -1.68c-0.77,-0.71 -19.37,-17.38 -64.05,-17.38l-0.27 0.01c-23.73,1.12 -37.62,6.98 -47.08,11.97l-2.99 1.58 -0.01 3.39c-0.01,0.44 -0.17,43.92 -0.17,70.24 0,34.71 27.36,52.62 39.13,58.71 5.28,2.74 11.44,2.71 16.46,-0.07 11.74,-6.5 39.04,-24.8 39.04,-54.39l0 -59.89 -2.83 -1.62c-0.6,-0.34 -14.98,-8.4 -41,-7.7 -2.05,0.05 -4.17,0.24 -6.31,0.53l0 11.41c2.21,-0.36 4.44,-0.61 6.61,-0.67 16.37,-0.43 27.39,3 32.26,4.94l0 53c0,23.59 -23.24,38.99 -33.23,44.52 -1.72,0.95 -3.89,0.92 -5.82,-0.08 -28.74,-14.88 -33.03,-36.89 -33.03,-48.69 0,-21.97 0.11,-55.91 0.15,-66.75 8.31,-4.03 20.21,-8.25 39.22,-9.16 32.32,0.02 49.21,9.46 54.46,13.04 0.01,7.77 0.05,30.88 0.32,59.16 0.45,46.53 -39.66,70.09 -53.74,74.68 -2.74,0.89 -5.49,0.61 -9.04,-0.12 -13.97,-2.91 -54.33,-26.9 -53.82,-74.55 0.36,-34.57 0.48,-40.03 0.48,-40.09 0.07,-3.11 -2.4,-5.69 -5.52,-5.76 -0.04,0 -0.08,0 -0.12,0 -3.06,0 -5.57,2.45 -5.64,5.52 0,0.21 -0.11,5.46 -0.48,40.21 -0.54,50.6 41.33,81.24 62.81,85.71 2.42,0.5 4.97,0.92 7.64,0.92 2.3,0 4.69,-0.31 7.18,-1.12 24.03,-7.82 61.99,-37.96 61.53,-85.5 -0.33,-34.69 -0.32,-61.58 -0.32,-61.85z"/>
   <polygon class="fil0" points="64.79,50.28 41.6,50.28 64.79,27.1 "/>
   <g>
    <path class="fil0" d="M184.24 120.01l0 21.18c3.81,0 7.63,0 11.38,0l0 -43.28 -4 0 -21.79 21.27 0 -21.08c-3.75,0 -7.51,0 -11.26,0l0 43.09 3.94 0 21.73 -21.18zm280.3 6.34l-9.85 0 4.87 -11.32 4.98 11.32zm6.1 14.84l10.77 0 0 -1.6 -19.45 -42.04 -4.74 0 -19.39 42.04 0 1.6 10.77 0 2.53 -5.42 16.98 0 2.53 5.42zm-49.48 -33.24l0 33.24c3.63,0 7.26,0 10.89,0l0 -33.24 10.53 0c0,-3.33 0,-6.59 0,-9.85l-32.01 0c0,3.26 0,6.52 0,9.85l10.59 0zm-28.12 12.06l0 21.18c3.82,0 7.64,0 11.39,0l0 -43.28 -4 0 -21.79 21.27 0 -21.08c-3.76,0 -7.51,0 -11.27,0l0 43.09 3.94 0 21.73 -21.18zm-90.66 21.18l49.93 0 0 4.86 9.04 0 0 -14.4 -4.37 0 0 -33.55 -11.26 0 0 32.93 -10.4 0 0 -32.93 -11.27 0 0 32.93 -10.4 0 0 -32.93 -11.27 0 0 43.09zm-21.96 -14.84l-9.85 0 4.86 -11.32 4.99 11.32zm6.1 14.84l10.77 0 0 -1.6 -19.45 -42.04 -4.74 0 -19.39 42.04 0 1.6 10.77 0 2.52 -5.42 16.99 0 2.53 5.42zm-55.39 -32.2c0,-1.6 1.41,-2.52 3.81,-2.52 5.18,0 5.3,7.45 -0.12,7.45l-2.89 0 0 8.99 3.01 0c7.39,0 7.39,9.78 0,9.78 -3.2,0 -5.41,-2.15 -5.41,-5.54l-9.67 0c0,9.67 5.73,14.84 15.08,14.84 11.08,0 16.63,-5.91 16.63,-13.54 0,-4.87 -1.85,-8.31 -6.22,-10.65 2.52,-1.91 3.75,-5.16 3.75,-7.97 0,-6.25 -4.74,-12.47 -14.16,-12.47 -7.51,0 -13.97,3.69 -13.6,11.63l9.79 0z"/>
    <path class="fil0" d="M582.26 37.69l15.64 0c0,-3.7 0,-6.22 0,-9.85 -8.81,0 -18.04,0 -26.84,0l0 43.09c3.75,0 7.51,0 11.2,0l0 -33.24zm-21.59 -9.85c-3.76,0 -7.51,0 -11.27,0l0 15.63 -13.29 0 0 -15.63c-3.76,0 -7.57,0 -11.27,0l0 43.09c3.7,0 7.51,0 11.27,0l0 -17.3 13.29 0 0 17.3c3.76,0 7.51,0 11.27,0l0 -43.09zm-57.67 21.91l0 21.18c3.82,0 7.64,0 11.39,0l0 -43.28 -4 0 -21.79 21.27 0 -21.08c-3.75,0 -7.51,0 -11.27,0l0 43.09 3.95 0 21.72 -21.18zm-48.92 0.25l-7.88 0c0,-3.51 0,-8.81 0,-12.31 2.52,0 5.29,-0.07 7.88,0 6.4,0.06 6.03,12.31 0,12.31zm-7.88 20.93l0 -11.02 7.94 0c20.62,0 20.62,-32.01 0,-32.07 -6.34,0 -12.74,0 -18.96,0 0,14.4 0,28.74 0,43.09 3.63,0 7.33,0 11.02,0zm-51.57 -21.49c0,-15.51 21.61,-15.51 21.61,0 0,15.64 -21.61,15.64 -21.61,0zm32.87 0c0,-29.79 -44.2,-29.79 -44.2,0 0,29.86 44.2,29.86 44.2,0zm-67.33 -11.75l0 33.24c3.63,0 7.27,0 10.9,0l0 -33.24 10.52 0c0,-3.33 0,-6.59 0,-9.85l-32.01 0c0,3.26 0,6.52 0,9.85l10.59 0zm-28.12 12.06l0 21.18c3.82,0 7.64,0 11.39,0l0 -43.28 -4 0 -21.79 21.27 0 -21.08c-3.76,0 -7.51,0 -11.26,0l0 43.09 3.93 0 21.73 -21.18zm-36.12 -21.91c-3.75,0 -7.51,0 -11.26,0l0 15.63 -13.3 0 0 -15.63c-3.75,0 -7.57,0 -11.26,0l0 43.09c3.69,0 7.51,0 11.26,0l0 -17.3 13.3 0 0 17.3c3.75,0 7.51,0 11.26,0l0 -43.09zm-76.44 21.6c0,-15.51 21.61,-15.51 21.61,0 0,15.64 -21.61,15.64 -21.61,0zm32.87 0c0,-29.79 -44.19,-29.79 -44.19,0 0,29.86 44.19,29.86 44.19,0zm-72.99 -3.01l-16.86 -18.72 -4.07 0 0 43.22c3.76,0 7.51,0 11.27,0l0 -19.21 9.11 9.6 1.23 0 9.17 -9.6 0 19.21c3.76,0 7.51,0 11.27,0l0 -43.22 -3.94 0 -17.18 18.72z"/>
   </g>
  </g>
 </g>
</svg>
