<?xml version="1.0" encoding="UTF-8"?>
<!DOCTYPE svg PUBLIC "-//W3C//DTD SVG 1.1//EN" "http://www.w3.org/Graphics/SVG/1.1/DTD/svg11.dtd">
<!-- Creator: CorelDRAW 2019 (64-Bit) -->
<svg xmlns="http://www.w3.org/2000/svg" xml:space="preserve" width="106px" height="33px" version="1.1" style="shape-rendering:geometricPrecision; text-rendering:geometricPrecision; image-rendering:optimizeQuality; fill-rule:evenodd; clip-rule:evenodd"
viewBox="0 0 106 33"
 xmlns:xlink="http://www.w3.org/1999/xlink">
 <defs>
  <style type="text/css">
   <![CDATA[
    .fil0 {fill:white;fill-rule:nonzero}
   ]]>
  </style>
 </defs>
 <g id="Слой_x0020_1">
  <metadata id="CorelCorpID_0Corel-Layer"/>
  <g id="_2594885379776">
   <path class="fil0" d="M90.28 24.13c0.57,0.01 0.55,0.49 0.7,0.82 0.27,0.69 1.07,1.15 2.03,1.38 0.48,0.11 0.99,0.17 1.5,0.18 0.51,0 1.02,-0.06 1.48,-0.16l0.01 0c1.08,-0.26 1.92,-0.81 1.92,-1.64 0,-0.71 -0.43,-1.14 -1.13,-1.42 -0.77,-0.31 -1.86,-0.44 -3.05,-0.52 -2.71,-0.18 -4.95,-0.75 -6.54,-1.95 -1.61,-1.22 -2.54,-3.08 -2.59,-5.83 -0.07,-3.88 2.35,-6.39 5.5,-7.51 1.27,-0.46 2.67,-0.69 4.06,-0.69 1.4,0 2.79,0.22 4.07,0.68 3.08,1.08 5.48,3.47 5.57,7.17 0.01,0.27 -0.16,0.64 -0.61,0.64l-5.36 0c-0.55,0.04 -0.52,-0.42 -0.58,-0.66 -0.14,-0.7 -0.69,-1.18 -1.41,-1.44 -0.42,-0.14 -0.89,-0.22 -1.36,-0.23 -0.49,-0.01 -0.98,0.04 -1.43,0.17 -1.03,0.28 -1.87,0.9 -1.93,1.81 -0.06,0.78 0.29,1.25 0.89,1.56 0.67,0.33 1.64,0.48 2.71,0.6 2.45,0.27 4.88,0.59 6.72,1.63 1.88,1.06 3.13,2.84 3.13,6.02 0,3.83 -2.65,6.3 -6.04,7.38 -1.33,0.43 -2.77,0.64 -4.2,0.63 -1.44,-0.01 -2.88,-0.24 -4.2,-0.68 -3.27,-1.1 -5.81,-3.54 -5.88,-7.37 0.03,-0.27 0.12,-0.56 0.57,-0.57l5.45 0z"/>
   <path class="fil0" d="M54.37 13.37l-5.43 0c-0.39,-0.03 -0.55,-0.3 -0.56,-0.58l0 -4.86c0.03,-0.44 0.37,-0.72 0.89,-0.74l16.8 0c0.56,0 0.99,0.39 1.03,0.94l0 4.41c-0.02,0.45 -0.32,0.81 -0.87,0.83l-5.09 0 0 18.26c-0.02,0.29 -0.24,0.55 -0.59,0.55l-5.53 0c-0.46,-0.02 -0.64,-0.25 -0.65,-0.63l0 -18.18z"/>
   <path class="fil0" d="M78.77 19.32l0 0.73 0 11.58c-0.02,0.29 -0.24,0.55 -0.59,0.55l-5.53 0c-0.46,-0.02 -0.63,-0.25 -0.65,-0.63l0 -11.5 0 -0.73 0 -11.49c0.02,-0.38 0.19,-0.62 0.65,-0.64l5.53 0c0.35,0 0.57,0.27 0.59,0.56l0 11.57z"/>
   <path class="fil0" d="M13.45 21.73l3.46 -8.05 3.54 8.05 -7 0zm32.51 4.15l0 0 -3.16 0 0 -17.67c0,-0.83 -0.57,-1.16 -1.33,-1.01l-9.72 2.53c-0.4,0.13 -0.74,0.5 -0.72,0.96l0 3.81c0.01,0.37 0.24,0.53 0.57,0.54l3.59 0 0 10.84 -3.18 0.01c-0.42,-0.01 -0.58,0.21 -0.58,0.54l0 2.44 -2.35 -4.98 -10.07 -21.79c-0.24,-0.41 -0.65,-0.86 -1.61,-0.85l-0.98 0c-0.73,0.02 -1.1,0.16 -1.6,0.9l-13.28 28.81c-0.32,0.57 -0.01,1.32 0.97,1.33l5.61 0c0.71,-0.02 1.16,-0.33 1.34,-0.71l1.45 -3.16 12.08 0 1.33 2.85c0.39,0.78 0.85,1 1.59,1l19.73 0c0.52,-0.01 0.89,-0.42 0.9,-0.78l0 -5.06c0,-0.33 -0.16,-0.55 -0.58,-0.55z"/>
  </g>
 </g>
</svg>
